STARTFONT 2.1
COMMENT
COMMENT Converted from OpenType font "Q:\font stuff\winfont\Zero Threes.ttf" by "otf2bdf 3.0".
COMMENT
FONT -FreeType-Zero Threes-Medium-R-Normal--159-1600-72-72-P-253-ISO10646-1
SIZE 160 72 72
FONTBOUNDINGBOX 178 208 -3 -62
STARTPROPERTIES 19
FOUNDRY "FreeType"
FAMILY_NAME "Zero Threes"
WEIGHT_NAME "Medium"
SLANT "R"
SETWIDTH_NAME "Normal"
ADD_STYLE_NAME ""
PIXEL_SIZE 122
POINT_SIZE 1600
RESOLUTION_X 72
RESOLUTION_Y 72
SPACING "P"
AVERAGE_WIDTH 253
CHARSET_REGISTRY "ISO10646"
CHARSET_ENCODING "1"
FONT_ASCENT 145
FONT_DESCENT 34
COPYRIGHT "(C) 1999 Ray Larabie - rlarabie@hotmail.com"
_OTF_FONTFILE "Q:\font stuff\winfont\Zero Threes.ttf"
_OTF_PSNAME "ZeroThrees"
ENDPROPERTIES
CHARS 513
STARTCHAR 0020
ENCODING 32
SWIDTH 287 0
DWIDTH 46 0
BBX 0 0 0 0
BITMAP
ENDCHAR
STARTCHAR 0021
ENCODING 33
SWIDTH 250 0
DWIDTH 40 0
BBX 26 125 7 -4
BITMAP
1FFFFC00
1FFFFC00
1FFFFC00
1FFFFC00
1FFFFC00
1FFFFC00
1FFFFC00
1FFFFC00
1FFFFC00
1FFFFC00
1FFFFC00
1FFFFC00
1FFFFC00
1FFFFC00
1FFFFC00
1FFFFC00
1FFFFC00
1FFFFC00
1FFFFC00
1FFFFC00
1FFFFC00
1FFFFC00
1FFFFC00
1FFFFC00
1FFFFC00
1FFFFC00
1FFFFC00
1FFFFC00
1FFFFC00
1FFFFC00
1FFFFC00
1FFFFC00
1FFFFC00
1FFFFC00
1FFFFC00
1FFFFC00
1FFFFC00
1FFFFC00
1FFFFC00
1FFFFC00
1FFFFC00
1FFFFC00
1FFFFC00
1FFFFC00
1FFFFC00
1FFFFC00
1FFFFC00
1FFFFC00
1FFFFC00
1FFFFC00
1FFFFC00
1FFFFC00
1FFFFC00
1FFFFC00
1FFFFC00
1FFFFC00
1FFFFC00
1FFFFC00
0FFFFC00
0FFFFC00
0FFFFC00
0FFFF800
0FFFF800
0FFFF800
0FFFF800
07FFF800
07FFF800
07FFF800
07FFF800
07FFF000
07FFF000
07FFF000
07FFF000
03FFF000
03FFF000
03FFF000
03FFF000
03FFE000
03FFE000
03FFE000
03FFE000
01FFE000
01FFE000
01FFE000
01FFE000
01FFC000
01FFC000
01FFC000
01FFC000
00FFC000
00FFC000
00FFC000
00FFC000
00000000
00000000
00000000
00000000
00000000
00000000
007F8000
01FFE000
07FFF800
0FFFFC00
1FFFFE00
1FFFFF00
3FFFFF00
7FFFFF80
7FFFFF80
7FFFFFC0
FFFFFFC0
FFFFFFC0
FFFFFFC0
FFFFFFC0
FFFFFFC0
FFFFFFC0
7FFFFFC0
7FFFFF80
7FFFFF80
3FFFFF00
1FFFFF00
1FFFFE00
0FFFFC00
03FFF800
01FFE000
003F8000
ENDCHAR
STARTCHAR 0022
ENCODING 34
SWIDTH 337 0
DWIDTH 54 0
BBX 47 37 4 90
BITMAP
FFFFE00FFFFE
FFFFC00FFFFC
FFFFC00FFFFC
FFFFC00FFFFC
FFFFC00FFFFC
FFFFC00FFFFC
FFFFC00FFFFC
FFFFC00FFFFC
7FFFC00FFFFC
7FFF800FFFF8
7FFF8007FFF8
7FFF8007FFF8
7FFF8007FFF8
7FFF8007FFF8
7FFF8007FFF8
7FFF8007FFF8
7FFF8007FFF8
7FFF0007FFF0
7FFF0007FFF0
7FFF0007FFF0
7FFF0007FFF0
7FFF0007FFF0
7FFF0007FFF0
3FFF0007FFF0
3FFF0007FFF0
3FFE0007FFE0
3FFE0003FFE0
3FFE0003FFE0
3FFE0003FFE0
3FFE0003FFE0
3FFE0003FFE0
3FFE0003FFE0
3FFE0003FFE0
3FFC0003FFC0
3FFC0003FFC0
3FFC0003FFC0
3FFC0003FFC0
ENDCHAR
STARTCHAR 0023
ENCODING 35
SWIDTH 650 0
DWIDTH 104 0
BBX 93 94 6 0
BITMAP
00001FFFFC0001FFFFC00000
00001FFFFC0001FFFFC00000
00001FFFFC0001FFFFC00000
00001FFFFC0001FFFFC00000
00001FFFFC0001FFFFC00000
00001FFFFC0001FFFFC00000
00001FFFFC0001FFFFC00000
00001FFFFC0001FFFFC00000
00001FFFFC0001FFFFC00000
00001FFFFC0001FFFFC00000
00001FFFFC0001FFFFC00000
00001FFFFC0001FFFFC00000
00001FFFFC0001FFFFC00000
00001FFFFC0001FFFFC00000
00001FFFFC0001FFFFC00000
00001FFFFC0001FFFFC00000
00001FFFFC0001FFFFC00000
00001FFFFC0001FFFFC00000
00001FFFFC0001FFFFC00000
FFFFFFFFFFFFFFFFFFFFFFF8
FFFFFFFFFFFFFFFFFFFFFFF8
FFFFFFFFFFFFFFFFFFFFFFF8
FFFFFFFFFFFFFFFFFFFFFFF8
FFFFFFFFFFFFFFFFFFFFFFF8
FFFFFFFFFFFFFFFFFFFFFFF8
FFFFFFFFFFFFFFFFFFFFFFF8
FFFFFFFFFFFFFFFFFFFFFFF8
FFFFFFFFFFFFFFFFFFFFFFF8
FFFFFFFFFFFFFFFFFFFFFFF8
FFFFFFFFFFFFFFFFFFFFFFF8
FFFFFFFFFFFFFFFFFFFFFFF8
FFFFFFFFFFFFFFFFFFFFFFF8
FFFFFFFFFFFFFFFFFFFFFFF8
FFFFFFFFFFFFFFFFFFFFFFF8
FFFFFFFFFFFFFFFFFFFFFFF8
FFFFFFFFFFFFFFFFFFFFFFF8
FFFFFFFFFFFFFFFFFFFFFFF8
FFFFFFFFFFFFFFFFFFFFFFF8
00001FFFFC0001FFFFC00000
00001FFFFC0001FFFFC00000
00001FFFFC0001FFFFC00000
00001FFFFC0001FFFFC00000
00001FFFFC0001FFFFC00000
00001FFFFC0001FFFFC00000
00001FFFFC0001FFFFC00000
00001FFFFC0001FFFFC00000
00001FFFFC0001FFFFC00000
00001FFFFC0001FFFFC00000
00001FFFFC0001FFFFC00000
00001FFFFC0001FFFFC00000
00001FFFFC0001FFFFC00000
00001FFFFC0001FFFFC00000
00001FFFFC0001FFFFC00000
00001FFFFC0001FFFFC00000
00001FFFFC0001FFFFC00000
00001FFFFC0001FFFFC00000
FFFFFFFFFFFFFFFFFFFFFFF8
FFFFFFFFFFFFFFFFFFFFFFF8
FFFFFFFFFFFFFFFFFFFFFFF8
FFFFFFFFFFFFFFFFFFFFFFF8
FFFFFFFFFFFFFFFFFFFFFFF8
FFFFFFFFFFFFFFFFFFFFFFF8
FFFFFFFFFFFFFFFFFFFFFFF8
FFFFFFFFFFFFFFFFFFFFFFF8
FFFFFFFFFFFFFFFFFFFFFFF8
FFFFFFFFFFFFFFFFFFFFFFF8
FFFFFFFFFFFFFFFFFFFFFFF8
FFFFFFFFFFFFFFFFFFFFFFF8
FFFFFFFFFFFFFFFFFFFFFFF8
FFFFFFFFFFFFFFFFFFFFFFF8
FFFFFFFFFFFFFFFFFFFFFFF8
FFFFFFFFFFFFFFFFFFFFFFF8
FFFFFFFFFFFFFFFFFFFFFFF8
FFFFFFFFFFFFFFFFFFFFFFF8
FFFFFFFFFFFFFFFFFFFFFFF8
00001FFFFC0001FFFFC00000
00001FFFFC0001FFFFC00000
00001FFFFC0001FFFFC00000
00001FFFFC0001FFFFC00000
00001FFFFC0001FFFFC00000
00001FFFFC0001FFFFC00000
00001FFFFC0001FFFFC00000
00001FFFFC0001FFFFC00000
00001FFFFC0001FFFFC00000
00001FFFFC0001FFFFC00000
00001FFFFC0001FFFFC00000
00001FFFFC0001FFFFC00000
00001FFFFC0001FFFFC00000
00001FFFFC0001FFFFC00000
00001FFFFC0001FFFFC00000
00001FFFFC0001FFFFC00000
00001FFFFC0001FFFFC00000
00001FFFFC0001FFFFC00000
00001FFFFC0001FFFFC00000
ENDCHAR
STARTCHAR 0024
ENCODING 36
SWIDTH 575 0
DWIDTH 92 0
BBX 79 131 6 -4
BITMAP
000000001FF000000000
000000001FF000000000
000000001FF000000000
000000001FF000000000
000000001FF000000000
000000001FF000000000
000000001FF000000000
000000001FF000000000
000000001FF000000000
000000001FF000000000
000000001FF000000000
000000001FF000000000
000000001FF000000000
000000001FF000000000
000000001FF000000000
000000001FF000000000
000000001FF000000000
000000001FF000000000
000000001FF000000000
0003FFFFFFFFFFFFFF00
001FFFFFFFFFFFFFFF00
007FFFFFFFFFFFFFFF00
00FFFFFFFFFFFFFFFF00
03FFFFFFFFFFFFFFFF00
07FFFFFFFFFFFFFFFF00
07FFFFFFFFFFFFFFFF00
0FFFFFFFFFFFFFFFFF00
1FFFFFFFFFFFFFFFFF00
3FFFFFFFFFFFFFFFFF00
3FFFFFFFFFFFFFFFFF00
7FFFFFFFFFFFFFFFFF00
7FFFFFFFFFFFFFFFFF00
7FFFFFFFFFFFFFFFFF00
FFFFFFFFFFFFFFFFFF00
FFFFFFFFFFFFFFFFFF00
FFFFFFFFFFFFFFFFFF00
FFFFFFFFFFFFFFFFFF00
FFFFFFFFFFFFFFFFFF00
FFFFE0001FF000000000
FFFFE0001FF000000000
FFFFE0001FF000000000
FFFFE0001FF000000000
FFFFE0001FF000000000
FFFFE0001FF000000000
FFFFE0001FF000000000
FFFFE0001FF000000000
FFFFE0001FF000000000
FFFFE0001FF000000000
FFFFE0001FF000000000
FFFFE0001FF000000000
FFFFE0001FF000000000
FFFFE0001FF000000000
FFFFE0001FF000000000
FFFFE0001FF000000000
FFFFE0001FF000000000
FFFFE0001FF000000000
FFFFFFFFFFFFFFFC0000
FFFFFFFFFFFFFFFFE000
FFFFFFFFFFFFFFFFF800
FFFFFFFFFFFFFFFFFE00
FFFFFFFFFFFFFFFFFF00
FFFFFFFFFFFFFFFFFF80
7FFFFFFFFFFFFFFFFFC0
7FFFFFFFFFFFFFFFFFE0
3FFFFFFFFFFFFFFFFFF0
3FFFFFFFFFFFFFFFFFF0
1FFFFFFFFFFFFFFFFFF8
1FFFFFFFFFFFFFFFFFF8
0FFFFFFFFFFFFFFFFFFC
07FFFFFFFFFFFFFFFFFC
03FFFFFFFFFFFFFFFFFC
01FFFFFFFFFFFFFFFFFE
007FFFFFFFFFFFFFFFFE
001FFFFFFFFFFFFFFFFE
0003FFFFFFFFFFFFFFFE
000000001FF0000FFFFE
000000001FF0000FFFFE
000000001FF0000FFFFE
000000001FF0000FFFFE
000000001FF0000FFFFE
000000001FF0000FFFFE
000000001FF0000FFFFE
000000001FF0000FFFFE
000000001FF0000FFFFE
000000001FF0000FFFFE
000000001FF0000FFFFE
000000001FF0000FFFFE
000000001FF0000FFFFE
000000001FF0000FFFFE
000000001FF0000FFFFE
000000001FF0000FFFFE
000000001FF0000FFFFE
000000001FF0000FFFFE
000000001FF0000FFFFE
07FFFFFFFFFFFFFFFFFE
07FFFFFFFFFFFFFFFFFE
07FFFFFFFFFFFFFFFFFE
07FFFFFFFFFFFFFFFFFE
07FFFFFFFFFFFFFFFFFE
07FFFFFFFFFFFFFFFFFC
07FFFFFFFFFFFFFFFFFC
07FFFFFFFFFFFFFFFFFC
07FFFFFFFFFFFFFFFFF8
07FFFFFFFFFFFFFFFFF8
07FFFFFFFFFFFFFFFFF0
07FFFFFFFFFFFFFFFFF0
07FFFFFFFFFFFFFFFFE0
07FFFFFFFFFFFFFFFFC0
07FFFFFFFFFFFFFFFF80
07FFFFFFFFFFFFFFFF00
07FFFFFFFFFFFFFFFC00
07FFFFFFFFFFFFFFF000
07FFFFFFFFFFFFFF8000
000000001FF000000000
000000001FF000000000
000000001FF000000000
000000001FF000000000
000000001FF000000000
000000001FF000000000
000000001FF000000000
000000001FF000000000
000000001FF000000000
000000001FF000000000
000000001FF000000000
000000001FF000000000
000000001FF000000000
000000001FF000000000
000000001FF000000000
000000001FF000000000
000000001FF000000000
000000001FF000000000
ENDCHAR
STARTCHAR 0025
ENCODING 37
SWIDTH 675 0
DWIDTH 108 0
BBX 101 64 3 28
BITMAP
0001FF000000000001FFFF0000
000FFFE00000000003FFFE0000
003FFFF80000000007FFFE0000
00FFFFFC000000000FFFFC0000
01FFFFFE000000001FFFF80000
03FFFFFF800000003FFFF00000
07FFFFFF800000003FFFE00000
0FFFFFFFC00000007FFFC00000
1FFFFFFFE0000000FFFF800000
1FFFFFFFF0000001FFFF000000
3FFFFFFFF0000003FFFE000000
3FFFFFFFF8000007FFFC000000
7FFFFFFFF800000FFFF8000000
7FFF87FFF800001FFFF8000000
7FFE01FFFC00003FFFF0000000
7FFC00FFFC00007FFFE0000000
FFF8007FFC0000FFFFC0000000
FFF8007FFC0000FFFF80000000
FFF8007FFC0001FFFF00000000
FFF8007FFC0003FFFE00000000
FFF8007FFC0007FFFC00000000
FFF8007FFC000FFFF800000000
FFFC00FFFC001FFFF000000000
7FFE01FFFC003FFFE000000000
7FFF83FFF8007FFFE000000000
7FFFFFFFF800FFFFC003FC0000
3FFFFFFFF801FFFF801FFFC000
3FFFFFFFF003FFFF007FFFF000
1FFFFFFFF003FFFE01FFFFF800
1FFFFFFFE007FFFC03FFFFFC00
0FFFFFFFC00FFFF807FFFFFE00
07FFFFFFC01FFFF00FFFFFFF00
03FFFFFF803FFFE01FFFFFFF80
01FFFFFF007FFFC03FFFFFFFC0
00FFFFFC00FFFF803FFFFFFFC0
003FFFF801FFFF807FFFFFFFE0
000FFFE003FFFF007FFFFFFFF0
0001FF0007FFFE00FFFFFFFFF0
000000000FFFFC00FFFF0FFFF0
000000001FFFF800FFFC03FFF8
000000001FFFF000FFF801FFF8
000000003FFFE001FFF801FFF8
000000007FFFC001FFF000FFF8
00000000FFFF8001FFF000FFF8
00000001FFFF0001FFF000FFF8
00000003FFFE0001FFF000FFF8
00000007FFFE0001FFF000FFF8
0000000FFFFC0001FFF800FFF8
0000001FFFF80000FFF801FFF8
0000003FFFF00000FFFC03FFF8
0000007FFFE00000FFFF07FFF0
0000007FFFC00000FFFFFFFFF0
000000FFFF8000007FFFFFFFF0
000001FFFF0000007FFFFFFFE0
000003FFFE0000003FFFFFFFE0
000007FFFC0000003FFFFFFFC0
00000FFFF80000001FFFFFFF80
00001FFFF00000000FFFFFFF00
00003FFFF000000007FFFFFF00
00007FFFE000000003FFFFFC00
0000FFFFC000000001FFFFF800
0001FFFF80000000007FFFF000
0001FFFF00000000001FFFC000
0003FFFE000000000003FE0000
ENDCHAR
STARTCHAR 0026
ENCODING 38
SWIDTH 693 0
DWIDTH 111 0
BBX 102 121 5 0
BITMAP
0003FFFFFFFFFFFF8000000000
003FFFFFFFFFFFFF8000000000
00FFFFFFFFFFFFFF8000000000
01FFFFFFFFFFFFFF8000000000
07FFFFFFFFFFFFFF8000000000
0FFFFFFFFFFFFFFF8000000000
0FFFFFFFFFFFFFFF8000000000
1FFFFFFFFFFFFFFF8000000000
3FFFFFFFFFFFFFFF8000000000
3FFFFFFFFFFFFFFF8000000000
7FFFFFFFFFFFFFFF8000000000
7FFFFFFFFFFFFFFF8000000000
7FFFFFFFFFFFFFFF8000000000
FFFFFFFFFFFFFFFF8000000000
FFFFFFFFFFFFFFFF8000000000
FFFFFFFFFFFFFFFF8000000000
FFFFFFFFFFFFFFFF8000000000
FFFFFFFFFFFFFFFF8000000000
FFFFFFFFFFFFFFFF8000000000
FFFFE000000000000000000000
FFFFE000000000000000000000
FFFFE000000000000000000000
FFFFE000000000000000000000
FFFFE000000000000000000000
FFFFE000000000000000000000
FFFFE000000000000000000000
FFFFE000000000000000000000
FFFFE000000000000000000000
FFFFE00000000000003FFFF800
FFFFE00000000000003FFFF800
FFFFE00000000000003FFFF800
FFFFE00000000000003FFFF800
FFFFE00000000000003FFFF800
FFFFE00000000000003FFFF800
FFFFE00000000000003FFFF800
FFFFE00000000000003FFFF800
FFFFE00000000000003FFFF800
FFFFFFFFFFFFFFFFFFFFFFFFFC
FFFFFFFFFFFFFFFFFFFFFFFFFC
FFFFFFFFFFFFFFFFFFFFFFFFFC
FFFFFFFFFFFFFFFFFFFFFFFFFC
FFFFFFFFFFFFFFFFFFFFFFFFFC
FFFFFFFFFFFFFFFFFFFFFFFFFC
FFFFFFFFFFFFFFFFFFFFFFFFFC
FFFFFFFFFFFFFFFFFFFFFFFFFC
FFFFFFFFFFFFFFFFFFFFFFFFFC
FFFFFFFFFFFFFFFFFFFFFFFFFC
FFFFFFFFFFFFFFFFFFFFFFFFFC
FFFFFFFFFFFFFFFFFFFFFFFFFC
FFFFFFFFFFFFFFFFFFFFFFFFFC
FFFFFFFFFFFFFFFFFFFFFFFFFC
FFFFFFFFFFFFFFFFFFFFFFFFFC
FFFFFFFFFFFFFFFFFFFFFFFFFC
FFFFFFFFFFFFFFFFFFFFFFFFFC
FFFFFFFFFFFFFFFFFFFFFFFFFC
FFFFFFFFFFFFFFFFFFFFFFFFFC
FFFFE00000000000003FFFF800
FFFFE00000000000003FFFF800
FFFFE00000000000003FFFF800
FFFFE00000000000003FFFF800
FFFFE00000000000003FFFF800
FFFFE00000000000003FFFF800
FFFFE00000000000003FFFF800
FFFFE00000000000003FFFF800
FFFFE00000000000003FFFF800
FFFFE00000000000003FFFF800
FFFFE00000000000003FFFF800
FFFFE00000000000003FFFF800
FFFFE00000000000003FFFF800
FFFFE00000000000003FFFF800
FFFFE00000000000003FFFF800
FFFFE00000000000003FFFF800
FFFFE00000000000003FFFF800
FFFFE00000000000003FFFF800
FFFFE00000000000003FFFF800
FFFFE00000000000003FFFF800
FFFFE00000000000003FFFF800
FFFFE00000000000003FFFF800
FFFFE00000000000003FFFF800
FFFFE00000000000003FFFF800
FFFFE00000000000003FFFF800
FFFFE00000000000003FFFF800
FFFFE00000000000003FFFF800
FFFFE00000000000003FFFF800
FFFFE00000000000003FFFF800
FFFFE00000000000003FFFF800
FFFFE00000000000003FFFF800
FFFFE00000000000003FFFF800
FFFFE00000000000003FFFF800
FFFFE00000000000003FFFF800
FFFFE00000000000003FFFF800
FFFFE00000000000003FFFF800
FFFFE00000000000003FFFF800
FFFFE00000000000003FFFF800
FFFFE00000000000003FFFF800
FFFFE00000000000003FFFF800
FFFFE00000000000003FFFF800
FFFFE00000000000003FFFF800
FFFFE00000000000003FFFF800
FFFFE00000000000003FFFF800
FFFFE00000000000003FFFF800
FFFFE00000000000003FFFF800
FFFFFFFFFFFFFFFFFFFFFFF800
FFFFFFFFFFFFFFFFFFFFFFF800
FFFFFFFFFFFFFFFFFFFFFFF000
FFFFFFFFFFFFFFFFFFFFFFF000
FFFFFFFFFFFFFFFFFFFFFFF000
FFFFFFFFFFFFFFFFFFFFFFF000
7FFFFFFFFFFFFFFFFFFFFFF000
7FFFFFFFFFFFFFFFFFFFFFE000
7FFFFFFFFFFFFFFFFFFFFFE000
3FFFFFFFFFFFFFFFFFFFFFC000
1FFFFFFFFFFFFFFFFFFFFFC000
1FFFFFFFFFFFFFFFFFFFFF8000
0FFFFFFFFFFFFFFFFFFFFF0000
07FFFFFFFFFFFFFFFFFFFF0000
03FFFFFFFFFFFFFFFFFFFE0000
01FFFFFFFFFFFFFFFFFFF80000
007FFFFFFFFFFFFFFFFFF00000
001FFFFFFFFFFFFFFFFFC00000
0003FFFFFFFFFFFFFFFE000000
ENDCHAR
STARTCHAR 0027
ENCODING 39
SWIDTH 162 0
DWIDTH 26 0
BBX 27 37 0 90
BITMAP
003FC000
01FFF800
03FFFC00
07FFFE00
0FFFFF00
1FFFFF80
3FFFFF80
3FFFFFC0
7FFFFFC0
7FFFFFC0
7FFFFFC0
7FFFFFC0
FFFFFFE0
FFFFFFC0
7FFFFFC0
7FFFFFC0
7FFFFFC0
7FFFFFC0
7FFFFFC0
3FFFFFC0
3FFFFF80
1FFFFF80
0FFFFF80
07FFFF00
03FFFE00
003FFE00
003FFC00
007FF800
007FF000
00FFE000
01FFC000
03FF0000
0FFC0000
3FF80000
1FE00000
0F800000
04000000
ENDCHAR
STARTCHAR 0028
ENCODING 40
SWIDTH 225 0
DWIDTH 36 0
BBX 33 151 2 -27
BITMAP
0003FFFF80
0007FFFF00
0007FFFF00
0007FFFF00
0007FFFE00
000FFFFE00
000FFFFE00
000FFFFC00
001FFFFC00
001FFFFC00
001FFFFC00
003FFFF800
003FFFF800
003FFFF800
003FFFF000
007FFFF000
007FFFF000
007FFFF000
00FFFFE000
00FFFFE000
00FFFFE000
00FFFFE000
01FFFFC000
01FFFFC000
01FFFFC000
01FFFFC000
03FFFF8000
03FFFF8000
03FFFF8000
03FFFF8000
03FFFF0000
07FFFF0000
07FFFF0000
07FFFF0000
07FFFF0000
0FFFFE0000
0FFFFE0000
0FFFFE0000
0FFFFE0000
0FFFFE0000
0FFFFC0000
1FFFFC0000
1FFFFC0000
1FFFFC0000
1FFFFC0000
1FFFFC0000
1FFFF80000
3FFFF80000
3FFFF80000
3FFFF80000
3FFFF80000
3FFFF80000
3FFFF80000
3FFFF80000
7FFFF00000
7FFFF00000
7FFFF00000
7FFFF00000
7FFFF00000
7FFFF00000
7FFFF00000
7FFFF00000
7FFFF00000
7FFFF00000
7FFFF00000
FFFFF00000
FFFFE00000
FFFFE00000
FFFFE00000
FFFFE00000
FFFFE00000
FFFFE00000
FFFFE00000
FFFFE00000
FFFFE00000
FFFFE00000
FFFFE00000
FFFFE00000
FFFFE00000
FFFFE00000
FFFFE00000
FFFFE00000
FFFFE00000
FFFFE00000
FFFFE00000
FFFFE00000
7FFFF00000
7FFFF00000
7FFFF00000
7FFFF00000
7FFFF00000
7FFFF00000
7FFFF00000
7FFFF00000
7FFFF00000
7FFFF00000
7FFFF00000
3FFFF80000
3FFFF80000
3FFFF80000
3FFFF80000
3FFFF80000
3FFFF80000
3FFFF80000
3FFFF80000
1FFFFC0000
1FFFFC0000
1FFFFC0000
1FFFFC0000
1FFFFC0000
1FFFFC0000
0FFFFE0000
0FFFFE0000
0FFFFE0000
0FFFFE0000
0FFFFE0000
07FFFF0000
07FFFF0000
07FFFF0000
07FFFF0000
07FFFF0000
03FFFF8000
03FFFF8000
03FFFF8000
03FFFF8000
01FFFF8000
01FFFFC000
01FFFFC000
01FFFFC000
00FFFFC000
00FFFFE000
00FFFFE000
00FFFFE000
007FFFE000
007FFFF000
007FFFF000
003FFFF000
003FFFF800
003FFFF800
003FFFF800
001FFFF800
001FFFFC00
001FFFFC00
000FFFFC00
000FFFFE00
000FFFFE00
000FFFFE00
0007FFFF00
0007FFFF00
0007FFFF00
0003FFFF80
ENDCHAR
STARTCHAR 0029
ENCODING 41
SWIDTH 300 0
DWIDTH 48 0
BBX 32 151 7 -27
BITMAP
FFFFC000
FFFFE000
7FFFE000
7FFFE000
7FFFF000
3FFFF000
3FFFF000
3FFFF800
3FFFF800
1FFFF800
1FFFFC00
1FFFFC00
0FFFFC00
0FFFFC00
0FFFFE00
0FFFFE00
07FFFE00
07FFFF00
07FFFF00
07FFFF00
03FFFF00
03FFFF80
03FFFF80
03FFFF80
01FFFF80
01FFFFC0
01FFFFC0
01FFFFC0
00FFFFC0
00FFFFC0
00FFFFE0
00FFFFE0
00FFFFE0
007FFFE0
007FFFF0
007FFFF0
007FFFF0
007FFFF0
003FFFF0
003FFFF8
003FFFF8
003FFFF8
003FFFF8
003FFFF8
001FFFF8
001FFFFC
001FFFFC
001FFFFC
001FFFFC
001FFFFC
001FFFFC
000FFFFC
000FFFFE
000FFFFE
000FFFFE
000FFFFE
000FFFFE
000FFFFE
000FFFFE
000FFFFE
000FFFFE
000FFFFE
0007FFFE
0007FFFF
0007FFFF
0007FFFF
0007FFFF
0007FFFF
0007FFFF
0007FFFF
0007FFFF
0007FFFF
0007FFFF
0007FFFF
0007FFFF
0007FFFF
0007FFFF
0007FFFF
0007FFFF
0007FFFF
0007FFFF
0007FFFF
0007FFFF
0007FFFF
0007FFFF
0007FFFF
0007FFFF
0007FFFF
0007FFFF
000FFFFE
000FFFFE
000FFFFE
000FFFFE
000FFFFE
000FFFFE
000FFFFE
000FFFFE
000FFFFE
000FFFFE
001FFFFC
001FFFFC
001FFFFC
001FFFFC
001FFFFC
001FFFFC
001FFFFC
003FFFF8
003FFFF8
003FFFF8
003FFFF8
003FFFF8
003FFFF8
007FFFF0
007FFFF0
007FFFF0
007FFFF0
007FFFF0
007FFFE0
00FFFFE0
00FFFFE0
00FFFFE0
00FFFFC0
00FFFFC0
01FFFFC0
01FFFFC0
01FFFFC0
01FFFF80
03FFFF80
03FFFF80
03FFFF80
03FFFF00
07FFFF00
07FFFF00
07FFFE00
07FFFE00
0FFFFE00
0FFFFE00
0FFFFC00
0FFFFC00
1FFFFC00
1FFFFC00
1FFFF800
1FFFF800
3FFFF800
3FFFF000
3FFFF000
7FFFF000
7FFFE000
7FFFE000
FFFFE000
FFFFC000
ENDCHAR
STARTCHAR 002A
ENCODING 42
SWIDTH 331 0
DWIDTH 53 0
BBX 44 45 6 31
BITMAP
0000FFE00000
0000FFE00000
0000FFE00000
0000FFE00000
0000FFE00000
0000FFE00000
0000FFE00000
0600FFE00600
0F00FFE01E00
0FC0FFE07F00
1FF0FFE1FF00
3FF8FFE3FF80
3FFEFFEFFFC0
7FFFFFFFFFC0
7FFFFFFFFFE0
FFFFFFFFFFE0
FFFFFFFFFFF0
3FFFFFFFFFC0
0FFFFFFFFF00
07FFFFFFFE00
01FFFFFFF800
007FFFFFE000
003FFFFF8000
007FFFFFC000
00FFFFFFF000
03FFFFFFFC00
0FFFFFFFFE00
1FFFFFFFFF80
7FFFFFFFFFE0
FFFFFFFFFFF0
7FFFFFFFFFE0
7FFFFFFFFFC0
3FFFFFFFFFC0
3FFCFFE7FF80
1FF8FFE3FF80
0FE0FFE0FF00
0F80FFE03F00
0700FFE00E00
0400FFE00400
0000FFE00000
0000FFE00000
0000FFE00000
0000FFE00000
0000FFE00000
0000FFE00000
ENDCHAR
STARTCHAR 002B
ENCODING 43
SWIDTH 406 0
DWIDTH 65 0
BBX 56 57 5 36
BITMAP
00003FFFF80000
00003FFFF80000
00003FFFF80000
00003FFFF80000
00003FFFF80000
00003FFFF80000
00003FFFF80000
00003FFFF80000
00003FFFF80000
00003FFFF80000
00003FFFF80000
00003FFFF80000
00003FFFF80000
00003FFFF80000
00003FFFF80000
00003FFFF80000
00003FFFF80000
00003FFFF80000
00003FFFF80000
FFFFFFFFFFFFFF
FFFFFFFFFFFFFF
FFFFFFFFFFFFFF
FFFFFFFFFFFFFF
FFFFFFFFFFFFFF
FFFFFFFFFFFFFF
FFFFFFFFFFFFFF
FFFFFFFFFFFFFF
FFFFFFFFFFFFFF
FFFFFFFFFFFFFF
FFFFFFFFFFFFFF
FFFFFFFFFFFFFF
FFFFFFFFFFFFFF
FFFFFFFFFFFFFF
FFFFFFFFFFFFFF
FFFFFFFFFFFFFF
FFFFFFFFFFFFFF
FFFFFFFFFFFFFF
FFFFFFFFFFFFFF
00003FFFF80000
00003FFFF80000
00003FFFF80000
00003FFFF80000
00003FFFF80000
00003FFFF80000
00003FFFF80000
00003FFFF80000
00003FFFF80000
00003FFFF80000
00003FFFF80000
00003FFFF80000
00003FFFF80000
00003FFFF80000
00003FFFF80000
00003FFFF80000
00003FFFF80000
00003FFFF80000
00003FFFF80000
ENDCHAR
STARTCHAR 002C
ENCODING 44
SWIDTH 218 0
DWIDTH 35 0
BBX 26 37 4 -15
BITMAP
003FC000
01FFF800
03FFFC00
07FFFE00
0FFFFF00
1FFFFF80
3FFFFF80
3FFFFFC0
7FFFFFC0
7FFFFFC0
7FFFFFC0
7FFFFFC0
FFFFFFC0
FFFFFFC0
7FFFFFC0
7FFFFFC0
7FFFFFC0
7FFFFFC0
3FFFFFC0
3FFFFFC0
1FFFFF80
1FFFFF80
0FFFFF00
03FFFF00
003FFE00
003FFE00
007FFC00
007FF800
00FFF000
01FFE000
03FFC000
07FF0000
1FFC0000
3FF80000
1FE00000
0F800000
04000000
ENDCHAR
STARTCHAR 002D
ENCODING 45
SWIDTH 406 0
DWIDTH 65 0
BBX 56 19 5 55
BITMAP
FFFFFFFFFFFFFF
FFFFFFFFFFFFFF
FFFFFFFFFFFFFF
FFFFFFFFFFFFFF
FFFFFFFFFFFFFF
FFFFFFFFFFFFFF
FFFFFFFFFFFFFF
FFFFFFFFFFFFFF
FFFFFFFFFFFFFF
FFFFFFFFFFFFFF
FFFFFFFFFFFFFF
FFFFFFFFFFFFFF
FFFFFFFFFFFFFF
FFFFFFFFFFFFFF
FFFFFFFFFFFFFF
FFFFFFFFFFFFFF
FFFFFFFFFFFFFF
FFFFFFFFFFFFFF
FFFFFFFFFFFFFF
ENDCHAR
STARTCHAR 002E
ENCODING 46
SWIDTH 212 0
DWIDTH 34 0
BBX 26 26 4 -4
BITMAP
003F8000
01FFE000
07FFF800
0FFFFC00
1FFFFE00
1FFFFF00
3FFFFF80
7FFFFF80
7FFFFFC0
7FFFFFC0
7FFFFFC0
FFFFFFC0
FFFFFFC0
FFFFFFC0
FFFFFFC0
7FFFFFC0
7FFFFFC0
7FFFFF80
7FFFFF80
3FFFFF80
1FFFFF00
0FFFFE00
0FFFFC00
03FFF800
01FFF000
003F8000
ENDCHAR
STARTCHAR 002F
ENCODING 47
SWIDTH 500 0
DWIDTH 80 0
BBX 74 121 5 0
BITMAP
000000000000000FFFC0
000000000000001FFFC0
000000000000001FFF80
000000000000003FFF80
000000000000003FFF00
000000000000007FFF00
000000000000007FFE00
00000000000000FFFE00
00000000000000FFFC00
00000000000001FFFC00
00000000000001FFF800
00000000000003FFF800
00000000000003FFF000
00000000000007FFF000
00000000000007FFE000
0000000000000FFFE000
0000000000000FFFC000
0000000000001FFFC000
0000000000001FFF8000
0000000000003FFF8000
0000000000003FFF0000
0000000000007FFF0000
0000000000007FFE0000
000000000000FFFE0000
000000000000FFFC0000
000000000001FFFC0000
000000000001FFF80000
000000000003FFF80000
000000000003FFF00000
000000000007FFF00000
000000000007FFE00000
00000000000FFFE00000
00000000000FFFC00000
00000000001FFFC00000
00000000001FFF800000
00000000003FFF800000
00000000003FFF000000
00000000007FFF000000
00000000007FFE000000
0000000000FFFE000000
0000000000FFFC000000
0000000001FFFC000000
0000000001FFF8000000
0000000003FFF8000000
0000000003FFF0000000
0000000007FFF0000000
0000000007FFE0000000
000000000FFFE0000000
000000000FFFC0000000
000000001FFFC0000000
000000001FFF80000000
000000003FFF80000000
000000003FFF00000000
000000007FFF00000000
000000007FFE00000000
00000000FFFE00000000
00000000FFFC00000000
00000001FFFC00000000
00000001FFF800000000
00000003FFF800000000
00000003FFF000000000
00000007FFF000000000
00000007FFE000000000
0000000FFFE000000000
0000000FFFC000000000
0000001FFFC000000000
0000001FFF8000000000
0000003FFF8000000000
0000003FFF0000000000
0000007FFF0000000000
0000007FFE0000000000
000000FFFE0000000000
000000FFFC0000000000
000001FFFC0000000000
000001FFF80000000000
000003FFF80000000000
000003FFF00000000000
000007FFF00000000000
000007FFE00000000000
00000FFFE00000000000
00000FFFC00000000000
00001FFFC00000000000
00001FFF800000000000
00003FFF800000000000
00003FFF000000000000
00007FFF000000000000
00007FFE000000000000
0000FFFE000000000000
0000FFFC000000000000
0001FFFC000000000000
0001FFF8000000000000
0003FFF8000000000000
0003FFF0000000000000
0007FFF0000000000000
0007FFE0000000000000
000FFFE0000000000000
000FFFC0000000000000
001FFFC0000000000000
001FFF80000000000000
003FFF80000000000000
003FFF00000000000000
007FFF00000000000000
007FFE00000000000000
00FFFE00000000000000
00FFFC00000000000000
01FFFC00000000000000
01FFF800000000000000
03FFF800000000000000
03FFF000000000000000
07FFF000000000000000
07FFE000000000000000
0FFFE000000000000000
0FFFC000000000000000
1FFFC000000000000000
1FFF8000000000000000
3FFF8000000000000000
3FFF0000000000000000
7FFF0000000000000000
7FFE0000000000000000
FFFE0000000000000000
FFFC0000000000000000
ENDCHAR
STARTCHAR 0030
ENCODING 48
SWIDTH 668 0
DWIDTH 107 0
BBX 93 121 7 0
BITMAP
0003FFFFFFFFFFFFFFFC0000
001FFFFFFFFFFFFFFFFF8000
007FFFFFFFFFFFFFFFFFE000
01FFFFFFFFFFFFFFFFFFF800
03FFFFFFFFFFFFFFFFFFFC00
07FFFFFFFFFFFFFFFFFFFE00
0FFFFFFFFFFFFFFFFFFFFF00
1FFFFFFFFFFFFFFFFFFFFF80
1FFFFFFFFFFFFFFFFFFFFF80
3FFFFFFFFFFFFFFFFFFFFFC0
3FFFFFFFFFFFFFFFFFFFFFE0
7FFFFFFFFFFFFFFFFFFFFFE0
7FFFFFFFFFFFFFFFFFFFFFE0
FFFFFFFFFFFFFFFFFFFFFFF0
FFFFFFFFFFFFFFFFFFFFFFF0
FFFFFFFFFFFFFFFFFFFFFFF0
FFFFFFFFFFFFFFFFFFFFFFF0
FFFFFFFFFFFFFFFFFFFFFFF0
FFFFFFFFFFFFFFFFFFFFFFF8
FFFFE00000000000003FFFF8
FFFFE00000000000003FFFF8
FFFFE00000000000003FFFF8
FFFFE00000000000003FFFF8
FFFFE00000000000003FFFF8
FFFFE00000000000003FFFF8
FFFFE00000000000003FFFF8
FFFFE00000000000003FFFF8
FFFFE00000000000003FFFF8
FFFFE00000000000003FFFF8
FFFFE00000000000003FFFF8
FFFFE00000000000003FFFF8
FFFFE00000000000003FFFF8
FFFFE00000000000003FFFF8
FFFFE00000000000003FFFF8
FFFFE00000000000003FFFF8
FFFFE00000000000003FFFF8
FFFFE00000000000003FFFF8
FFFFE00000000000003FFFF8
FFFFE00000000000003FFFF8
FFFFE00000000000003FFFF8
FFFFE00000000000003FFFF8
FFFFE00000000000003FFFF8
FFFFE00000000000003FFFF8
FFFFE00000000000003FFFF8
FFFFE00000000000003FFFF8
FFFFE00000000000003FFFF8
FFFFE00000000000003FFFF8
FFFFE00000000000003FFFF8
FFFFE00000000000003FFFF8
FFFFE00000000000003FFFF8
FFFFE00000000000003FFFF8
FFFFE00000000000003FFFF8
FFFFE00000000000003FFFF8
FFFFE00000000000003FFFF8
FFFFE00000000000003FFFF8
FFFFE00000000000003FFFF8
FFFFE00000000000003FFFF8
FFFFE00000000000003FFFF8
FFFFE00000000000003FFFF8
FFFFE00000000000003FFFF8
FFFFE00000000000003FFFF8
FFFFE00000000000003FFFF8
FFFFE00000000000003FFFF8
FFFFE00000000000003FFFF8
FFFFE00000000000003FFFF8
FFFFE00000000000003FFFF8
FFFFE00000000000003FFFF8
FFFFE00000000000003FFFF8
FFFFE00000000000003FFFF8
FFFFE00000000000003FFFF8
FFFFE00000000000003FFFF8
FFFFE00000000000003FFFF8
FFFFE00000000000003FFFF8
FFFFE00000000000003FFFF8
FFFFE00000000000003FFFF8
FFFFE00000000000003FFFF8
FFFFE00000000000003FFFF8
FFFFE00000000000003FFFF8
FFFFE00000000000003FFFF8
FFFFE00000000000003FFFF8
FFFFE00000000000003FFFF8
FFFFE00000000000003FFFF8
FFFFE00000000000003FFFF8
FFFFE00000000000003FFFF8
FFFFE00000000000003FFFF8
FFFFE00000000000003FFFF8
FFFFE00000000000003FFFF8
FFFFE00000000000003FFFF8
FFFFE00000000000003FFFF8
FFFFE00000000000003FFFF8
FFFFE00000000000003FFFF8
FFFFE00000000000003FFFF8
FFFFE00000000000003FFFF8
FFFFE00000000000003FFFF8
FFFFE00000000000003FFFF8
FFFFE00000000000003FFFF8
FFFFE00000000000003FFFF8
FFFFE00000000000003FFFF8
FFFFE00000000000003FFFF8
FFFFE00000000000003FFFF8
FFFFE00000000000003FFFF8
FFFFE00000000000003FFFF8
FFFFFFFFFFFFFFFFFFFFFFF8
FFFFFFFFFFFFFFFFFFFFFFF8
FFFFFFFFFFFFFFFFFFFFFFF0
FFFFFFFFFFFFFFFFFFFFFFF0
FFFFFFFFFFFFFFFFFFFFFFF0
FFFFFFFFFFFFFFFFFFFFFFF0
FFFFFFFFFFFFFFFFFFFFFFF0
7FFFFFFFFFFFFFFFFFFFFFF0
7FFFFFFFFFFFFFFFFFFFFFE0
7FFFFFFFFFFFFFFFFFFFFFE0
3FFFFFFFFFFFFFFFFFFFFFC0
3FFFFFFFFFFFFFFFFFFFFFC0
1FFFFFFFFFFFFFFFFFFFFF80
0FFFFFFFFFFFFFFFFFFFFF80
07FFFFFFFFFFFFFFFFFFFF00
03FFFFFFFFFFFFFFFFFFFC00
01FFFFFFFFFFFFFFFFFFF800
007FFFFFFFFFFFFFFFFFE000
0007FFFFFFFFFFFFFFFE0000
ENDCHAR
STARTCHAR 0031
ENCODING 49
SWIDTH 418 0
DWIDTH 67 0
BBX 55 121 6 0
BITMAP
FFFFFFFFF80000
FFFFFFFFF80000
FFFFFFFFF80000
FFFFFFFFF80000
FFFFFFFFF80000
FFFFFFFFF80000
FFFFFFFFF80000
FFFFFFFFF80000
FFFFFFFFF80000
FFFFFFFFF80000
FFFFFFFFF80000
FFFFFFFFF80000
FFFFFFFFF80000
FFFFFFFFF80000
FFFFFFFFF80000
FFFFFFFFF80000
FFFFFFFFF80000
FFFFFFFFF80000
FFFFFFFFF80000
00003FFFF80000
00003FFFF80000
00003FFFF80000
00003FFFF80000
00003FFFF80000
00003FFFF80000
00003FFFF80000
00003FFFF80000
00003FFFF80000
00003FFFF80000
00003FFFF80000
00003FFFF80000
00003FFFF80000
00003FFFF80000
00003FFFF80000
00003FFFF80000
00003FFFF80000
00003FFFF80000
00003FFFF80000
00003FFFF80000
00003FFFF80000
00003FFFF80000
00003FFFF80000
00003FFFF80000
00003FFFF80000
00003FFFF80000
00003FFFF80000
00003FFFF80000
00003FFFF80000
00003FFFF80000
00003FFFF80000
00003FFFF80000
00003FFFF80000
00003FFFF80000
00003FFFF80000
00003FFFF80000
00003FFFF80000
00003FFFF80000
00003FFFF80000
00003FFFF80000
00003FFFF80000
00003FFFF80000
00003FFFF80000
00003FFFF80000
00003FFFF80000
00003FFFF80000
00003FFFF80000
00003FFFF80000
00003FFFF80000
00003FFFF80000
00003FFFF80000
00003FFFF80000
00003FFFF80000
00003FFFF80000
00003FFFF80000
00003FFFF80000
00003FFFF80000
00003FFFF80000
00003FFFF80000
00003FFFF80000
00003FFFF80000
00003FFFF80000
00003FFFF80000
00003FFFF80000
00003FFFF80000
00003FFFF80000
00003FFFF80000
00003FFFF80000
00003FFFF80000
00003FFFF80000
00003FFFF80000
00003FFFF80000
00003FFFF80000
00003FFFF80000
00003FFFF80000
00003FFFF80000
00003FFFF80000
00003FFFF80000
00003FFFF80000
00003FFFF80000
00003FFFF80000
00003FFFF80000
00003FFFF80000
FFFFFFFFFFFFFE
FFFFFFFFFFFFFE
FFFFFFFFFFFFFE
FFFFFFFFFFFFFE
FFFFFFFFFFFFFE
FFFFFFFFFFFFFE
FFFFFFFFFFFFFE
FFFFFFFFFFFFFE
FFFFFFFFFFFFFE
FFFFFFFFFFFFFE
FFFFFFFFFFFFFE
FFFFFFFFFFFFFE
FFFFFFFFFFFFFE
FFFFFFFFFFFFFE
FFFFFFFFFFFFFE
FFFFFFFFFFFFFE
FFFFFFFFFFFFFE
FFFFFFFFFFFFFE
FFFFFFFFFFFFFE
ENDCHAR
STARTCHAR 0032
ENCODING 50
SWIDTH 668 0
DWIDTH 107 0
BBX 93 121 7 0
BITMAP
FFFFFFFFFFFFFFFFFFFE0000
FFFFFFFFFFFFFFFFFFFFC000
FFFFFFFFFFFFFFFFFFFFF000
FFFFFFFFFFFFFFFFFFFFFC00
FFFFFFFFFFFFFFFFFFFFFE00
FFFFFFFFFFFFFFFFFFFFFF00
FFFFFFFFFFFFFFFFFFFFFF80
FFFFFFFFFFFFFFFFFFFFFFC0
FFFFFFFFFFFFFFFFFFFFFFC0
FFFFFFFFFFFFFFFFFFFFFFE0
FFFFFFFFFFFFFFFFFFFFFFE0
FFFFFFFFFFFFFFFFFFFFFFE0
FFFFFFFFFFFFFFFFFFFFFFF0
FFFFFFFFFFFFFFFFFFFFFFF0
FFFFFFFFFFFFFFFFFFFFFFF0
FFFFFFFFFFFFFFFFFFFFFFF0
FFFFFFFFFFFFFFFFFFFFFFF0
FFFFFFFFFFFFFFFFFFFFFFF8
FFFFFFFFFFFFFFFFFFFFFFF8
0000000000000000003FFFF8
0000000000000000003FFFF8
0000000000000000003FFFF8
0000000000000000003FFFF8
0000000000000000003FFFF8
0000000000000000003FFFF8
0000000000000000003FFFF8
0000000000000000003FFFF8
0000000000000000003FFFF8
0000000000000000003FFFF8
0000000000000000003FFFF8
0000000000000000003FFFF8
0000000000000000003FFFF8
0000000000000000003FFFF8
0000000000000000003FFFF8
0000000000000000003FFFF8
0000000000000000003FFFF8
0000000000000000003FFFF8
0000000000000000003FFFF8
0000000000000000003FFFF8
0000000000000000003FFFF8
0000000000000000003FFFF8
0000000000000000003FFFF8
0000000000000000003FFFF8
0000000000000000003FFFF8
0000000000000000003FFFF8
0000000000000000003FFFF8
0000000000000000003FFFF8
0003FFFFFFFFFFFFFFFFFFF8
003FFFFFFFFFFFFFFFFFFFF8
00FFFFFFFFFFFFFFFFFFFFF0
01FFFFFFFFFFFFFFFFFFFFF0
03FFFFFFFFFFFFFFFFFFFFF0
07FFFFFFFFFFFFFFFFFFFFF0
0FFFFFFFFFFFFFFFFFFFFFE0
1FFFFFFFFFFFFFFFFFFFFFE0
3FFFFFFFFFFFFFFFFFFFFFE0
3FFFFFFFFFFFFFFFFFFFFFC0
7FFFFFFFFFFFFFFFFFFFFFC0
7FFFFFFFFFFFFFFFFFFFFF80
7FFFFFFFFFFFFFFFFFFFFF00
FFFFFFFFFFFFFFFFFFFFFE00
FFFFFFFFFFFFFFFFFFFFFC00
FFFFFFFFFFFFFFFFFFFFF800
FFFFFFFFFFFFFFFFFFFFE000
FFFFFFFFFFFFFFFFFFFF8000
FFFFFFFFFFFFFFFFFFF80000
FFFFE0000000000000000000
FFFFE0000000000000000000
FFFFE0000000000000000000
FFFFE0000000000000000000
FFFFE0000000000000000000
FFFFE0000000000000000000
FFFFE0000000000000000000
FFFFE0000000000000000000
FFFFE0000000000000000000
FFFFE0000000000000000000
FFFFE0000000000000000000
FFFFE0000000000000000000
FFFFE0000000000000000000
FFFFE0000000000000000000
FFFFE0000000000000000000
FFFFE0000000000000000000
FFFFE0000000000000000000
FFFFE0000000000000000000
FFFFE0000000000000000000
FFFFE0000000000000000000
FFFFE0000000000000000000
FFFFE0000000000000000000
FFFFE0000000000000000000
FFFFE0000000000000000000
FFFFE0000000000000000000
FFFFE0000000000000000000
FFFFE0000000000000000000
FFFFE0000000000000000000
FFFFE0000000000000000000
FFFFE0000000000000000000
FFFFE0000000000000000000
FFFFE0000000000000000000
FFFFE0000000000000000000
FFFFE0000000000000000000
FFFFE0000000000000000000
FFFFE0000000000000000000
FFFFFFFFFFFFFFFFFFFFFFF8
FFFFFFFFFFFFFFFFFFFFFFF8
FFFFFFFFFFFFFFFFFFFFFFF8
FFFFFFFFFFFFFFFFFFFFFFF8
FFFFFFFFFFFFFFFFFFFFFFF8
FFFFFFFFFFFFFFFFFFFFFFF8
FFFFFFFFFFFFFFFFFFFFFFF8
FFFFFFFFFFFFFFFFFFFFFFF8
FFFFFFFFFFFFFFFFFFFFFFF8
FFFFFFFFFFFFFFFFFFFFFFF8
FFFFFFFFFFFFFFFFFFFFFFF8
FFFFFFFFFFFFFFFFFFFFFFF8
FFFFFFFFFFFFFFFFFFFFFFF8
FFFFFFFFFFFFFFFFFFFFFFF8
FFFFFFFFFFFFFFFFFFFFFFF8
FFFFFFFFFFFFFFFFFFFFFFF8
FFFFFFFFFFFFFFFFFFFFFFF8
FFFFFFFFFFFFFFFFFFFFFFF8
FFFFFFFFFFFFFFFFFFFFFFF8
ENDCHAR
STARTCHAR 0033
ENCODING 51
SWIDTH 668 0
DWIDTH 107 0
BBX 93 121 7 0
BITMAP
FFFFFFFFFFFFFFFFFFFE0000
FFFFFFFFFFFFFFFFFFFFC000
FFFFFFFFFFFFFFFFFFFFF000
FFFFFFFFFFFFFFFFFFFFF800
FFFFFFFFFFFFFFFFFFFFFC00
FFFFFFFFFFFFFFFFFFFFFF00
FFFFFFFFFFFFFFFFFFFFFF80
FFFFFFFFFFFFFFFFFFFFFF80
FFFFFFFFFFFFFFFFFFFFFFC0
FFFFFFFFFFFFFFFFFFFFFFE0
FFFFFFFFFFFFFFFFFFFFFFE0
FFFFFFFFFFFFFFFFFFFFFFF0
FFFFFFFFFFFFFFFFFFFFFFF0
FFFFFFFFFFFFFFFFFFFFFFF0
FFFFFFFFFFFFFFFFFFFFFFF8
FFFFFFFFFFFFFFFFFFFFFFF8
FFFFFFFFFFFFFFFFFFFFFFF8
FFFFFFFFFFFFFFFFFFFFFFF8
FFFFFFFFFFFFFFFFFFFFFFF8
0000000000000000003FFFF8
0000000000000000003FFFF8
0000000000000000003FFFF8
0000000000000000003FFFF8
0000000000000000003FFFF8
0000000000000000003FFFF8
0000000000000000003FFFF8
0000000000000000003FFFF8
0000000000000000003FFFF8
0000000000000000003FFFF8
0000000000000000003FFFF8
0000000000000000003FFFF8
0000000000000000003FFFF8
0000000000000000003FFFF8
0000000000000000003FFFF8
0000000000000000003FFFF8
0000000000000000003FFFF8
0000000000000000003FFFF8
0000000000000000003FFFF8
0000000000000000003FFFF8
0000000000000000003FFFF8
0000000000000000003FFFF8
0000000000000000003FFFF8
0000000000000000003FFFF8
0000000000000000003FFFF8
0000000000000000003FFFF8
0000000000000000003FFFF8
0000000000000000003FFFF8
1FFFFFFFFFFFFFFFFFFFFFF8
1FFFFFFFFFFFFFFFFFFFFFF0
1FFFFFFFFFFFFFFFFFFFFFF0
1FFFFFFFFFFFFFFFFFFFFFE0
1FFFFFFFFFFFFFFFFFFFFFE0
1FFFFFFFFFFFFFFFFFFFFFC0
1FFFFFFFFFFFFFFFFFFFFF80
1FFFFFFFFFFFFFFFFFFFFF00
1FFFFFFFFFFFFFFFFFFFFE00
1FFFFFFFFFFFFFFFFFFFF800
1FFFFFFFFFFFFFFFFFFFF800
1FFFFFFFFFFFFFFFFFFFFC00
1FFFFFFFFFFFFFFFFFFFFF00
1FFFFFFFFFFFFFFFFFFFFF80
1FFFFFFFFFFFFFFFFFFFFFC0
1FFFFFFFFFFFFFFFFFFFFFC0
1FFFFFFFFFFFFFFFFFFFFFE0
1FFFFFFFFFFFFFFFFFFFFFF0
1FFFFFFFFFFFFFFFFFFFFFF0
0000000000000000003FFFF8
0000000000000000003FFFF8
0000000000000000003FFFF8
0000000000000000003FFFF8
0000000000000000003FFFF8
0000000000000000003FFFF8
0000000000000000003FFFF8
0000000000000000003FFFF8
0000000000000000003FFFF8
0000000000000000003FFFF8
0000000000000000003FFFF8
0000000000000000003FFFF8
0000000000000000003FFFF8
0000000000000000003FFFF8
0000000000000000003FFFF8
0000000000000000003FFFF8
0000000000000000003FFFF8
0000000000000000003FFFF8
0000000000000000003FFFF8
0000000000000000003FFFF8
0000000000000000003FFFF8
0000000000000000003FFFF8
0000000000000000003FFFF8
0000000000000000003FFFF8
0000000000000000003FFFF8
0000000000000000003FFFF8
0000000000000000003FFFF8
0000000000000000003FFFF8
0000000000000000003FFFF8
0000000000000000003FFFF8
0000000000000000003FFFF8
0000000000000000003FFFF8
0000000000000000003FFFF8
0000000000000000003FFFF8
0000000000000000003FFFF8
0000000000000000003FFFF8
FFFFFFFFFFFFFFFFFFFFFFF8
FFFFFFFFFFFFFFFFFFFFFFF8
FFFFFFFFFFFFFFFFFFFFFFF8
FFFFFFFFFFFFFFFFFFFFFFF8
FFFFFFFFFFFFFFFFFFFFFFF8
FFFFFFFFFFFFFFFFFFFFFFF8
FFFFFFFFFFFFFFFFFFFFFFF8
FFFFFFFFFFFFFFFFFFFFFFF0
FFFFFFFFFFFFFFFFFFFFFFF0
FFFFFFFFFFFFFFFFFFFFFFF0
FFFFFFFFFFFFFFFFFFFFFFE0
FFFFFFFFFFFFFFFFFFFFFFE0
FFFFFFFFFFFFFFFFFFFFFFC0
FFFFFFFFFFFFFFFFFFFFFF80
FFFFFFFFFFFFFFFFFFFFFF00
FFFFFFFFFFFFFFFFFFFFFE00
FFFFFFFFFFFFFFFFFFFFF800
FFFFFFFFFFFFFFFFFFFFE000
FFFFFFFFFFFFFFFFFFFF0000
ENDCHAR
STARTCHAR 0034
ENCODING 52
SWIDTH 706 0
DWIDTH 113 0
BBX 105 121 4 0
BITMAP
FFFFE00000000000003FFFF80000
FFFFE00000000000003FFFF80000
FFFFE00000000000003FFFF80000
FFFFE00000000000003FFFF80000
FFFFE00000000000003FFFF80000
FFFFE00000000000003FFFF80000
FFFFE00000000000003FFFF80000
FFFFE00000000000003FFFF80000
FFFFE00000000000003FFFF80000
FFFFE00000000000003FFFF80000
FFFFE00000000000003FFFF80000
FFFFE00000000000003FFFF80000
FFFFE00000000000003FFFF80000
FFFFE00000000000003FFFF80000
FFFFE00000000000003FFFF80000
FFFFE00000000000003FFFF80000
FFFFE00000000000003FFFF80000
FFFFE00000000000003FFFF80000
FFFFE00000000000003FFFF80000
FFFFE00000000000003FFFF80000
FFFFE00000000000003FFFF80000
FFFFE00000000000003FFFF80000
FFFFE00000000000003FFFF80000
FFFFE00000000000003FFFF80000
FFFFE00000000000003FFFF80000
FFFFE00000000000003FFFF80000
FFFFE00000000000003FFFF80000
FFFFE00000000000003FFFF80000
FFFFE00000000000003FFFF80000
FFFFE00000000000003FFFF80000
FFFFE00000000000003FFFF80000
FFFFE00000000000003FFFF80000
FFFFE00000000000003FFFF80000
FFFFE00000000000003FFFF80000
FFFFE00000000000003FFFF80000
FFFFE00000000000003FFFF80000
FFFFE00000000000003FFFF80000
FFFFE00000000000003FFFF80000
FFFFE00000000000003FFFF80000
FFFFE00000000000003FFFF80000
FFFFE00000000000003FFFF80000
FFFFE00000000000003FFFF80000
FFFFE00000000000003FFFF80000
FFFFE00000000000003FFFF80000
FFFFE00000000000003FFFF80000
FFFFE00000000000003FFFF80000
FFFFE00000000000003FFFF80000
FFFFE00000000000003FFFF80000
FFFFE00000000000003FFFF80000
FFFFE00000000000003FFFF80000
FFFFE00000000000003FFFF80000
FFFFE00000000000003FFFF80000
FFFFE00000000000003FFFF80000
FFFFE00000000000003FFFF80000
FFFFE00000000000003FFFF80000
FFFFE00000000000003FFFF80000
FFFFE00000000000003FFFF80000
FFFFE00000000000003FFFF80000
FFFFE00000000000003FFFF80000
FFFFE00000000000003FFFF80000
FFFFE00000000000003FFFF80000
FFFFE00000000000003FFFF80000
FFFFE00000000000003FFFF80000
FFFFE00000000000003FFFF80000
FFFFFFFFFFFFFFFFFFFFFFFFFF80
FFFFFFFFFFFFFFFFFFFFFFFFFF80
FFFFFFFFFFFFFFFFFFFFFFFFFF80
FFFFFFFFFFFFFFFFFFFFFFFFFF80
FFFFFFFFFFFFFFFFFFFFFFFFFF80
FFFFFFFFFFFFFFFFFFFFFFFFFF80
FFFFFFFFFFFFFFFFFFFFFFFFFF80
FFFFFFFFFFFFFFFFFFFFFFFFFF80
FFFFFFFFFFFFFFFFFFFFFFFFFF80
FFFFFFFFFFFFFFFFFFFFFFFFFF80
FFFFFFFFFFFFFFFFFFFFFFFFFF80
FFFFFFFFFFFFFFFFFFFFFFFFFF80
FFFFFFFFFFFFFFFFFFFFFFFFFF80
FFFFFFFFFFFFFFFFFFFFFFFFFF80
FFFFFFFFFFFFFFFFFFFFFFFFFF80
FFFFFFFFFFFFFFFFFFFFFFFFFF80
FFFFFFFFFFFFFFFFFFFFFFFFFF80
FFFFFFFFFFFFFFFFFFFFFFFFFF80
FFFFFFFFFFFFFFFFFFFFFFFFFF80
0000000000000000003FFFF80000
0000000000000000003FFFF80000
0000000000000000003FFFF80000
0000000000000000003FFFF80000
0000000000000000003FFFF80000
0000000000000000003FFFF80000
0000000000000000003FFFF80000
0000000000000000003FFFF80000
0000000000000000003FFFF80000
0000000000000000003FFFF80000
0000000000000000003FFFF80000
0000000000000000003FFFF80000
0000000000000000003FFFF80000
0000000000000000003FFFF80000
0000000000000000003FFFF80000
0000000000000000003FFFF80000
0000000000000000003FFFF80000
0000000000000000003FFFF80000
0000000000000000003FFFF80000
0000000000000000003FFFF80000
0000000000000000003FFFF80000
0000000000000000003FFFF80000
0000000000000000003FFFF80000
0000000000000000003FFFF80000
0000000000000000003FFFF80000
0000000000000000003FFFF80000
0000000000000000003FFFF80000
0000000000000000003FFFF80000
0000000000000000003FFFF80000
0000000000000000003FFFF80000
0000000000000000003FFFF80000
0000000000000000003FFFF80000
0000000000000000003FFFF80000
0000000000000000003FFFF80000
0000000000000000003FFFF80000
0000000000000000003FFFF80000
0000000000000000003FFFF80000
0000000000000000003FFFF80000
ENDCHAR
STARTCHAR 0035
ENCODING 53
SWIDTH 687 0
DWIDTH 110 0
BBX 93 121 8 0
BITMAP
FFFFFFFFFFFFFFFFFFFFFFF8
FFFFFFFFFFFFFFFFFFFFFFF8
FFFFFFFFFFFFFFFFFFFFFFF8
FFFFFFFFFFFFFFFFFFFFFFF8
FFFFFFFFFFFFFFFFFFFFFFF8
FFFFFFFFFFFFFFFFFFFFFFF8
FFFFFFFFFFFFFFFFFFFFFFF8
FFFFFFFFFFFFFFFFFFFFFFF8
FFFFFFFFFFFFFFFFFFFFFFF8
FFFFFFFFFFFFFFFFFFFFFFF8
FFFFFFFFFFFFFFFFFFFFFFF8
FFFFFFFFFFFFFFFFFFFFFFF8
FFFFFFFFFFFFFFFFFFFFFFF8
FFFFFFFFFFFFFFFFFFFFFFF8
FFFFFFFFFFFFFFFFFFFFFFF8
FFFFFFFFFFFFFFFFFFFFFFF8
FFFFFFFFFFFFFFFFFFFFFFF8
FFFFFFFFFFFFFFFFFFFFFFF8
FFFFFFFFFFFFFFFFFFFFFFF8
FFFFE0000000000000000000
FFFFE0000000000000000000
FFFFE0000000000000000000
FFFFE0000000000000000000
FFFFE0000000000000000000
FFFFE0000000000000000000
FFFFE0000000000000000000
FFFFE0000000000000000000
FFFFE0000000000000000000
FFFFE0000000000000000000
FFFFE0000000000000000000
FFFFE0000000000000000000
FFFFE0000000000000000000
FFFFE0000000000000000000
FFFFE0000000000000000000
FFFFE0000000000000000000
FFFFE0000000000000000000
FFFFE0000000000000000000
FFFFE0000000000000000000
FFFFE0000000000000000000
FFFFE0000000000000000000
FFFFE0000000000000000000
FFFFE0000000000000000000
FFFFE0000000000000000000
FFFFE0000000000000000000
FFFFE0000000000000000000
FFFFE0000000000000000000
FFFFE0000000000000000000
FFFFFFFFFFFFFFFFFFFC0000
FFFFFFFFFFFFFFFFFFFF8000
FFFFFFFFFFFFFFFFFFFFE000
FFFFFFFFFFFFFFFFFFFFF800
FFFFFFFFFFFFFFFFFFFFFC00
FFFFFFFFFFFFFFFFFFFFFE00
FFFFFFFFFFFFFFFFFFFFFF00
FFFFFFFFFFFFFFFFFFFFFF80
FFFFFFFFFFFFFFFFFFFFFFC0
FFFFFFFFFFFFFFFFFFFFFFC0
FFFFFFFFFFFFFFFFFFFFFFE0
FFFFFFFFFFFFFFFFFFFFFFE0
FFFFFFFFFFFFFFFFFFFFFFF0
FFFFFFFFFFFFFFFFFFFFFFF0
FFFFFFFFFFFFFFFFFFFFFFF0
FFFFFFFFFFFFFFFFFFFFFFF8
FFFFFFFFFFFFFFFFFFFFFFF8
FFFFFFFFFFFFFFFFFFFFFFF8
FFFFFFFFFFFFFFFFFFFFFFF8
0000000000000000003FFFF8
0000000000000000003FFFF8
0000000000000000003FFFF8
0000000000000000003FFFF8
0000000000000000003FFFF8
0000000000000000003FFFF8
0000000000000000003FFFF8
0000000000000000003FFFF8
0000000000000000003FFFF8
0000000000000000003FFFF8
0000000000000000003FFFF8
0000000000000000003FFFF8
0000000000000000003FFFF8
0000000000000000003FFFF8
0000000000000000003FFFF8
0000000000000000003FFFF8
0000000000000000003FFFF8
0000000000000000003FFFF8
0000000000000000003FFFF8
0000000000000000003FFFF8
0000000000000000003FFFF8
0000000000000000003FFFF8
0000000000000000003FFFF8
0000000000000000003FFFF8
0000000000000000003FFFF8
0000000000000000003FFFF8
0000000000000000003FFFF8
0000000000000000003FFFF8
0000000000000000003FFFF8
0000000000000000003FFFF8
0000000000000000003FFFF8
0000000000000000003FFFF8
0000000000000000003FFFF8
0000000000000000003FFFF8
0000000000000000003FFFF8
0000000000000000003FFFF8
FFFFFFFFFFFFFFFFFFFFFFF8
FFFFFFFFFFFFFFFFFFFFFFF8
FFFFFFFFFFFFFFFFFFFFFFF8
FFFFFFFFFFFFFFFFFFFFFFF8
FFFFFFFFFFFFFFFFFFFFFFF8
FFFFFFFFFFFFFFFFFFFFFFF0
FFFFFFFFFFFFFFFFFFFFFFF0
FFFFFFFFFFFFFFFFFFFFFFF0
FFFFFFFFFFFFFFFFFFFFFFF0
FFFFFFFFFFFFFFFFFFFFFFE0
FFFFFFFFFFFFFFFFFFFFFFE0
FFFFFFFFFFFFFFFFFFFFFFC0
FFFFFFFFFFFFFFFFFFFFFF80
FFFFFFFFFFFFFFFFFFFFFF00
FFFFFFFFFFFFFFFFFFFFFE00
FFFFFFFFFFFFFFFFFFFFFC00
FFFFFFFFFFFFFFFFFFFFF800
FFFFFFFFFFFFFFFFFFFFE000
FFFFFFFFFFFFFFFFFFFE0000
ENDCHAR
STARTCHAR 0036
ENCODING 54
SWIDTH 687 0
DWIDTH 110 0
BBX 93 121 8 0
BITMAP
0003FFFFFFFFFFFFFFFFFF00
001FFFFFFFFFFFFFFFFFFF00
007FFFFFFFFFFFFFFFFFFF00
00FFFFFFFFFFFFFFFFFFFF00
03FFFFFFFFFFFFFFFFFFFF00
07FFFFFFFFFFFFFFFFFFFF00
07FFFFFFFFFFFFFFFFFFFF00
0FFFFFFFFFFFFFFFFFFFFF00
1FFFFFFFFFFFFFFFFFFFFF00
3FFFFFFFFFFFFFFFFFFFFF00
3FFFFFFFFFFFFFFFFFFFFF00
7FFFFFFFFFFFFFFFFFFFFF00
7FFFFFFFFFFFFFFFFFFFFF00
7FFFFFFFFFFFFFFFFFFFFF00
FFFFFFFFFFFFFFFFFFFFFF00
FFFFFFFFFFFFFFFFFFFFFF00
FFFFFFFFFFFFFFFFFFFFFF00
FFFFFFFFFFFFFFFFFFFFFF00
FFFFFFFFFFFFFFFFFFFFFF00
FFFFE0000000000000000000
FFFFE0000000000000000000
FFFFE0000000000000000000
FFFFE0000000000000000000
FFFFE0000000000000000000
FFFFE0000000000000000000
FFFFE0000000000000000000
FFFFE0000000000000000000
FFFFE0000000000000000000
FFFFE0000000000000000000
FFFFE0000000000000000000
FFFFE0000000000000000000
FFFFE0000000000000000000
FFFFE0000000000000000000
FFFFE0000000000000000000
FFFFE0000000000000000000
FFFFE0000000000000000000
FFFFE0000000000000000000
FFFFE0000000000000000000
FFFFE0000000000000000000
FFFFE0000000000000000000
FFFFE0000000000000000000
FFFFE0000000000000000000
FFFFE0000000000000000000
FFFFE0000000000000000000
FFFFE0000000000000000000
FFFFE0000000000000000000
FFFFE0000000000000000000
FFFFFFFFFFFFFFFFFFFC0000
FFFFFFFFFFFFFFFFFFFF8000
FFFFFFFFFFFFFFFFFFFFE000
FFFFFFFFFFFFFFFFFFFFF800
FFFFFFFFFFFFFFFFFFFFFC00
FFFFFFFFFFFFFFFFFFFFFE00
FFFFFFFFFFFFFFFFFFFFFF00
FFFFFFFFFFFFFFFFFFFFFF80
FFFFFFFFFFFFFFFFFFFFFFC0
FFFFFFFFFFFFFFFFFFFFFFC0
FFFFFFFFFFFFFFFFFFFFFFE0
FFFFFFFFFFFFFFFFFFFFFFE0
FFFFFFFFFFFFFFFFFFFFFFF0
FFFFFFFFFFFFFFFFFFFFFFF0
FFFFFFFFFFFFFFFFFFFFFFF0
FFFFFFFFFFFFFFFFFFFFFFF8
FFFFFFFFFFFFFFFFFFFFFFF8
FFFFFFFFFFFFFFFFFFFFFFF8
FFFFFFFFFFFFFFFFFFFFFFF8
FFFFE00000000000003FFFF8
FFFFE00000000000003FFFF8
FFFFE00000000000003FFFF8
FFFFE00000000000003FFFF8
FFFFE00000000000003FFFF8
FFFFE00000000000003FFFF8
FFFFE00000000000003FFFF8
FFFFE00000000000003FFFF8
FFFFE00000000000003FFFF8
FFFFE00000000000003FFFF8
FFFFE00000000000003FFFF8
FFFFE00000000000003FFFF8
FFFFE00000000000003FFFF8
FFFFE00000000000003FFFF8
FFFFE00000000000003FFFF8
FFFFE00000000000003FFFF8
FFFFE00000000000003FFFF8
FFFFE00000000000003FFFF8
FFFFE00000000000003FFFF8
FFFFE00000000000003FFFF8
FFFFE00000000000003FFFF8
FFFFE00000000000003FFFF8
FFFFE00000000000003FFFF8
FFFFE00000000000003FFFF8
FFFFE00000000000003FFFF8
FFFFE00000000000003FFFF8
FFFFE00000000000003FFFF8
FFFFE00000000000003FFFF8
FFFFE00000000000003FFFF8
FFFFE00000000000003FFFF8
FFFFE00000000000003FFFF8
FFFFE00000000000003FFFF8
FFFFE00000000000003FFFF8
FFFFE00000000000003FFFF8
FFFFE00000000000003FFFF8
FFFFE00000000000003FFFF8
FFFFFFFFFFFFFFFFFFFFFFF8
FFFFFFFFFFFFFFFFFFFFFFF8
FFFFFFFFFFFFFFFFFFFFFFF8
FFFFFFFFFFFFFFFFFFFFFFF8
FFFFFFFFFFFFFFFFFFFFFFF8
7FFFFFFFFFFFFFFFFFFFFFF0
7FFFFFFFFFFFFFFFFFFFFFF0
7FFFFFFFFFFFFFFFFFFFFFF0
3FFFFFFFFFFFFFFFFFFFFFF0
3FFFFFFFFFFFFFFFFFFFFFE0
1FFFFFFFFFFFFFFFFFFFFFE0
0FFFFFFFFFFFFFFFFFFFFFC0
0FFFFFFFFFFFFFFFFFFFFF80
07FFFFFFFFFFFFFFFFFFFF00
03FFFFFFFFFFFFFFFFFFFE00
00FFFFFFFFFFFFFFFFFFFC00
007FFFFFFFFFFFFFFFFFF800
001FFFFFFFFFFFFFFFFFE000
0003FFFFFFFFFFFFFFFE0000
ENDCHAR
STARTCHAR 0037
ENCODING 55
SWIDTH 662 0
DWIDTH 106 0
BBX 93 121 6 0
BITMAP
FFFFFFFFFFFFFFFFFFFFFFF8
FFFFFFFFFFFFFFFFFFFFFFF8
FFFFFFFFFFFFFFFFFFFFFFF8
FFFFFFFFFFFFFFFFFFFFFFF8
FFFFFFFFFFFFFFFFFFFFFFF8
FFFFFFFFFFFFFFFFFFFFFFF8
FFFFFFFFFFFFFFFFFFFFFFF8
FFFFFFFFFFFFFFFFFFFFFFF8
FFFFFFFFFFFFFFFFFFFFFFF8
FFFFFFFFFFFFFFFFFFFFFFF8
FFFFFFFFFFFFFFFFFFFFFFF8
FFFFFFFFFFFFFFFFFFFFFFF8
FFFFFFFFFFFFFFFFFFFFFFF8
FFFFFFFFFFFFFFFFFFFFFFF8
FFFFFFFFFFFFFFFFFFFFFFF8
FFFFFFFFFFFFFFFFFFFFFFF8
FFFFFFFFFFFFFFFFFFFFFFF8
FFFFFFFFFFFFFFFFFFFFFFF8
FFFFFFFFFFFFFFFFFFFFFFF8
000000000000000001FFFFF8
000000000000000001FFFFF0
000000000000000003FFFFE0
000000000000000007FFFFE0
000000000000000007FFFFC0
00000000000000000FFFFFC0
00000000000000000FFFFF80
00000000000000001FFFFF00
00000000000000003FFFFF00
00000000000000003FFFFE00
00000000000000007FFFFC00
0000000000000000FFFFFC00
0000000000000000FFFFF800
0000000000000001FFFFF800
0000000000000001FFFFF000
0000000000000003FFFFE000
0000000000000007FFFFE000
0000000000000007FFFFC000
000000000000000FFFFFC000
000000000000001FFFFF8000
000000000000001FFFFF0000
000000000000003FFFFF0000
000000000000003FFFFE0000
000000000000007FFFFC0000
00000000000000FFFFFC0000
00000000000000FFFFF80000
00000000000001FFFFF80000
00000000000003FFFFF00000
00000000000003FFFFE00000
00000000000007FFFFE00000
00000000000007FFFFC00000
0000000000000FFFFFC00000
0000000000001FFFFF800000
0000000000001FFFFF000000
0000000000003FFFFF000000
0000000000007FFFFE000000
0000000000007FFFFE000000
000000000000FFFFFC000000
000000000000FFFFF8000000
000000000001FFFFF8000000
000000000003FFFFF0000000
000000000003FFFFE0000000
000000000007FFFFE0000000
00000000000FFFFFC0000000
00000000000FFFFFC0000000
00000000001FFFFF80000000
00000000001FFFFF00000000
00000000003FFFFF00000000
00000000007FFFFE00000000
00000000007FFFFE00000000
0000000000FFFFFC00000000
0000000001FFFFF800000000
0000000001FFFFF800000000
0000000003FFFFF000000000
0000000003FFFFE000000000
0000000007FFFFE000000000
000000000FFFFFC000000000
000000000FFFFFC000000000
000000001FFFFF8000000000
000000003FFFFF0000000000
000000003FFFFF0000000000
000000007FFFFE0000000000
000000007FFFFE0000000000
00000000FFFFFC0000000000
00000001FFFFF80000000000
00000001FFFFF80000000000
00000003FFFFF00000000000
00000007FFFFE00000000000
00000007FFFFE00000000000
0000000FFFFFC00000000000
0000000FFFFFC00000000000
0000001FFFFF800000000000
0000003FFFFF000000000000
0000003FFFFF000000000000
0000007FFFFE000000000000
000000FFFFFE000000000000
000000FFFFFC000000000000
000001FFFFF8000000000000
000001FFFFF8000000000000
000003FFFFF0000000000000
000007FFFFF0000000000000
000007FFFFE0000000000000
00000FFFFFC0000000000000
00001FFFFFC0000000000000
00001FFFFF80000000000000
00003FFFFF00000000000000
00003FFFFF00000000000000
00007FFFFE00000000000000
0000FFFFFE00000000000000
0000FFFFFC00000000000000
0001FFFFF800000000000000
0003FFFFF800000000000000
0003FFFFF000000000000000
0007FFFFF000000000000000
0007FFFFE000000000000000
000FFFFFC000000000000000
001FFFFFC000000000000000
001FFFFF8000000000000000
003FFFFF0000000000000000
007FFFFF0000000000000000
007FFFFE0000000000000000
00FFFFFE0000000000000000
ENDCHAR
STARTCHAR 0038
ENCODING 56
SWIDTH 668 0
DWIDTH 107 0
BBX 93 121 7 0
BITMAP
0001FFFFFFFFFFFFFFFE0000
001FFFFFFFFFFFFFFFFFC000
003FFFFFFFFFFFFFFFFFF000
00FFFFFFFFFFFFFFFFFFF800
01FFFFFFFFFFFFFFFFFFFC00
03FFFFFFFFFFFFFFFFFFFF00
07FFFFFFFFFFFFFFFFFFFF80
0FFFFFFFFFFFFFFFFFFFFF80
1FFFFFFFFFFFFFFFFFFFFFC0
1FFFFFFFFFFFFFFFFFFFFFE0
3FFFFFFFFFFFFFFFFFFFFFE0
3FFFFFFFFFFFFFFFFFFFFFF0
7FFFFFFFFFFFFFFFFFFFFFF0
7FFFFFFFFFFFFFFFFFFFFFF0
7FFFFFFFFFFFFFFFFFFFFFF8
7FFFFFFFFFFFFFFFFFFFFFF8
FFFFFFFFFFFFFFFFFFFFFFF8
FFFFFFFFFFFFFFFFFFFFFFF8
FFFFFFFFFFFFFFFFFFFFFFF8
FFFFE00000000000003FFFF8
FFFFE00000000000003FFFF8
FFFFE00000000000003FFFF8
FFFFE00000000000003FFFF8
FFFFE00000000000003FFFF8
FFFFE00000000000003FFFF8
FFFFE00000000000003FFFF8
FFFFE00000000000003FFFF8
FFFFE00000000000003FFFF8
FFFFE00000000000003FFFF8
FFFFE00000000000003FFFF8
FFFFE00000000000003FFFF8
FFFFE00000000000003FFFF8
FFFFE00000000000003FFFF8
FFFFE00000000000003FFFF8
FFFFE00000000000003FFFF8
FFFFE00000000000003FFFF8
FFFFE00000000000003FFFF8
FFFFE00000000000003FFFF8
FFFFE00000000000003FFFF8
FFFFE00000000000003FFFF8
FFFFE00000000000003FFFF8
FFFFE00000000000003FFFF8
FFFFE00000000000003FFFF8
FFFFE00000000000003FFFF8
FFFFE00000000000003FFFF8
FFFFE00000000000003FFFF8
7FFFE00000000000003FFFF8
7FFFFFFFFFFFFFFFFFFFFFF8
7FFFFFFFFFFFFFFFFFFFFFF0
3FFFFFFFFFFFFFFFFFFFFFF0
3FFFFFFFFFFFFFFFFFFFFFE0
1FFFFFFFFFFFFFFFFFFFFFE0
1FFFFFFFFFFFFFFFFFFFFFC0
0FFFFFFFFFFFFFFFFFFFFF80
07FFFFFFFFFFFFFFFFFFFF00
03FFFFFFFFFFFFFFFFFFFE00
00FFFFFFFFFFFFFFFFFFF800
007FFFFFFFFFFFFFFFFFF800
01FFFFFFFFFFFFFFFFFFFC00
03FFFFFFFFFFFFFFFFFFFF00
07FFFFFFFFFFFFFFFFFFFF80
0FFFFFFFFFFFFFFFFFFFFFC0
1FFFFFFFFFFFFFFFFFFFFFC0
3FFFFFFFFFFFFFFFFFFFFFE0
3FFFFFFFFFFFFFFFFFFFFFF0
7FFFFFFFFFFFFFFFFFFFFFF0
7FFFE00000000000003FFFF8
7FFFE00000000000003FFFF8
FFFFE00000000000003FFFF8
FFFFE00000000000003FFFF8
FFFFE00000000000003FFFF8
FFFFE00000000000003FFFF8
FFFFE00000000000003FFFF8
FFFFE00000000000003FFFF8
FFFFE00000000000003FFFF8
FFFFE00000000000003FFFF8
FFFFE00000000000003FFFF8
FFFFE00000000000003FFFF8
FFFFE00000000000003FFFF8
FFFFE00000000000003FFFF8
FFFFE00000000000003FFFF8
FFFFE00000000000003FFFF8
FFFFE00000000000003FFFF8
FFFFE00000000000003FFFF8
FFFFE00000000000003FFFF8
FFFFE00000000000003FFFF8
FFFFE00000000000003FFFF8
FFFFE00000000000003FFFF8
FFFFE00000000000003FFFF8
FFFFE00000000000003FFFF8
FFFFE00000000000003FFFF8
FFFFE00000000000003FFFF8
FFFFE00000000000003FFFF8
FFFFE00000000000003FFFF8
FFFFE00000000000003FFFF8
FFFFE00000000000003FFFF8
FFFFE00000000000003FFFF8
FFFFE00000000000003FFFF8
FFFFE00000000000003FFFF8
FFFFE00000000000003FFFF8
FFFFE00000000000003FFFF8
FFFFE00000000000003FFFF8
FFFFFFFFFFFFFFFFFFFFFFF8
FFFFFFFFFFFFFFFFFFFFFFF8
FFFFFFFFFFFFFFFFFFFFFFF8
FFFFFFFFFFFFFFFFFFFFFFF8
7FFFFFFFFFFFFFFFFFFFFFF8
7FFFFFFFFFFFFFFFFFFFFFF8
7FFFFFFFFFFFFFFFFFFFFFF8
7FFFFFFFFFFFFFFFFFFFFFF0
7FFFFFFFFFFFFFFFFFFFFFF0
3FFFFFFFFFFFFFFFFFFFFFF0
3FFFFFFFFFFFFFFFFFFFFFE0
1FFFFFFFFFFFFFFFFFFFFFE0
1FFFFFFFFFFFFFFFFFFFFFC0
0FFFFFFFFFFFFFFFFFFFFF80
07FFFFFFFFFFFFFFFFFFFF00
03FFFFFFFFFFFFFFFFFFFE00
00FFFFFFFFFFFFFFFFFFF800
003FFFFFFFFFFFFFFFFFE000
0003FFFFFFFFFFFFFFFF0000
ENDCHAR
STARTCHAR 0039
ENCODING 57
SWIDTH 668 0
DWIDTH 107 0
BBX 93 121 7 0
BITMAP
0003FFFFFFFFFFFFFFFC0000
003FFFFFFFFFFFFFFFFFC000
00FFFFFFFFFFFFFFFFFFE000
01FFFFFFFFFFFFFFFFFFF800
07FFFFFFFFFFFFFFFFFFFC00
0FFFFFFFFFFFFFFFFFFFFE00
0FFFFFFFFFFFFFFFFFFFFF00
1FFFFFFFFFFFFFFFFFFFFF80
3FFFFFFFFFFFFFFFFFFFFFC0
3FFFFFFFFFFFFFFFFFFFFFC0
7FFFFFFFFFFFFFFFFFFFFFE0
7FFFFFFFFFFFFFFFFFFFFFE0
7FFFFFFFFFFFFFFFFFFFFFF0
FFFFFFFFFFFFFFFFFFFFFFF0
FFFFFFFFFFFFFFFFFFFFFFF0
FFFFFFFFFFFFFFFFFFFFFFF0
FFFFFFFFFFFFFFFFFFFFFFF8
FFFFFFFFFFFFFFFFFFFFFFF8
FFFFFFFFFFFFFFFFFFFFFFF8
FFFFE00000000000003FFFF8
FFFFE00000000000003FFFF8
FFFFE00000000000003FFFF8
FFFFE00000000000003FFFF8
FFFFE00000000000003FFFF8
FFFFE00000000000003FFFF8
FFFFE00000000000003FFFF8
FFFFE00000000000003FFFF8
FFFFE00000000000003FFFF8
FFFFE00000000000003FFFF8
FFFFE00000000000003FFFF8
FFFFE00000000000003FFFF8
FFFFE00000000000003FFFF8
FFFFE00000000000003FFFF8
FFFFE00000000000003FFFF8
FFFFE00000000000003FFFF8
FFFFE00000000000003FFFF8
FFFFE00000000000003FFFF8
FFFFE00000000000003FFFF8
FFFFE00000000000003FFFF8
FFFFE00000000000003FFFF8
FFFFE00000000000003FFFF8
FFFFE00000000000003FFFF8
FFFFE00000000000003FFFF8
FFFFE00000000000003FFFF8
FFFFE00000000000003FFFF8
FFFFE00000000000003FFFF8
FFFFE00000000000003FFFF8
FFFFFFFFFFFFFFFFFFFFFFF8
FFFFFFFFFFFFFFFFFFFFFFF8
FFFFFFFFFFFFFFFFFFFFFFF8
FFFFFFFFFFFFFFFFFFFFFFF8
FFFFFFFFFFFFFFFFFFFFFFF8
7FFFFFFFFFFFFFFFFFFFFFF8
7FFFFFFFFFFFFFFFFFFFFFF8
7FFFFFFFFFFFFFFFFFFFFFF8
3FFFFFFFFFFFFFFFFFFFFFF8
3FFFFFFFFFFFFFFFFFFFFFF8
1FFFFFFFFFFFFFFFFFFFFFF8
0FFFFFFFFFFFFFFFFFFFFFF8
07FFFFFFFFFFFFFFFFFFFFF8
03FFFFFFFFFFFFFFFFFFFFF8
01FFFFFFFFFFFFFFFFFFFFF8
00FFFFFFFFFFFFFFFFFFFFF8
007FFFFFFFFFFFFFFFFFFFF8
001FFFFFFFFFFFFFFFFFFFF8
0003FFFFFFFFFFFFFFFFFFF8
0000000000000000003FFFF8
0000000000000000003FFFF8
0000000000000000003FFFF8
0000000000000000003FFFF8
0000000000000000003FFFF8
0000000000000000003FFFF8
0000000000000000003FFFF8
0000000000000000003FFFF8
0000000000000000003FFFF8
0000000000000000003FFFF8
0000000000000000003FFFF8
0000000000000000003FFFF8
0000000000000000003FFFF8
0000000000000000003FFFF8
0000000000000000003FFFF8
0000000000000000003FFFF8
0000000000000000003FFFF8
0000000000000000003FFFF8
0000000000000000003FFFF8
0000000000000000003FFFF8
0000000000000000003FFFF8
0000000000000000003FFFF8
0000000000000000003FFFF8
0000000000000000003FFFF8
0000000000000000003FFFF8
0000000000000000003FFFF8
0000000000000000003FFFF8
0000000000000000003FFFF8
0000000000000000003FFFF8
0000000000000000003FFFF8
0000000000000000003FFFF8
0000000000000000003FFFF8
0000000000000000003FFFF8
0000000000000000003FFFF8
0000000000000000003FFFF8
0000000000000000003FFFF8
FFFFFFFFFFFFFFFFFFFFFFF8
FFFFFFFFFFFFFFFFFFFFFFF8
FFFFFFFFFFFFFFFFFFFFFFF8
FFFFFFFFFFFFFFFFFFFFFFF0
FFFFFFFFFFFFFFFFFFFFFFF0
FFFFFFFFFFFFFFFFFFFFFFF0
FFFFFFFFFFFFFFFFFFFFFFF0
FFFFFFFFFFFFFFFFFFFFFFE0
FFFFFFFFFFFFFFFFFFFFFFE0
FFFFFFFFFFFFFFFFFFFFFFC0
FFFFFFFFFFFFFFFFFFFFFFC0
FFFFFFFFFFFFFFFFFFFFFF80
FFFFFFFFFFFFFFFFFFFFFF00
FFFFFFFFFFFFFFFFFFFFFE00
FFFFFFFFFFFFFFFFFFFFFC00
FFFFFFFFFFFFFFFFFFFFF800
FFFFFFFFFFFFFFFFFFFFF000
FFFFFFFFFFFFFFFFFFFFC000
FFFFFFFFFFFFFFFFFFFC0000
ENDCHAR
STARTCHAR 003A
ENCODING 58
SWIDTH 212 0
DWIDTH 34 0
BBX 26 83 4 0
BITMAP
003F8000
01FFF000
03FFF800
07FFFC00
0FFFFE00
1FFFFF00
3FFFFF80
3FFFFF80
7FFFFFC0
7FFFFFC0
7FFFFFC0
7FFFFFC0
FFFFFFC0
FFFFFFC0
7FFFFFC0
7FFFFFC0
7FFFFFC0
7FFFFFC0
3FFFFF80
3FFFFF80
1FFFFF00
0FFFFE00
07FFFC00
03FFF800
01FFF000
003F8000
00000000
00000000
00000000
00000000
00000000
00000000
00000000
00000000
00000000
00000000
00000000
00000000
00000000
00000000
00000000
00000000
00000000
00000000
00000000
00000000
00000000
00000000
00000000
00000000
00000000
00000000
00000000
00000000
00000000
00000000
00000000
003F8000
01FFF000
03FFF800
07FFFC00
0FFFFE00
1FFFFF00
3FFFFF80
3FFFFF80
7FFFFFC0
7FFFFFC0
7FFFFFC0
7FFFFFC0
FFFFFFC0
FFFFFFC0
7FFFFFC0
7FFFFFC0
7FFFFFC0
7FFFFFC0
3FFFFF80
3FFFFF80
1FFFFF00
0FFFFE00
07FFFC00
03FFF800
01FFF000
003F8000
ENDCHAR
STARTCHAR 003B
ENCODING 59
SWIDTH 212 0
DWIDTH 34 0
BBX 26 94 4 -15
BITMAP
003F8000
01FFF000
03FFF800
07FFFC00
0FFFFE00
1FFFFF00
3FFFFF80
3FFFFF80
7FFFFFC0
7FFFFFC0
7FFFFFC0
7FFFFFC0
FFFFFFC0
FFFFFFC0
7FFFFFC0
7FFFFFC0
7FFFFFC0
7FFFFFC0
3FFFFF80
3FFFFF80
1FFFFF00
0FFFFE00
07FFFC00
03FFF800
01FFF000
003F8000
00000000
00000000
00000000
00000000
00000000
00000000
00000000
00000000
00000000
00000000
00000000
00000000
00000000
00000000
00000000
00000000
00000000
00000000
00000000
00000000
00000000
00000000
00000000
00000000
00000000
00000000
00000000
00000000
00000000
00000000
00000000
003FC000
01FFF800
03FFFC00
07FFFE00
0FFFFF00
1FFFFF80
3FFFFF80
3FFFFF80
7FFFFFC0
7FFFFFC0
7FFFFFC0
7FFFFFC0
FFFFFFC0
FFFFFFC0
7FFFFFC0
7FFFFFC0
7FFFFFC0
7FFFFFC0
3FFFFFC0
3FFFFFC0
1FFFFF80
1FFFFF80
0FFFFF00
03FFFF00
003FFE00
003FFE00
007FFC00
007FF800
00FFF000
01FFE000
03FF8000
07FF0000
1FFC0000
3FF80000
1FE00000
0F000000
04000000
ENDCHAR
STARTCHAR 003C
ENCODING 60
SWIDTH 400 0
DWIDTH 64 0
BBX 52 80 6 24
BITMAP
00000000020000
00000000070000
000000000F8000
000000001FC000
000000003FE000
000000007FF000
00000000FFF800
00000001FFFC00
00000003FFFE00
00000007FFFF00
0000000FFFFF80
0000001FFFFFC0
0000003FFFFFE0
0000007FFFFFF0
0000007FFFFFE0
000000FFFFFFC0
000001FFFFFF80
000003FFFFFF00
000007FFFFFE00
00000FFFFFFC00
00001FFFFFF800
00003FFFFFF000
00007FFFFFE000
0000FFFFFFC000
0001FFFFFF8000
0003FFFFFF0000
0007FFFFFE0000
000FFFFFFC0000
001FFFFFF80000
003FFFFFF00000
007FFFFFE00000
00FFFFFFC00000
01FFFFFF800000
03FFFFFF000000
07FFFFFE000000
0FFFFFFC000000
1FFFFFF8000000
3FFFFFF0000000
7FFFFFE0000000
FFFFFFC0000000
FFFFFFC0000000
7FFFFFE0000000
3FFFFFF0000000
1FFFFFF8000000
0FFFFFFC000000
07FFFFFE000000
03FFFFFF000000
01FFFFFF800000
00FFFFFFC00000
007FFFFFE00000
003FFFFFF00000
001FFFFFF80000
000FFFFFFC0000
0007FFFFFE0000
0003FFFFFF0000
0001FFFFFF8000
0000FFFFFFC000
00007FFFFFE000
00003FFFFFF000
00001FFFFFF800
00000FFFFFFC00
000007FFFFFE00
000003FFFFFF00
000001FFFFFF80
000000FFFFFFC0
0000007FFFFFE0
0000003FFFFFF0
0000001FFFFFE0
0000001FFFFFC0
0000000FFFFF80
00000007FFFF00
00000003FFFE00
00000001FFFC00
00000000FFF800
000000007FF000
000000003FE000
000000001FC000
000000000F8000
00000000070000
00000000020000
ENDCHAR
STARTCHAR 003D
ENCODING 61
SWIDTH 418 0
DWIDTH 67 0
BBX 56 50 6 38
BITMAP
FFFFFFFFFFFFFF
FFFFFFFFFFFFFF
FFFFFFFFFFFFFF
FFFFFFFFFFFFFF
FFFFFFFFFFFFFF
FFFFFFFFFFFFFF
FFFFFFFFFFFFFF
FFFFFFFFFFFFFF
FFFFFFFFFFFFFF
FFFFFFFFFFFFFF
FFFFFFFFFFFFFF
FFFFFFFFFFFFFF
FFFFFFFFFFFFFF
FFFFFFFFFFFFFF
FFFFFFFFFFFFFF
FFFFFFFFFFFFFF
FFFFFFFFFFFFFF
FFFFFFFFFFFFFF
FFFFFFFFFFFFFF
00000000000000
00000000000000
00000000000000
00000000000000
00000000000000
00000000000000
00000000000000
00000000000000
00000000000000
00000000000000
00000000000000
00000000000000
FFFFFFFFFFFFFF
FFFFFFFFFFFFFF
FFFFFFFFFFFFFF
FFFFFFFFFFFFFF
FFFFFFFFFFFFFF
FFFFFFFFFFFFFF
FFFFFFFFFFFFFF
FFFFFFFFFFFFFF
FFFFFFFFFFFFFF
FFFFFFFFFFFFFF
FFFFFFFFFFFFFF
FFFFFFFFFFFFFF
FFFFFFFFFFFFFF
FFFFFFFFFFFFFF
FFFFFFFFFFFFFF
FFFFFFFFFFFFFF
FFFFFFFFFFFFFF
FFFFFFFFFFFFFF
FFFFFFFFFFFFFF
ENDCHAR
STARTCHAR 003E
ENCODING 62
SWIDTH 406 0
DWIDTH 65 0
BBX 52 80 6 24
BITMAP
00080000000000
001C0000000000
003E0000000000
007F0000000000
00FF8000000000
01FFC000000000
03FFE000000000
07FFF000000000
0FFFF800000000
1FFFFC00000000
3FFFFE00000000
7FFFFF00000000
FFFFFF80000000
FFFFFFC0000000
7FFFFFE0000000
3FFFFFF0000000
1FFFFFF8000000
0FFFFFFC000000
07FFFFFE000000
03FFFFFF000000
01FFFFFF800000
00FFFFFFC00000
007FFFFFE00000
003FFFFFF00000
001FFFFFF80000
000FFFFFFC0000
0007FFFFFE0000
0003FFFFFF0000
0001FFFFFF8000
0000FFFFFFC000
00007FFFFFE000
00007FFFFFF000
00003FFFFFF800
00001FFFFFFC00
00000FFFFFFE00
000007FFFFFF00
000003FFFFFF80
000001FFFFFFC0
000000FFFFFFE0
0000007FFFFFF0
0000007FFFFFF0
000000FFFFFFE0
000001FFFFFFC0
000003FFFFFF80
000007FFFFFF00
00000FFFFFFE00
00001FFFFFFC00
00003FFFFFF800
00007FFFFFF000
0000FFFFFFE000
0001FFFFFFC000
0003FFFFFF8000
0003FFFFFF0000
0007FFFFFE0000
000FFFFFFC0000
001FFFFFF80000
003FFFFFF00000
007FFFFFE00000
00FFFFFFC00000
01FFFFFF800000
03FFFFFF000000
07FFFFFE000000
0FFFFFFC000000
1FFFFFF8000000
3FFFFFF0000000
7FFFFFE0000000
FFFFFFC0000000
FFFFFF80000000
7FFFFF00000000
3FFFFE00000000
1FFFFC00000000
0FFFF800000000
07FFF000000000
03FFE000000000
01FFC000000000
00FF8000000000
007F0000000000
003E0000000000
001C0000000000
00080000000000
ENDCHAR
STARTCHAR 003F
ENCODING 63
SWIDTH 506 0
DWIDTH 81 0
BBX 72 125 5 -4
BITMAP
FFFFFFFFFFFFFFC000
FFFFFFFFFFFFFFF800
FFFFFFFFFFFFFFFE00
FFFFFFFFFFFFFFFF80
FFFFFFFFFFFFFFFFC0
FFFFFFFFFFFFFFFFE0
FFFFFFFFFFFFFFFFF0
FFFFFFFFFFFFFFFFF8
FFFFFFFFFFFFFFFFF8
FFFFFFFFFFFFFFFFFC
FFFFFFFFFFFFFFFFFC
FFFFFFFFFFFFFFFFFC
FFFFFFFFFFFFFFFFFE
FFFFFFFFFFFFFFFFFE
FFFFFFFFFFFFFFFFFE
FFFFFFFFFFFFFFFFFE
FFFFFFFFFFFFFFFFFE
FFFFFFFFFFFFFFFFFF
FFFFFFFFFFFFFFFFFF
00000000000007FFFF
00000000000007FFFF
00000000000007FFFF
00000000000007FFFF
00000000000007FFFF
00000000000007FFFF
00000000000007FFFF
00000000000007FFFF
00000000000007FFFF
00000000000007FFFF
00000000000007FFFF
00000000000007FFFF
00000000000007FFFF
00000000000007FFFF
00000000000007FFFF
00000000000007FFFF
00000000000007FFFF
00000000000007FFFF
0000000FFFFFFFFFFF
000000FFFFFFFFFFFF
000003FFFFFFFFFFFE
000007FFFFFFFFFFFE
00000FFFFFFFFFFFFE
00001FFFFFFFFFFFFE
00003FFFFFFFFFFFFE
00007FFFFFFFFFFFFC
0000FFFFFFFFFFFFFC
0000FFFFFFFFFFFFF8
0001FFFFFFFFFFFFF8
0001FFFFFFFFFFFFF0
0001FFFFFFFFFFFFE0
0003FFFFFFFFFFFFC0
0003FFFFFFFFFFFF80
0003FFFFFFFFFFFF00
0003FFFFFFFFFFFE00
0003FFFFFFFFFFF800
0003FFFFFFFFFF8000
0003FFFF8000000000
0003FFFF8000000000
0003FFFF8000000000
0003FFFF8000000000
0003FFFF8000000000
0003FFFF8000000000
0003FFFF8000000000
0003FFFF8000000000
0003FFFF8000000000
0003FFFF8000000000
0003FFFF8000000000
0003FFFF8000000000
0003FFFF8000000000
0003FFFF8000000000
0003FFFF8000000000
0003FFFF8000000000
0003FFFF8000000000
0003FFFF8000000000
0003FFFF8000000000
0003FFFF8000000000
0003FFFF8000000000
0003FFFF8000000000
0003FFFF8000000000
0003FFFF8000000000
0003FFFF8000000000
0003FFFF8000000000
0003FFFF8000000000
0003FFFF8000000000
0003FFFF8000000000
0003FFFF8000000000
0003FFFF8000000000
0003FFFF8000000000
000000000000000000
000000000000000000
000000000000000000
000000000000000000
000000000000000000
000000000000000000
000000000000000000
000000000000000000
000000000000000000
000000000000000000
000000000000000000
00007F000000000000
0003FFE00000000000
0007FFF00000000000
000FFFF80000000000
001FFFFC0000000000
003FFFFE0000000000
007FFFFF0000000000
007FFFFF0000000000
00FFFFFF8000000000
00FFFFFF8000000000
00FFFFFF8000000000
00FFFFFFC000000000
00FFFFFFC000000000
00FFFFFFC000000000
00FFFFFFC000000000
00FFFFFF8000000000
00FFFFFF8000000000
00FFFFFF8000000000
007FFFFF0000000000
007FFFFF0000000000
003FFFFE0000000000
001FFFFC0000000000
000FFFFC0000000000
0007FFF00000000000
0001FFE00000000000
00007F000000000000
ENDCHAR
STARTCHAR 0040
ENCODING 64
SWIDTH 431 0
DWIDTH 69 0
BBX 52 67 8 17
BITMAP
FFFFFFFFFFFFF0
FFFFFFFFFFFFF0
FFFFFFFFFFFFF0
FFFFFFFFFFFFF0
FFFFFFFFFFFFF0
FFFFFFFFFFFFF0
FFFFFFFFFFFFF0
FFFFFFFFFFFFF0
FFFFFFFFFFFFF0
FFC00000003FF0
FFC00000003FF0
FFC00000003FF0
FFC00000003FF0
FFC00000003FF0
FFC00000003FF0
FFC00000003FF0
FFC00000003FF0
FFC00000003FF0
FFC00000003FF0
FFC00000003FF0
FFC3FFFFFC3FF0
FFC3FFFFFC3FF0
FFC3FFFFFC3FF0
FFC3FFFFFC3FF0
FFC3FFFFFC3FF0
FFC3FFFFFC3FF0
FFC3FFFFFC3FF0
FFC3FFFFFC3FF0
FFC3FFFFFC3FF0
FFC3FF0FFC3FF0
FFC3FF0FFC3FF0
FFC3FF0FFC3FF0
FFC3FF0FFC3FF0
FFC3FF0FFC3FF0
FFC3FF0FFC3FF0
FFC3FF00003FF0
FFC3FF00003FF0
FFC3FF00003FF0
FFC3FF00003FF0
FFC3FFFFFFFFF0
FFC3FFFFFFFFF0
FFC3FFFFFFFFF0
FFC3FFFFFFFFF0
FFC3FFFFFFFFF0
FFC3FFFFFFFFF0
FFC3FFFFFFFFF0
FFC3FFFFFFFFF0
FFC3FFFFFFFFF0
FFC00000000000
FFC00000000000
FFC00000000000
FFC00000000000
FFC00000000000
FFC00000000000
FFC00000000000
FFC00000000000
FFC00000000000
FFC00000000000
FFFFFFFFFFFFF0
FFFFFFFFFFFFF0
FFFFFFFFFFFFF0
FFFFFFFFFFFFF0
FFFFFFFFFFFFF0
FFFFFFFFFFFFF0
FFFFFFFFFFFFF0
FFFFFFFFFFFFF0
FFFFFFFFFFFFF0
ENDCHAR
STARTCHAR 0041
ENCODING 65
SWIDTH 662 0
DWIDTH 106 0
BBX 93 121 6 0
BITMAP
0003FFFFFFFFFFFFFFFC0000
001FFFFFFFFFFFFFFFFF8000
007FFFFFFFFFFFFFFFFFE000
00FFFFFFFFFFFFFFFFFFF000
03FFFFFFFFFFFFFFFFFFF800
07FFFFFFFFFFFFFFFFFFFE00
07FFFFFFFFFFFFFFFFFFFF00
0FFFFFFFFFFFFFFFFFFFFF00
1FFFFFFFFFFFFFFFFFFFFF80
3FFFFFFFFFFFFFFFFFFFFFC0
3FFFFFFFFFFFFFFFFFFFFFE0
3FFFFFFFFFFFFFFFFFFFFFE0
7FFFFFFFFFFFFFFFFFFFFFF0
7FFFFFFFFFFFFFFFFFFFFFF0
7FFFFFFFFFFFFFFFFFFFFFF8
FFFFFFFFFFFFFFFFFFFFFFF8
FFFFFFFFFFFFFFFFFFFFFFF8
FFFFFFFFFFFFFFFFFFFFFFF8
FFFFFFFFFFFFFFFFFFFFFFF8
FFFFE00000000000003FFFF8
FFFFE00000000000003FFFF8
FFFFE00000000000003FFFF8
FFFFE00000000000003FFFF8
FFFFE00000000000003FFFF8
FFFFE00000000000003FFFF8
FFFFE00000000000003FFFF8
FFFFE00000000000003FFFF8
FFFFE00000000000003FFFF8
FFFFE00000000000003FFFF8
FFFFE00000000000003FFFF8
FFFFE00000000000003FFFF8
FFFFE00000000000003FFFF8
FFFFE00000000000003FFFF8
FFFFE00000000000003FFFF8
FFFFE00000000000003FFFF8
FFFFE00000000000003FFFF8
FFFFE00000000000003FFFF8
FFFFE00000000000003FFFF8
FFFFE00000000000003FFFF8
FFFFE00000000000003FFFF8
FFFFE00000000000003FFFF8
FFFFE00000000000003FFFF8
FFFFE00000000000003FFFF8
FFFFE00000000000003FFFF8
FFFFE00000000000003FFFF8
FFFFE00000000000003FFFF8
FFFFE00000000000003FFFF8
FFFFFFFFFFFFFFFFFFFFFFF8
FFFFFFFFFFFFFFFFFFFFFFF8
FFFFFFFFFFFFFFFFFFFFFFF8
FFFFFFFFFFFFFFFFFFFFFFF8
FFFFFFFFFFFFFFFFFFFFFFF8
FFFFFFFFFFFFFFFFFFFFFFF8
FFFFFFFFFFFFFFFFFFFFFFF8
FFFFFFFFFFFFFFFFFFFFFFF8
FFFFFFFFFFFFFFFFFFFFFFF8
FFFFFFFFFFFFFFFFFFFFFFF8
FFFFFFFFFFFFFFFFFFFFFFF8
FFFFFFFFFFFFFFFFFFFFFFF8
FFFFFFFFFFFFFFFFFFFFFFF8
FFFFFFFFFFFFFFFFFFFFFFF8
FFFFFFFFFFFFFFFFFFFFFFF8
FFFFFFFFFFFFFFFFFFFFFFF8
FFFFFFFFFFFFFFFFFFFFFFF8
FFFFFFFFFFFFFFFFFFFFFFF8
FFFFFFFFFFFFFFFFFFFFFFF8
FFFFE00000000000003FFFF8
FFFFE00000000000003FFFF8
FFFFE00000000000003FFFF8
FFFFE00000000000003FFFF8
FFFFE00000000000003FFFF8
FFFFE00000000000003FFFF8
FFFFE00000000000003FFFF8
FFFFE00000000000003FFFF8
FFFFE00000000000003FFFF8
FFFFE00000000000003FFFF8
FFFFE00000000000003FFFF8
FFFFE00000000000003FFFF8
FFFFE00000000000003FFFF8
FFFFE00000000000003FFFF8
FFFFE00000000000003FFFF8
FFFFE00000000000003FFFF8
FFFFE00000000000003FFFF8
FFFFE00000000000003FFFF8
FFFFE00000000000003FFFF8
FFFFE00000000000003FFFF8
FFFFE00000000000003FFFF8
FFFFE00000000000003FFFF8
FFFFE00000000000003FFFF8
FFFFE00000000000003FFFF8
FFFFE00000000000003FFFF8
FFFFE00000000000003FFFF8
FFFFE00000000000003FFFF8
FFFFE00000000000003FFFF8
FFFFE00000000000003FFFF8
FFFFE00000000000003FFFF8
FFFFE00000000000003FFFF8
FFFFE00000000000003FFFF8
FFFFE00000000000003FFFF8
FFFFE00000000000003FFFF8
FFFFE00000000000003FFFF8
FFFFE00000000000003FFFF8
FFFFE00000000000003FFFF8
FFFFE00000000000003FFFF8
FFFFE00000000000003FFFF8
FFFFE00000000000003FFFF8
FFFFE00000000000003FFFF8
FFFFE00000000000003FFFF8
FFFFE00000000000003FFFF8
FFFFE00000000000003FFFF8
FFFFE00000000000003FFFF8
FFFFE00000000000003FFFF8
FFFFE00000000000003FFFF8
FFFFE00000000000003FFFF8
FFFFE00000000000003FFFF8
FFFFE00000000000003FFFF8
FFFFE00000000000003FFFF8
FFFFE00000000000003FFFF8
FFFFE00000000000003FFFF8
FFFFE00000000000003FFFF8
FFFFE00000000000003FFFF8
ENDCHAR
STARTCHAR 0042
ENCODING 66
SWIDTH 675 0
DWIDTH 108 0
BBX 93 121 7 0
BITMAP
FFFFFFFFFFFFFFFFFFFE0000
FFFFFFFFFFFFFFFFFFFFC000
FFFFFFFFFFFFFFFFFFFFF000
FFFFFFFFFFFFFFFFFFFFF800
FFFFFFFFFFFFFFFFFFFFFE00
FFFFFFFFFFFFFFFFFFFFFF00
FFFFFFFFFFFFFFFFFFFFFF80
FFFFFFFFFFFFFFFFFFFFFF80
FFFFFFFFFFFFFFFFFFFFFFC0
FFFFFFFFFFFFFFFFFFFFFFE0
FFFFFFFFFFFFFFFFFFFFFFE0
FFFFFFFFFFFFFFFFFFFFFFF0
FFFFFFFFFFFFFFFFFFFFFFF0
FFFFFFFFFFFFFFFFFFFFFFF0
FFFFFFFFFFFFFFFFFFFFFFF8
FFFFFFFFFFFFFFFFFFFFFFF8
FFFFFFFFFFFFFFFFFFFFFFF8
FFFFFFFFFFFFFFFFFFFFFFF8
FFFFFFFFFFFFFFFFFFFFFFF8
FFFFE00000000000003FFFF8
FFFFE00000000000003FFFF8
FFFFE00000000000003FFFF8
FFFFE00000000000003FFFF8
FFFFE00000000000003FFFF8
FFFFE00000000000003FFFF8
FFFFE00000000000003FFFF8
FFFFE00000000000003FFFF8
FFFFE00000000000003FFFF8
FFFFE00000000000003FFFF8
FFFFE00000000000003FFFF8
FFFFE00000000000003FFFF8
FFFFE00000000000003FFFF8
FFFFE00000000000003FFFF8
FFFFE00000000000003FFFF8
FFFFE00000000000003FFFF8
FFFFE00000000000003FFFF8
FFFFE00000000000003FFFF8
FFFFE00000000000003FFFF8
FFFFE00000000000003FFFF8
FFFFE00000000000003FFFF8
FFFFE00000000000003FFFF8
FFFFE00000000000003FFFF8
FFFFE00000000000003FFFF8
FFFFE00000000000003FFFF8
FFFFE00000000000003FFFF8
FFFFE00000000000003FFFF8
FFFFE00000000000003FFFF8
FFFFFFFFFFFFFFFFFFFFFFF8
FFFFFFFFFFFFFFFFFFFFFFF8
FFFFFFFFFFFFFFFFFFFFFFF8
FFFFFFFFFFFFFFFFFFFFFFF0
FFFFFFFFFFFFFFFFFFFFFFF0
FFFFFFFFFFFFFFFFFFFFFFF0
FFFFFFFFFFFFFFFFFFFFFFE0
FFFFFFFFFFFFFFFFFFFFFFE0
FFFFFFFFFFFFFFFFFFFFFFC0
FFFFFFFFFFFFFFFFFFFFFF00
FFFFFFFFFFFFFFFFFFFFFC00
FFFFFFFFFFFFFFFFFFFFFC00
FFFFFFFFFFFFFFFFFFFFFF00
FFFFFFFFFFFFFFFFFFFFFF80
FFFFFFFFFFFFFFFFFFFFFFC0
FFFFFFFFFFFFFFFFFFFFFFE0
FFFFFFFFFFFFFFFFFFFFFFF0
FFFFFFFFFFFFFFFFFFFFFFF0
FFFFFFFFFFFFFFFFFFFFFFF0
FFFFE00000000000003FFFF8
FFFFE00000000000003FFFF8
FFFFE00000000000003FFFF8
FFFFE00000000000003FFFF8
FFFFE00000000000003FFFF8
FFFFE00000000000003FFFF8
FFFFE00000000000003FFFF8
FFFFE00000000000003FFFF8
FFFFE00000000000003FFFF8
FFFFE00000000000003FFFF8
FFFFE00000000000003FFFF8
FFFFE00000000000003FFFF8
FFFFE00000000000003FFFF8
FFFFE00000000000003FFFF8
FFFFE00000000000003FFFF8
FFFFE00000000000003FFFF8
FFFFE00000000000003FFFF8
FFFFE00000000000003FFFF8
FFFFE00000000000003FFFF8
FFFFE00000000000003FFFF8
FFFFE00000000000003FFFF8
FFFFE00000000000003FFFF8
FFFFE00000000000003FFFF8
FFFFE00000000000003FFFF8
FFFFE00000000000003FFFF8
FFFFE00000000000003FFFF8
FFFFE00000000000003FFFF8
FFFFE00000000000003FFFF8
FFFFE00000000000003FFFF8
FFFFE00000000000003FFFF8
FFFFE00000000000003FFFF8
FFFFE00000000000003FFFF8
FFFFE00000000000003FFFF8
FFFFE00000000000003FFFF8
FFFFE00000000000003FFFF8
FFFFE00000000000003FFFF8
FFFFFFFFFFFFFFFFFFFFFFF8
FFFFFFFFFFFFFFFFFFFFFFF8
FFFFFFFFFFFFFFFFFFFFFFF8
FFFFFFFFFFFFFFFFFFFFFFF8
FFFFFFFFFFFFFFFFFFFFFFF8
FFFFFFFFFFFFFFFFFFFFFFF0
FFFFFFFFFFFFFFFFFFFFFFF0
FFFFFFFFFFFFFFFFFFFFFFF0
FFFFFFFFFFFFFFFFFFFFFFF0
FFFFFFFFFFFFFFFFFFFFFFE0
FFFFFFFFFFFFFFFFFFFFFFE0
FFFFFFFFFFFFFFFFFFFFFFE0
FFFFFFFFFFFFFFFFFFFFFFC0
FFFFFFFFFFFFFFFFFFFFFF80
FFFFFFFFFFFFFFFFFFFFFF00
FFFFFFFFFFFFFFFFFFFFFE00
FFFFFFFFFFFFFFFFFFFFFC00
FFFFFFFFFFFFFFFFFFFFF000
FFFFFFFFFFFFFFFFFFFF0000
ENDCHAR
STARTCHAR 0043
ENCODING 67
SWIDTH 656 0
DWIDTH 105 0
BBX 90 121 7 0
BITMAP
0003FFFFFFFFFFFFFFFFFFC0
001FFFFFFFFFFFFFFFFFFFC0
007FFFFFFFFFFFFFFFFFFFC0
00FFFFFFFFFFFFFFFFFFFFC0
01FFFFFFFFFFFFFFFFFFFFC0
03FFFFFFFFFFFFFFFFFFFFC0
07FFFFFFFFFFFFFFFFFFFFC0
0FFFFFFFFFFFFFFFFFFFFFC0
1FFFFFFFFFFFFFFFFFFFFFC0
1FFFFFFFFFFFFFFFFFFFFFC0
3FFFFFFFFFFFFFFFFFFFFFC0
7FFFFFFFFFFFFFFFFFFFFFC0
7FFFFFFFFFFFFFFFFFFFFFC0
7FFFFFFFFFFFFFFFFFFFFFC0
7FFFFFFFFFFFFFFFFFFFFFC0
FFFFFFFFFFFFFFFFFFFFFFC0
FFFFFFFFFFFFFFFFFFFFFFC0
FFFFFFFFFFFFFFFFFFFFFFC0
FFFFFFFFFFFFFFFFFFFFFFC0
FFFFE0000000000000000000
FFFFE0000000000000000000
FFFFE0000000000000000000
FFFFE0000000000000000000
FFFFE0000000000000000000
FFFFE0000000000000000000
FFFFE0000000000000000000
FFFFE0000000000000000000
FFFFE0000000000000000000
FFFFE0000000000000000000
FFFFE0000000000000000000
FFFFE0000000000000000000
FFFFE0000000000000000000
FFFFE0000000000000000000
FFFFE0000000000000000000
FFFFE0000000000000000000
FFFFE0000000000000000000
FFFFE0000000000000000000
FFFFE0000000000000000000
FFFFE0000000000000000000
FFFFE0000000000000000000
FFFFE0000000000000000000
FFFFE0000000000000000000
FFFFE0000000000000000000
FFFFE0000000000000000000
FFFFE0000000000000000000
FFFFE0000000000000000000
FFFFE0000000000000000000
FFFFE0000000000000000000
FFFFE0000000000000000000
FFFFE0000000000000000000
FFFFE0000000000000000000
FFFFE0000000000000000000
FFFFE0000000000000000000
FFFFE0000000000000000000
FFFFE0000000000000000000
FFFFE0000000000000000000
FFFFE0000000000000000000
FFFFE0000000000000000000
FFFFE0000000000000000000
FFFFE0000000000000000000
FFFFE0000000000000000000
FFFFE0000000000000000000
FFFFE0000000000000000000
FFFFE0000000000000000000
FFFFE0000000000000000000
FFFFE0000000000000000000
FFFFE0000000000000000000
FFFFE0000000000000000000
FFFFE0000000000000000000
FFFFE0000000000000000000
FFFFE0000000000000000000
FFFFE0000000000000000000
FFFFE0000000000000000000
FFFFE0000000000000000000
FFFFE0000000000000000000
FFFFE0000000000000000000
FFFFE0000000000000000000
FFFFE0000000000000000000
FFFFE0000000000000000000
FFFFE0000000000000000000
FFFFE0000000000000000000
FFFFE0000000000000000000
FFFFE0000000000000000000
FFFFE0000000000000000000
FFFFE0000000000000000000
FFFFE0000000000000000000
FFFFE0000000000000000000
FFFFE0000000000000000000
FFFFE0000000000000000000
FFFFE0000000000000000000
FFFFE0000000000000000000
FFFFE0000000000000000000
FFFFE0000000000000000000
FFFFE0000000000000000000
FFFFE0000000000000000000
FFFFE0000000000000000000
FFFFE0000000000000000000
FFFFE0000000000000000000
FFFFE0000000000000000000
FFFFE0000000000000000000
FFFFE0000000000000000000
FFFFE0000000000000000000
FFFFFFFFFFFFFFFFFFFFFFC0
FFFFFFFFFFFFFFFFFFFFFFC0
FFFFFFFFFFFFFFFFFFFFFFC0
FFFFFFFFFFFFFFFFFFFFFFC0
FFFFFFFFFFFFFFFFFFFFFFC0
FFFFFFFFFFFFFFFFFFFFFFC0
7FFFFFFFFFFFFFFFFFFFFFC0
7FFFFFFFFFFFFFFFFFFFFFC0
7FFFFFFFFFFFFFFFFFFFFFC0
3FFFFFFFFFFFFFFFFFFFFFC0
3FFFFFFFFFFFFFFFFFFFFFC0
1FFFFFFFFFFFFFFFFFFFFFC0
1FFFFFFFFFFFFFFFFFFFFFC0
0FFFFFFFFFFFFFFFFFFFFFC0
07FFFFFFFFFFFFFFFFFFFFC0
03FFFFFFFFFFFFFFFFFFFFC0
00FFFFFFFFFFFFFFFFFFFFC0
003FFFFFFFFFFFFFFFFFFFC0
0007FFFFFFFFFFFFFFFFFFC0
ENDCHAR
STARTCHAR 0044
ENCODING 68
SWIDTH 668 0
DWIDTH 107 0
BBX 93 121 7 0
BITMAP
FFFFFFFFFFFFFFFFFFFE0000
FFFFFFFFFFFFFFFFFFFFC000
FFFFFFFFFFFFFFFFFFFFF000
FFFFFFFFFFFFFFFFFFFFF800
FFFFFFFFFFFFFFFFFFFFFC00
FFFFFFFFFFFFFFFFFFFFFF00
FFFFFFFFFFFFFFFFFFFFFF80
FFFFFFFFFFFFFFFFFFFFFF80
FFFFFFFFFFFFFFFFFFFFFFC0
FFFFFFFFFFFFFFFFFFFFFFE0
FFFFFFFFFFFFFFFFFFFFFFE0
FFFFFFFFFFFFFFFFFFFFFFF0
FFFFFFFFFFFFFFFFFFFFFFF0
FFFFFFFFFFFFFFFFFFFFFFF0
FFFFFFFFFFFFFFFFFFFFFFF8
FFFFFFFFFFFFFFFFFFFFFFF8
FFFFFFFFFFFFFFFFFFFFFFF8
FFFFFFFFFFFFFFFFFFFFFFF8
FFFFFFFFFFFFFFFFFFFFFFF8
FFFFE00000000000003FFFF8
FFFFE00000000000003FFFF8
FFFFE00000000000003FFFF8
FFFFE00000000000003FFFF8
FFFFE00000000000003FFFF8
FFFFE00000000000003FFFF8
FFFFE00000000000003FFFF8
FFFFE00000000000003FFFF8
FFFFE00000000000003FFFF8
FFFFE00000000000003FFFF8
FFFFE00000000000003FFFF8
FFFFE00000000000003FFFF8
FFFFE00000000000003FFFF8
FFFFE00000000000003FFFF8
FFFFE00000000000003FFFF8
FFFFE00000000000003FFFF8
FFFFE00000000000003FFFF8
FFFFE00000000000003FFFF8
FFFFE00000000000003FFFF8
FFFFE00000000000003FFFF8
FFFFE00000000000003FFFF8
FFFFE00000000000003FFFF8
FFFFE00000000000003FFFF8
FFFFE00000000000003FFFF8
FFFFE00000000000003FFFF8
FFFFE00000000000003FFFF8
FFFFE00000000000003FFFF8
FFFFE00000000000003FFFF8
FFFFE00000000000003FFFF8
FFFFE00000000000003FFFF8
FFFFE00000000000003FFFF8
FFFFE00000000000003FFFF8
FFFFE00000000000003FFFF8
FFFFE00000000000003FFFF8
FFFFE00000000000003FFFF8
FFFFE00000000000003FFFF8
FFFFE00000000000003FFFF8
FFFFE00000000000003FFFF8
FFFFE00000000000003FFFF8
FFFFE00000000000003FFFF8
FFFFE00000000000003FFFF8
FFFFE00000000000003FFFF8
FFFFE00000000000003FFFF8
FFFFE00000000000003FFFF8
FFFFE00000000000003FFFF8
FFFFE00000000000003FFFF8
FFFFE00000000000003FFFF8
FFFFE00000000000003FFFF8
FFFFE00000000000003FFFF8
FFFFE00000000000003FFFF8
FFFFE00000000000003FFFF8
FFFFE00000000000003FFFF8
FFFFE00000000000003FFFF8
FFFFE00000000000003FFFF8
FFFFE00000000000003FFFF8
FFFFE00000000000003FFFF8
FFFFE00000000000003FFFF8
FFFFE00000000000003FFFF8
FFFFE00000000000003FFFF8
FFFFE00000000000003FFFF8
FFFFE00000000000003FFFF8
FFFFE00000000000003FFFF8
FFFFE00000000000003FFFF8
FFFFE00000000000003FFFF8
FFFFE00000000000003FFFF8
FFFFE00000000000003FFFF8
FFFFE00000000000003FFFF8
FFFFE00000000000003FFFF8
FFFFE00000000000003FFFF8
FFFFE00000000000003FFFF8
FFFFE00000000000003FFFF8
FFFFE00000000000003FFFF8
FFFFE00000000000003FFFF8
FFFFE00000000000003FFFF8
FFFFE00000000000003FFFF8
FFFFE00000000000003FFFF8
FFFFE00000000000003FFFF8
FFFFE00000000000003FFFF8
FFFFE00000000000003FFFF8
FFFFE00000000000003FFFF8
FFFFE00000000000003FFFF8
FFFFE00000000000003FFFF8
FFFFE00000000000003FFFF8
FFFFFFFFFFFFFFFFFFFFFFF8
FFFFFFFFFFFFFFFFFFFFFFF8
FFFFFFFFFFFFFFFFFFFFFFF8
FFFFFFFFFFFFFFFFFFFFFFF8
FFFFFFFFFFFFFFFFFFFFFFF8
FFFFFFFFFFFFFFFFFFFFFFF8
FFFFFFFFFFFFFFFFFFFFFFF8
FFFFFFFFFFFFFFFFFFFFFFF0
FFFFFFFFFFFFFFFFFFFFFFF0
FFFFFFFFFFFFFFFFFFFFFFF0
FFFFFFFFFFFFFFFFFFFFFFE0
FFFFFFFFFFFFFFFFFFFFFFE0
FFFFFFFFFFFFFFFFFFFFFFC0
FFFFFFFFFFFFFFFFFFFFFF80
FFFFFFFFFFFFFFFFFFFFFF00
FFFFFFFFFFFFFFFFFFFFFE00
FFFFFFFFFFFFFFFFFFFFF800
FFFFFFFFFFFFFFFFFFFFE000
FFFFFFFFFFFFFFFFFFFF0000
ENDCHAR
STARTCHAR 0045
ENCODING 69
SWIDTH 575 0
DWIDTH 92 0
BBX 74 121 9 0
BITMAP
FFFFFFFFFFFFFFFFFFC0
FFFFFFFFFFFFFFFFFFC0
FFFFFFFFFFFFFFFFFFC0
FFFFFFFFFFFFFFFFFFC0
FFFFFFFFFFFFFFFFFFC0
FFFFFFFFFFFFFFFFFFC0
FFFFFFFFFFFFFFFFFFC0
FFFFFFFFFFFFFFFFFFC0
FFFFFFFFFFFFFFFFFFC0
FFFFFFFFFFFFFFFFFFC0
FFFFFFFFFFFFFFFFFFC0
FFFFFFFFFFFFFFFFFFC0
FFFFFFFFFFFFFFFFFFC0
FFFFFFFFFFFFFFFFFFC0
FFFFFFFFFFFFFFFFFFC0
FFFFFFFFFFFFFFFFFFC0
FFFFFFFFFFFFFFFFFFC0
FFFFFFFFFFFFFFFFFFC0
FFFFFFFFFFFFFFFFFFC0
FFFFE000000000000000
FFFFE000000000000000
FFFFE000000000000000
FFFFE000000000000000
FFFFE000000000000000
FFFFE000000000000000
FFFFE000000000000000
FFFFE000000000000000
FFFFE000000000000000
FFFFE000000000000000
FFFFE000000000000000
FFFFE000000000000000
FFFFE000000000000000
FFFFE000000000000000
FFFFE000000000000000
FFFFE000000000000000
FFFFE000000000000000
FFFFE000000000000000
FFFFE000000000000000
FFFFE000000000000000
FFFFE000000000000000
FFFFE000000000000000
FFFFE000000000000000
FFFFE000000000000000
FFFFE000000000000000
FFFFE000000000000000
FFFFE000000000000000
FFFFE000000000000000
FFFFFFFFFFFFFFFFF000
FFFFFFFFFFFFFFFFF000
FFFFFFFFFFFFFFFFF000
FFFFFFFFFFFFFFFFF000
FFFFFFFFFFFFFFFFF000
FFFFFFFFFFFFFFFFF000
FFFFFFFFFFFFFFFFF000
FFFFFFFFFFFFFFFFF000
FFFFFFFFFFFFFFFFF000
FFFFFFFFFFFFFFFFF000
FFFFFFFFFFFFFFFFF000
FFFFFFFFFFFFFFFFF000
FFFFFFFFFFFFFFFFF000
FFFFFFFFFFFFFFFFF000
FFFFFFFFFFFFFFFFF000
FFFFFFFFFFFFFFFFF000
FFFFFFFFFFFFFFFFF000
FFFFFFFFFFFFFFFFF000
FFFFFFFFFFFFFFFFF000
FFFFE000000000000000
FFFFE000000000000000
FFFFE000000000000000
FFFFE000000000000000
FFFFE000000000000000
FFFFE000000000000000
FFFFE000000000000000
FFFFE000000000000000
FFFFE000000000000000
FFFFE000000000000000
FFFFE000000000000000
FFFFE000000000000000
FFFFE000000000000000
FFFFE000000000000000
FFFFE000000000000000
FFFFE000000000000000
FFFFE000000000000000
FFFFE000000000000000
FFFFE000000000000000
FFFFE000000000000000
FFFFE000000000000000
FFFFE000000000000000
FFFFE000000000000000
FFFFE000000000000000
FFFFE000000000000000
FFFFE000000000000000
FFFFE000000000000000
FFFFE000000000000000
FFFFE000000000000000
FFFFE000000000000000
FFFFE000000000000000
FFFFE000000000000000
FFFFE000000000000000
FFFFE000000000000000
FFFFE000000000000000
FFFFE000000000000000
FFFFFFFFFFFFFFFFFFC0
FFFFFFFFFFFFFFFFFFC0
FFFFFFFFFFFFFFFFFFC0
FFFFFFFFFFFFFFFFFFC0
FFFFFFFFFFFFFFFFFFC0
FFFFFFFFFFFFFFFFFFC0
FFFFFFFFFFFFFFFFFFC0
FFFFFFFFFFFFFFFFFFC0
FFFFFFFFFFFFFFFFFFC0
FFFFFFFFFFFFFFFFFFC0
FFFFFFFFFFFFFFFFFFC0
FFFFFFFFFFFFFFFFFFC0
FFFFFFFFFFFFFFFFFFC0
FFFFFFFFFFFFFFFFFFC0
FFFFFFFFFFFFFFFFFFC0
FFFFFFFFFFFFFFFFFFC0
FFFFFFFFFFFFFFFFFFC0
FFFFFFFFFFFFFFFFFFC0
FFFFFFFFFFFFFFFFFFC0
ENDCHAR
STARTCHAR 0046
ENCODING 70
SWIDTH 575 0
DWIDTH 92 0
BBX 74 121 9 0
BITMAP
FFFFFFFFFFFFFFFFFFC0
FFFFFFFFFFFFFFFFFFC0
FFFFFFFFFFFFFFFFFFC0
FFFFFFFFFFFFFFFFFFC0
FFFFFFFFFFFFFFFFFFC0
FFFFFFFFFFFFFFFFFFC0
FFFFFFFFFFFFFFFFFFC0
FFFFFFFFFFFFFFFFFFC0
FFFFFFFFFFFFFFFFFFC0
FFFFFFFFFFFFFFFFFFC0
FFFFFFFFFFFFFFFFFFC0
FFFFFFFFFFFFFFFFFFC0
FFFFFFFFFFFFFFFFFFC0
FFFFFFFFFFFFFFFFFFC0
FFFFFFFFFFFFFFFFFFC0
FFFFFFFFFFFFFFFFFFC0
FFFFFFFFFFFFFFFFFFC0
FFFFFFFFFFFFFFFFFFC0
FFFFFFFFFFFFFFFFFFC0
FFFFE000000000000000
FFFFE000000000000000
FFFFE000000000000000
FFFFE000000000000000
FFFFE000000000000000
FFFFE000000000000000
FFFFE000000000000000
FFFFE000000000000000
FFFFE000000000000000
FFFFE000000000000000
FFFFE000000000000000
FFFFE000000000000000
FFFFE000000000000000
FFFFE000000000000000
FFFFE000000000000000
FFFFE000000000000000
FFFFE000000000000000
FFFFE000000000000000
FFFFE000000000000000
FFFFE000000000000000
FFFFE000000000000000
FFFFE000000000000000
FFFFE000000000000000
FFFFE000000000000000
FFFFE000000000000000
FFFFE000000000000000
FFFFE000000000000000
FFFFE000000000000000
FFFFFFFFFFFFFFFFF000
FFFFFFFFFFFFFFFFF000
FFFFFFFFFFFFFFFFF000
FFFFFFFFFFFFFFFFF000
FFFFFFFFFFFFFFFFF000
FFFFFFFFFFFFFFFFF000
FFFFFFFFFFFFFFFFF000
FFFFFFFFFFFFFFFFF000
FFFFFFFFFFFFFFFFF000
FFFFFFFFFFFFFFFFF000
FFFFFFFFFFFFFFFFF000
FFFFFFFFFFFFFFFFF000
FFFFFFFFFFFFFFFFF000
FFFFFFFFFFFFFFFFF000
FFFFFFFFFFFFFFFFF000
FFFFFFFFFFFFFFFFF000
FFFFFFFFFFFFFFFFF000
FFFFFFFFFFFFFFFFF000
FFFFFFFFFFFFFFFFF000
FFFFE000000000000000
FFFFE000000000000000
FFFFE000000000000000
FFFFE000000000000000
FFFFE000000000000000
FFFFE000000000000000
FFFFE000000000000000
FFFFE000000000000000
FFFFE000000000000000
FFFFE000000000000000
FFFFE000000000000000
FFFFE000000000000000
FFFFE000000000000000
FFFFE000000000000000
FFFFE000000000000000
FFFFE000000000000000
FFFFE000000000000000
FFFFE000000000000000
FFFFE000000000000000
FFFFE000000000000000
FFFFE000000000000000
FFFFE000000000000000
FFFFE000000000000000
FFFFE000000000000000
FFFFE000000000000000
FFFFE000000000000000
FFFFE000000000000000
FFFFE000000000000000
FFFFE000000000000000
FFFFE000000000000000
FFFFE000000000000000
FFFFE000000000000000
FFFFE000000000000000
FFFFE000000000000000
FFFFE000000000000000
FFFFE000000000000000
FFFFE000000000000000
FFFFE000000000000000
FFFFE000000000000000
FFFFE000000000000000
FFFFE000000000000000
FFFFE000000000000000
FFFFE000000000000000
FFFFE000000000000000
FFFFE000000000000000
FFFFE000000000000000
FFFFE000000000000000
FFFFE000000000000000
FFFFE000000000000000
FFFFE000000000000000
FFFFE000000000000000
FFFFE000000000000000
FFFFE000000000000000
FFFFE000000000000000
FFFFE000000000000000
ENDCHAR
STARTCHAR 0047
ENCODING 71
SWIDTH 687 0
DWIDTH 110 0
BBX 93 121 8 0
BITMAP
0001FFFFFFFFFFFFFFFFFFC0
001FFFFFFFFFFFFFFFFFFFC0
007FFFFFFFFFFFFFFFFFFFC0
00FFFFFFFFFFFFFFFFFFFFC0
01FFFFFFFFFFFFFFFFFFFFC0
03FFFFFFFFFFFFFFFFFFFFC0
07FFFFFFFFFFFFFFFFFFFFC0
0FFFFFFFFFFFFFFFFFFFFFC0
1FFFFFFFFFFFFFFFFFFFFFC0
1FFFFFFFFFFFFFFFFFFFFFC0
3FFFFFFFFFFFFFFFFFFFFFC0
3FFFFFFFFFFFFFFFFFFFFFC0
7FFFFFFFFFFFFFFFFFFFFFC0
7FFFFFFFFFFFFFFFFFFFFFC0
7FFFFFFFFFFFFFFFFFFFFFC0
FFFFFFFFFFFFFFFFFFFFFFC0
FFFFFFFFFFFFFFFFFFFFFFC0
FFFFFFFFFFFFFFFFFFFFFFC0
FFFFFFFFFFFFFFFFFFFFFFC0
FFFFE0000000000000000000
FFFFE0000000000000000000
FFFFE0000000000000000000
FFFFE0000000000000000000
FFFFE0000000000000000000
FFFFE0000000000000000000
FFFFE0000000000000000000
FFFFE0000000000000000000
FFFFE0000000000000000000
FFFFE0000000000000000000
FFFFE0000000000000000000
FFFFE0000000000000000000
FFFFE0000000000000000000
FFFFE0000000000000000000
FFFFE0000000000000000000
FFFFE0000000000000000000
FFFFE0000000000000000000
FFFFE0000000000000000000
FFFFE0000000000000000000
FFFFE0000000000000000000
FFFFE0000000000000000000
FFFFE0000000000000000000
FFFFE0000000000000000000
FFFFE0000000000000000000
FFFFE0000000000000000000
FFFFE0000000000000000000
FFFFE0000000000000000000
FFFFE0000000000000000000
FFFFE00007FFFFFFFFFFFFF8
FFFFE00007FFFFFFFFFFFFF8
FFFFE00007FFFFFFFFFFFFF8
FFFFE00007FFFFFFFFFFFFF8
FFFFE00007FFFFFFFFFFFFF8
FFFFE00007FFFFFFFFFFFFF8
FFFFE00007FFFFFFFFFFFFF8
FFFFE00007FFFFFFFFFFFFF8
FFFFE00007FFFFFFFFFFFFF8
FFFFE00007FFFFFFFFFFFFF8
FFFFE00007FFFFFFFFFFFFF8
FFFFE00007FFFFFFFFFFFFF8
FFFFE00007FFFFFFFFFFFFF8
FFFFE00007FFFFFFFFFFFFF8
FFFFE00007FFFFFFFFFFFFF8
FFFFE00007FFFFFFFFFFFFF8
FFFFE00007FFFFFFFFFFFFF8
FFFFE00007FFFFFFFFFFFFF8
FFFFE00007FFFFFFFFFFFFF8
FFFFE00000000000003FFFF8
FFFFE00000000000003FFFF8
FFFFE00000000000003FFFF8
FFFFE00000000000003FFFF8
FFFFE00000000000003FFFF8
FFFFE00000000000003FFFF8
FFFFE00000000000003FFFF8
FFFFE00000000000003FFFF8
FFFFE00000000000003FFFF8
FFFFE00000000000003FFFF8
FFFFE00000000000003FFFF8
FFFFE00000000000003FFFF8
FFFFE00000000000003FFFF8
FFFFE00000000000003FFFF8
FFFFE00000000000003FFFF8
FFFFE00000000000003FFFF8
FFFFE00000000000003FFFF8
FFFFE00000000000003FFFF8
FFFFE00000000000003FFFF8
FFFFE00000000000003FFFF8
FFFFE00000000000003FFFF8
FFFFE00000000000003FFFF8
FFFFE00000000000003FFFF8
FFFFE00000000000003FFFF8
FFFFE00000000000003FFFF8
FFFFE00000000000003FFFF8
FFFFE00000000000003FFFF8
FFFFE00000000000003FFFF8
FFFFE00000000000003FFFF8
FFFFE00000000000003FFFF8
FFFFE00000000000003FFFF8
FFFFE00000000000003FFFF8
FFFFE00000000000003FFFF8
FFFFE00000000000003FFFF8
FFFFE00000000000003FFFF8
FFFFE00000000000003FFFF8
FFFFFFFFFFFFFFFFFFFFFFF8
FFFFFFFFFFFFFFFFFFFFFFF8
FFFFFFFFFFFFFFFFFFFFFFF8
FFFFFFFFFFFFFFFFFFFFFFF8
FFFFFFFFFFFFFFFFFFFFFFF8
FFFFFFFFFFFFFFFFFFFFFFF8
7FFFFFFFFFFFFFFFFFFFFFF8
7FFFFFFFFFFFFFFFFFFFFFF8
7FFFFFFFFFFFFFFFFFFFFFF8
3FFFFFFFFFFFFFFFFFFFFFF8
3FFFFFFFFFFFFFFFFFFFFFF8
1FFFFFFFFFFFFFFFFFFFFFF8
1FFFFFFFFFFFFFFFFFFFFFF8
0FFFFFFFFFFFFFFFFFFFFFF8
07FFFFFFFFFFFFFFFFFFFFF8
03FFFFFFFFFFFFFFFFFFFFF8
00FFFFFFFFFFFFFFFFFFFFF8
003FFFFFFFFFFFFFFFFFFFF8
0007FFFFFFFFFFFFFFFFFFF8
ENDCHAR
STARTCHAR 0048
ENCODING 72
SWIDTH 662 0
DWIDTH 106 0
BBX 90 121 8 0
BITMAP
FFFFE0000000000001FFFFC0
FFFFE0000000000001FFFFC0
FFFFE0000000000001FFFFC0
FFFFE0000000000001FFFFC0
FFFFE0000000000001FFFFC0
FFFFE0000000000001FFFFC0
FFFFE0000000000001FFFFC0
FFFFE0000000000001FFFFC0
FFFFE0000000000001FFFFC0
FFFFE0000000000001FFFFC0
FFFFE0000000000001FFFFC0
FFFFE0000000000001FFFFC0
FFFFE0000000000001FFFFC0
FFFFE0000000000001FFFFC0
FFFFE0000000000001FFFFC0
FFFFE0000000000001FFFFC0
FFFFE0000000000001FFFFC0
FFFFE0000000000001FFFFC0
FFFFE0000000000001FFFFC0
FFFFE0000000000001FFFFC0
FFFFE0000000000001FFFFC0
FFFFE0000000000001FFFFC0
FFFFE0000000000001FFFFC0
FFFFE0000000000001FFFFC0
FFFFE0000000000001FFFFC0
FFFFE0000000000001FFFFC0
FFFFE0000000000001FFFFC0
FFFFE0000000000001FFFFC0
FFFFE0000000000001FFFFC0
FFFFE0000000000001FFFFC0
FFFFE0000000000001FFFFC0
FFFFE0000000000001FFFFC0
FFFFE0000000000001FFFFC0
FFFFE0000000000001FFFFC0
FFFFE0000000000001FFFFC0
FFFFE0000000000001FFFFC0
FFFFE0000000000001FFFFC0
FFFFE0000000000001FFFFC0
FFFFE0000000000001FFFFC0
FFFFE0000000000001FFFFC0
FFFFE0000000000001FFFFC0
FFFFE0000000000001FFFFC0
FFFFE0000000000001FFFFC0
FFFFE0000000000001FFFFC0
FFFFE0000000000001FFFFC0
FFFFE0000000000001FFFFC0
FFFFE0000000000001FFFFC0
FFFFFFFFFFFFFFFFFFFFFFC0
FFFFFFFFFFFFFFFFFFFFFFC0
FFFFFFFFFFFFFFFFFFFFFFC0
FFFFFFFFFFFFFFFFFFFFFFC0
FFFFFFFFFFFFFFFFFFFFFFC0
FFFFFFFFFFFFFFFFFFFFFFC0
FFFFFFFFFFFFFFFFFFFFFFC0
FFFFFFFFFFFFFFFFFFFFFFC0
FFFFFFFFFFFFFFFFFFFFFFC0
FFFFFFFFFFFFFFFFFFFFFFC0
FFFFFFFFFFFFFFFFFFFFFFC0
FFFFFFFFFFFFFFFFFFFFFFC0
FFFFFFFFFFFFFFFFFFFFFFC0
FFFFFFFFFFFFFFFFFFFFFFC0
FFFFFFFFFFFFFFFFFFFFFFC0
FFFFFFFFFFFFFFFFFFFFFFC0
FFFFFFFFFFFFFFFFFFFFFFC0
FFFFFFFFFFFFFFFFFFFFFFC0
FFFFFFFFFFFFFFFFFFFFFFC0
FFFFE0000000000001FFFFC0
FFFFE0000000000001FFFFC0
FFFFE0000000000001FFFFC0
FFFFE0000000000001FFFFC0
FFFFE0000000000001FFFFC0
FFFFE0000000000001FFFFC0
FFFFE0000000000001FFFFC0
FFFFE0000000000001FFFFC0
FFFFE0000000000001FFFFC0
FFFFE0000000000001FFFFC0
FFFFE0000000000001FFFFC0
FFFFE0000000000001FFFFC0
FFFFE0000000000001FFFFC0
FFFFE0000000000001FFFFC0
FFFFE0000000000001FFFFC0
FFFFE0000000000001FFFFC0
FFFFE0000000000001FFFFC0
FFFFE0000000000001FFFFC0
FFFFE0000000000001FFFFC0
FFFFE0000000000001FFFFC0
FFFFE0000000000001FFFFC0
FFFFE0000000000001FFFFC0
FFFFE0000000000001FFFFC0
FFFFE0000000000001FFFFC0
FFFFE0000000000001FFFFC0
FFFFE0000000000001FFFFC0
FFFFE0000000000001FFFFC0
FFFFE0000000000001FFFFC0
FFFFE0000000000001FFFFC0
FFFFE0000000000001FFFFC0
FFFFE0000000000001FFFFC0
FFFFE0000000000001FFFFC0
FFFFE0000000000001FFFFC0
FFFFE0000000000001FFFFC0
FFFFE0000000000001FFFFC0
FFFFE0000000000001FFFFC0
FFFFE0000000000001FFFFC0
FFFFE0000000000001FFFFC0
FFFFE0000000000001FFFFC0
FFFFE0000000000001FFFFC0
FFFFE0000000000001FFFFC0
FFFFE0000000000001FFFFC0
FFFFE0000000000001FFFFC0
FFFFE0000000000001FFFFC0
FFFFE0000000000001FFFFC0
FFFFE0000000000001FFFFC0
FFFFE0000000000001FFFFC0
FFFFE0000000000001FFFFC0
FFFFE0000000000001FFFFC0
FFFFE0000000000001FFFFC0
FFFFE0000000000001FFFFC0
FFFFE0000000000001FFFFC0
FFFFE0000000000001FFFFC0
FFFFE0000000000001FFFFC0
FFFFE0000000000001FFFFC0
ENDCHAR
STARTCHAR 0049
ENCODING 73
SWIDTH 225 0
DWIDTH 36 0
BBX 19 121 9 0
BITMAP
FFFFE0
FFFFE0
FFFFE0
FFFFE0
FFFFE0
FFFFE0
FFFFE0
FFFFE0
FFFFE0
FFFFE0
FFFFE0
FFFFE0
FFFFE0
FFFFE0
FFFFE0
FFFFE0
FFFFE0
FFFFE0
FFFFE0
FFFFE0
FFFFE0
FFFFE0
FFFFE0
FFFFE0
FFFFE0
FFFFE0
FFFFE0
FFFFE0
FFFFE0
FFFFE0
FFFFE0
FFFFE0
FFFFE0
FFFFE0
FFFFE0
FFFFE0
FFFFE0
FFFFE0
FFFFE0
FFFFE0
FFFFE0
FFFFE0
FFFFE0
FFFFE0
FFFFE0
FFFFE0
FFFFE0
FFFFE0
FFFFE0
FFFFE0
FFFFE0
FFFFE0
FFFFE0
FFFFE0
FFFFE0
FFFFE0
FFFFE0
FFFFE0
FFFFE0
FFFFE0
FFFFE0
FFFFE0
FFFFE0
FFFFE0
FFFFE0
FFFFE0
FFFFE0
FFFFE0
FFFFE0
FFFFE0
FFFFE0
FFFFE0
FFFFE0
FFFFE0
FFFFE0
FFFFE0
FFFFE0
FFFFE0
FFFFE0
FFFFE0
FFFFE0
FFFFE0
FFFFE0
FFFFE0
FFFFE0
FFFFE0
FFFFE0
FFFFE0
FFFFE0
FFFFE0
FFFFE0
FFFFE0
FFFFE0
FFFFE0
FFFFE0
FFFFE0
FFFFE0
FFFFE0
FFFFE0
FFFFE0
FFFFE0
FFFFE0
FFFFE0
FFFFE0
FFFFE0
FFFFE0
FFFFE0
FFFFE0
FFFFE0
FFFFE0
FFFFE0
FFFFE0
FFFFE0
FFFFE0
FFFFE0
FFFFE0
FFFFE0
FFFFE0
FFFFE0
FFFFE0
FFFFE0
ENDCHAR
STARTCHAR 004A
ENCODING 74
SWIDTH 693 0
DWIDTH 111 0
BBX 93 121 9 0
BITMAP
0000000000000000003FFFF8
0000000000000000003FFFF8
0000000000000000003FFFF8
0000000000000000003FFFF8
0000000000000000003FFFF8
0000000000000000003FFFF8
0000000000000000003FFFF8
0000000000000000003FFFF8
0000000000000000003FFFF8
0000000000000000003FFFF8
0000000000000000003FFFF8
0000000000000000003FFFF8
0000000000000000003FFFF8
0000000000000000003FFFF8
0000000000000000003FFFF8
0000000000000000003FFFF8
0000000000000000003FFFF8
0000000000000000003FFFF8
0000000000000000003FFFF8
0000000000000000003FFFF8
0000000000000000003FFFF8
0000000000000000003FFFF8
0000000000000000003FFFF8
0000000000000000003FFFF8
0000000000000000003FFFF8
0000000000000000003FFFF8
0000000000000000003FFFF8
0000000000000000003FFFF8
0000000000000000003FFFF8
0000000000000000003FFFF8
0000000000000000003FFFF8
0000000000000000003FFFF8
0000000000000000003FFFF8
0000000000000000003FFFF8
0000000000000000003FFFF8
0000000000000000003FFFF8
0000000000000000003FFFF8
0000000000000000003FFFF8
0000000000000000003FFFF8
0000000000000000003FFFF8
0000000000000000003FFFF8
0000000000000000003FFFF8
0000000000000000003FFFF8
0000000000000000003FFFF8
0000000000000000003FFFF8
0000000000000000003FFFF8
0000000000000000003FFFF8
0000000000000000003FFFF8
0000000000000000003FFFF8
0000000000000000003FFFF8
0000000000000000003FFFF8
0000000000000000003FFFF8
0000000000000000003FFFF8
0000000000000000003FFFF8
0000000000000000003FFFF8
0000000000000000003FFFF8
0000000000000000003FFFF8
0000000000000000003FFFF8
0000000000000000003FFFF8
0000000000000000003FFFF8
0000000000000000003FFFF8
0000000000000000003FFFF8
0000000000000000003FFFF8
0000000000000000003FFFF8
0000000000000000003FFFF8
0000000000000000003FFFF8
0000000000000000003FFFF8
0000000000000000003FFFF8
0000000000000000003FFFF8
0000000000000000003FFFF8
0000000000000000003FFFF8
0000000000000000003FFFF8
0000000000000000003FFFF8
0000000000000000003FFFF8
0000000000000000003FFFF8
0000000000000000003FFFF8
0000000000000000003FFFF8
0000000000000000003FFFF8
0000000000000000003FFFF8
0000000000000000003FFFF8
0000000000000000003FFFF8
0000000000000000003FFFF8
0000000000000000003FFFF8
FFFFE00000000000003FFFF8
FFFFE00000000000003FFFF8
FFFFE00000000000003FFFF8
FFFFE00000000000003FFFF8
FFFFE00000000000003FFFF8
FFFFE00000000000003FFFF8
FFFFE00000000000003FFFF8
FFFFE00000000000003FFFF8
FFFFE00000000000003FFFF8
FFFFE00000000000003FFFF8
FFFFE00000000000003FFFF8
FFFFE00000000000003FFFF8
FFFFE00000000000003FFFF8
FFFFE00000000000003FFFF8
FFFFE00000000000003FFFF8
FFFFE00000000000003FFFF8
FFFFE00000000000003FFFF8
FFFFE00000000000003FFFF8
FFFFE00000000000003FFFF8
FFFFFFFFFFFFFFFFFFFFFFF8
FFFFFFFFFFFFFFFFFFFFFFF8
FFFFFFFFFFFFFFFFFFFFFFF8
FFFFFFFFFFFFFFFFFFFFFFF8
FFFFFFFFFFFFFFFFFFFFFFF8
FFFFFFFFFFFFFFFFFFFFFFF8
FFFFFFFFFFFFFFFFFFFFFFF8
7FFFFFFFFFFFFFFFFFFFFFF8
7FFFFFFFFFFFFFFFFFFFFFF8
7FFFFFFFFFFFFFFFFFFFFFF8
3FFFFFFFFFFFFFFFFFFFFFF8
3FFFFFFFFFFFFFFFFFFFFFF8
1FFFFFFFFFFFFFFFFFFFFFF8
0FFFFFFFFFFFFFFFFFFFFFF8
07FFFFFFFFFFFFFFFFFFFFF8
03FFFFFFFFFFFFFFFFFFFFF8
00FFFFFFFFFFFFFFFFFFFFF8
003FFFFFFFFFFFFFFFFFFFF8
0007FFFFFFFFFFFFFFFFFFF8
ENDCHAR
STARTCHAR 004B
ENCODING 75
SWIDTH 643 0
DWIDTH 103 0
BBX 93 121 5 0
BITMAP
FFFFE000000000000FFFFFF8
FFFFE000000000001FFFFFF0
FFFFE000000000003FFFFFE0
FFFFE000000000007FFFFFC0
FFFFE00000000000FFFFFF80
FFFFE00000000001FFFFFF00
FFFFE00000000003FFFFFE00
FFFFE00000000007FFFFFC00
FFFFE0000000000FFFFFF000
FFFFE0000000001FFFFFE000
FFFFE0000000003FFFFFC000
FFFFE0000000007FFFFF8000
FFFFE000000000FFFFFF0000
FFFFE000000001FFFFFE0000
FFFFE000000003FFFFFC0000
FFFFE000000007FFFFF80000
FFFFE00000000FFFFFF00000
FFFFE00000001FFFFFE00000
FFFFE00000007FFFFFC00000
FFFFE0000000FFFFFF800000
FFFFE0000001FFFFFF000000
FFFFE0000003FFFFFC000000
FFFFE0000007FFFFF8000000
FFFFE000000FFFFFF0000000
FFFFE000001FFFFFE0000000
FFFFE000003FFFFFC0000000
FFFFE000007FFFFF80000000
FFFFE00000FFFFFF00000000
FFFFE00001FFFFFE00000000
FFFFE00003FFFFFC00000000
FFFFE00007FFFFF800000000
FFFFE0000FFFFFF000000000
FFFFE0001FFFFFE000000000
FFFFE0003FFFFFC000000000
FFFFE0007FFFFF0000000000
FFFFE001FFFFFE0000000000
FFFFE003FFFFFC0000000000
FFFFE007FFFFF80000000000
FFFFE00FFFFFF00000000000
FFFFE01FFFFFE00000000000
FFFFE03FFFFFC00000000000
FFFFE07FFFFF800000000000
FFFFE0FFFFFF000000000000
FFFFE1FFFFFE000000000000
FFFFE3FFFFFC000000000000
FFFFE7FFFFF8000000000000
FFFFEFFFFFF0000000000000
FFFFFFFFFFC0000000000000
FFFFFFFFFF80000000000000
FFFFFFFFFF00000000000000
FFFFFFFFFE00000000000000
FFFFFFFFFC00000000000000
FFFFFFFFF800000000000000
FFFFFFFFF000000000000000
FFFFFFFFE000000000000000
FFFFFFFFC000000000000000
FFFFFFFF8000000000000000
FFFFFFFF0000000000000000
FFFFFFFE0000000000000000
FFFFFFFC0000000000000000
FFFFFFFC0000000000000000
FFFFFFFE0000000000000000
FFFFFFFF0000000000000000
FFFFFFFF8000000000000000
FFFFFFFFC000000000000000
FFFFFFFFE000000000000000
FFFFFFFFF000000000000000
FFFFFFFFF800000000000000
FFFFFFFFFC00000000000000
FFFFFFFFFE00000000000000
FFFFFFFFFF00000000000000
FFFFFFFFFFC0000000000000
FFFFEFFFFFE0000000000000
FFFFE7FFFFF0000000000000
FFFFE3FFFFF8000000000000
FFFFE1FFFFFC000000000000
FFFFE0FFFFFE000000000000
FFFFE07FFFFF000000000000
FFFFE03FFFFF800000000000
FFFFE01FFFFFC00000000000
FFFFE00FFFFFE00000000000
FFFFE007FFFFF00000000000
FFFFE003FFFFF80000000000
FFFFE001FFFFFC0000000000
FFFFE000FFFFFE0000000000
FFFFE0007FFFFF0000000000
FFFFE0003FFFFF8000000000
FFFFE0001FFFFFC000000000
FFFFE0000FFFFFE000000000
FFFFE00007FFFFF000000000
FFFFE00003FFFFFC00000000
FFFFE00001FFFFFE00000000
FFFFE00000FFFFFF00000000
FFFFE000007FFFFF80000000
FFFFE000003FFFFFC0000000
FFFFE000001FFFFFE0000000
FFFFE000000FFFFFF0000000
FFFFE0000007FFFFF8000000
FFFFE0000003FFFFFC000000
FFFFE0000001FFFFFE000000
FFFFE0000000FFFFFF000000
FFFFE00000007FFFFF800000
FFFFE00000003FFFFFC00000
FFFFE00000001FFFFFE00000
FFFFE00000000FFFFFF00000
FFFFE000000007FFFFF80000
FFFFE000000003FFFFFC0000
FFFFE000000001FFFFFE0000
FFFFE000000000FFFFFF0000
FFFFE0000000007FFFFF8000
FFFFE0000000003FFFFFE000
FFFFE0000000001FFFFFF000
FFFFE0000000000FFFFFF800
FFFFE00000000007FFFFFC00
FFFFE00000000003FFFFFE00
FFFFE00000000001FFFFFF00
FFFFE00000000000FFFFFF80
FFFFE000000000007FFFFFC0
FFFFE000000000003FFFFFE0
FFFFE000000000001FFFFFF0
FFFFE000000000000FFFFFF8
ENDCHAR
STARTCHAR 004C
ENCODING 76
SWIDTH 537 0
DWIDTH 86 0
BBX 74 121 6 0
BITMAP
FFFFE000000000000000
FFFFE000000000000000
FFFFE000000000000000
FFFFE000000000000000
FFFFE000000000000000
FFFFE000000000000000
FFFFE000000000000000
FFFFE000000000000000
FFFFE000000000000000
FFFFE000000000000000
FFFFE000000000000000
FFFFE000000000000000
FFFFE000000000000000
FFFFE000000000000000
FFFFE000000000000000
FFFFE000000000000000
FFFFE000000000000000
FFFFE000000000000000
FFFFE000000000000000
FFFFE000000000000000
FFFFE000000000000000
FFFFE000000000000000
FFFFE000000000000000
FFFFE000000000000000
FFFFE000000000000000
FFFFE000000000000000
FFFFE000000000000000
FFFFE000000000000000
FFFFE000000000000000
FFFFE000000000000000
FFFFE000000000000000
FFFFE000000000000000
FFFFE000000000000000
FFFFE000000000000000
FFFFE000000000000000
FFFFE000000000000000
FFFFE000000000000000
FFFFE000000000000000
FFFFE000000000000000
FFFFE000000000000000
FFFFE000000000000000
FFFFE000000000000000
FFFFE000000000000000
FFFFE000000000000000
FFFFE000000000000000
FFFFE000000000000000
FFFFE000000000000000
FFFFE000000000000000
FFFFE000000000000000
FFFFE000000000000000
FFFFE000000000000000
FFFFE000000000000000
FFFFE000000000000000
FFFFE000000000000000
FFFFE000000000000000
FFFFE000000000000000
FFFFE000000000000000
FFFFE000000000000000
FFFFE000000000000000
FFFFE000000000000000
FFFFE000000000000000
FFFFE000000000000000
FFFFE000000000000000
FFFFE000000000000000
FFFFE000000000000000
FFFFE000000000000000
FFFFE000000000000000
FFFFE000000000000000
FFFFE000000000000000
FFFFE000000000000000
FFFFE000000000000000
FFFFE000000000000000
FFFFE000000000000000
FFFFE000000000000000
FFFFE000000000000000
FFFFE000000000000000
FFFFE000000000000000
FFFFE000000000000000
FFFFE000000000000000
FFFFE000000000000000
FFFFE000000000000000
FFFFE000000000000000
FFFFE000000000000000
FFFFE000000000000000
FFFFE000000000000000
FFFFE000000000000000
FFFFE000000000000000
FFFFE000000000000000
FFFFE000000000000000
FFFFE000000000000000
FFFFE000000000000000
FFFFE000000000000000
FFFFE000000000000000
FFFFE000000000000000
FFFFE000000000000000
FFFFE000000000000000
FFFFE000000000000000
FFFFE000000000000000
FFFFE000000000000000
FFFFE000000000000000
FFFFE000000000000000
FFFFE000000000000000
FFFFFFFFFFFFFFFFFFC0
FFFFFFFFFFFFFFFFFFC0
FFFFFFFFFFFFFFFFFFC0
FFFFFFFFFFFFFFFFFFC0
FFFFFFFFFFFFFFFFFFC0
FFFFFFFFFFFFFFFFFFC0
FFFFFFFFFFFFFFFFFFC0
FFFFFFFFFFFFFFFFFFC0
FFFFFFFFFFFFFFFFFFC0
FFFFFFFFFFFFFFFFFFC0
FFFFFFFFFFFFFFFFFFC0
FFFFFFFFFFFFFFFFFFC0
FFFFFFFFFFFFFFFFFFC0
FFFFFFFFFFFFFFFFFFC0
FFFFFFFFFFFFFFFFFFC0
FFFFFFFFFFFFFFFFFFC0
FFFFFFFFFFFFFFFFFFC0
FFFFFFFFFFFFFFFFFFC0
FFFFFFFFFFFFFFFFFFC0
ENDCHAR
STARTCHAR 004D
ENCODING 77
SWIDTH 812 0
DWIDTH 130 0
BBX 112 121 9 0
BITMAP
FFFFC0000000000000000003FFFF
FFFFC0000000000000000007FFFF
FFFFE0000000000000000007FFFF
FFFFE0000000000000000007FFFF
FFFFF000000000000000000FFFFF
FFFFF000000000000000000FFFFF
FFFFF000000000000000000FFFFF
FFFFF800000000000000001FFFFF
FFFFF800000000000000001FFFFF
FFFFF800000000000000003FFFFF
FFFFFC00000000000000003FFFFF
FFFFFC00000000000000003FFFFF
FFFFFE00000000000000007FFFFF
FFFFFE00000000000000007FFFFF
FFFFFE0000000000000000FFFFFF
FFFFFF0000000000000000FFFFFF
FFFFFF0000000000000000FFFFFF
FFFFFF0000000000000001FFFFFF
FFFFFF8000000000000001FFFFFF
FFFFFF8000000000000001FFFFFF
FFFFFF8000000000000003FFFFFF
FFFFFFC000000000000003FFFFFF
FFFFFFC000000000000007FFFFFF
FFFFFFE000000000000007FFFFFF
FFFFFFE000000000000007FFFFFF
FFFFFFE00000000000000FFFFFFF
FFFFFFF00000000000000FFFFFFF
FFFFFFF00000000000000FFFFFFF
FFFFFFF00000000000001FFFFFFF
FFFFFFF80000000000001FFFFFFF
FFFFFFF80000000000003FFFFFFF
FFFFFFFC0000000000003FFFFFFF
FFFFFFFC0000000000003FFFFFFF
FFFFFFFC0000000000007FFFFFFF
FFFFFFFE0000000000007FFFFFFF
FFFFFFFE0000000000007FFFFFFF
FFFFFFFE000000000000FFFFFFFF
FFFFFFFF000000000000FFFFFFFF
FFFFFFFF000000000001FFFFFFFF
FFFFFFFF800000000001FFFFFFFF
FFFFFFFF800000000001FFFFFFFF
FFFFFFFF800000000003FFFFFFFF
FFFFFFFFC00000000003FFFFFFFF
FFFFFFFFC00000000003FFFFFFFF
FFFFFFFFC00000000007FFFFFFFF
FFFFFFFFE00000000007FFFFFFFF
FFFFFFFFE0000000000FFFFFFFFF
FFFFFFFFF0000000000FFFFFFFFF
FFFFFFFFF0000000000FFFF7FFFF
FFFFEFFFF0000000001FFFF7FFFF
FFFFEFFFF8000000001FFFE7FFFF
FFFFEFFFF8000000001FFFE7FFFF
FFFFE7FFF8000000003FFFE7FFFF
FFFFE7FFFC000000003FFFC7FFFF
FFFFE3FFFC000000007FFFC7FFFF
FFFFE3FFFC000000007FFFC7FFFF
FFFFE3FFFE000000007FFF87FFFF
FFFFE1FFFE00000000FFFF87FFFF
FFFFE1FFFF00000000FFFF87FFFF
FFFFE1FFFF00000000FFFF07FFFF
FFFFE0FFFF00000001FFFF07FFFF
FFFFE0FFFF80000001FFFE07FFFF
FFFFE0FFFF80000003FFFE07FFFF
FFFFE07FFF80000003FFFE07FFFF
FFFFE07FFFC0000003FFFC07FFFF
FFFFE03FFFC0000007FFFC07FFFF
FFFFE03FFFE0000007FFFC07FFFF
FFFFE03FFFE000000FFFF807FFFF
FFFFE01FFFE000000FFFF807FFFF
FFFFE01FFFF000000FFFF007FFFF
FFFFE01FFFF000001FFFF007FFFF
FFFFE00FFFF000001FFFF007FFFF
FFFFE00FFFF800001FFFE007FFFF
FFFFE00FFFF800003FFFE007FFFF
FFFFE007FFFC00003FFFE007FFFF
FFFFE007FFFC00007FFFC007FFFF
FFFFE003FFFC00007FFFC007FFFF
FFFFE003FFFE00007FFFC007FFFF
FFFFE003FFFE0000FFFF8007FFFF
FFFFE001FFFE0000FFFF8007FFFF
FFFFE001FFFF0000FFFF0007FFFF
FFFFE001FFFF0001FFFF0007FFFF
FFFFE000FFFF0001FFFF0007FFFF
FFFFE000FFFF8003FFFE0007FFFF
FFFFE000FFFF8003FFFE0007FFFF
FFFFE0007FFFC003FFFE0007FFFF
FFFFE0007FFFC007FFFC0007FFFF
FFFFE0007FFFC007FFFC0007FFFF
FFFFE0003FFFE007FFFC0007FFFF
FFFFE0003FFFE00FFFF80007FFFF
FFFFE0001FFFE00FFFF80007FFFF
FFFFE0001FFFF01FFFF00007FFFF
FFFFE0001FFFF01FFFF00007FFFF
FFFFE0000FFFF81FFFF00007FFFF
FFFFE0000FFFF83FFFE00007FFFF
FFFFE0000FFFF83FFFE00007FFFF
FFFFE00007FFFC3FFFE00007FFFF
FFFFE00007FFFC7FFFC00007FFFF
FFFFE00007FFFC7FFFC00007FFFF
FFFFE00003FFFEFFFF800007FFFF
FFFFE00003FFFEFFFF800007FFFF
FFFFE00001FFFFFFFF800007FFFF
FFFFE00001FFFFFFFF000007FFFF
FFFFE00001FFFFFFFF000007FFFF
FFFFE00000FFFFFFFF000007FFFF
FFFFE00000FFFFFFFE000007FFFF
FFFFE00000FFFFFFFE000007FFFF
FFFFE000007FFFFFFE000007FFFF
FFFFE000007FFFFFFC000007FFFF
FFFFE000007FFFFFFC000007FFFF
FFFFE000003FFFFFF8000007FFFF
FFFFE000003FFFFFF8000007FFFF
FFFFE000003FFFFFF8000007FFFF
FFFFE000001FFFFFF0000007FFFF
FFFFE000001FFFFFF0000007FFFF
FFFFE000000FFFFFF0000007FFFF
FFFFE000000FFFFFE0000007FFFF
FFFFE000000FFFFFE0000007FFFF
FFFFE0000007FFFFC0000007FFFF
FFFFE0000007FFFFC0000007FFFF
FFFFE0000007FFFFC0000007FFFF
ENDCHAR
STARTCHAR 004E
ENCODING 78
SWIDTH 693 0
DWIDTH 111 0
BBX 93 121 9 0
BITMAP
FFC0000000000000003FFFF8
FFE0000000000000003FFFF8
FFF0000000000000003FFFF8
FFF0000000000000003FFFF8
FFF8000000000000003FFFF8
FFFC000000000000003FFFF8
FFFE000000000000003FFFF8
FFFE000000000000003FFFF8
FFFF000000000000003FFFF8
FFFF800000000000003FFFF8
FFFFC00000000000003FFFF8
FFFFE00000000000003FFFF8
FFFFE00000000000003FFFF8
FFFFF00000000000003FFFF8
FFFFF80000000000003FFFF8
FFFFFC0000000000003FFFF8
FFFFFC0000000000003FFFF8
FFFFFE0000000000003FFFF8
FFFFFF0000000000003FFFF8
FFFFFF8000000000003FFFF8
FFFFFF8000000000003FFFF8
FFFFFFC000000000003FFFF8
FFFFFFE000000000003FFFF8
FFFFFFF000000000003FFFF8
FFFFFFF800000000003FFFF8
FFFFFFF800000000003FFFF8
FFFFFFFC00000000003FFFF8
FFFFFFFE00000000003FFFF8
FFFFFFFF00000000003FFFF8
FFFFFFFF00000000003FFFF8
FFFFFFFF80000000003FFFF8
FFFFFFFFC0000000003FFFF8
FFFFFFFFE0000000003FFFF8
FFFFFFFFE0000000003FFFF8
FFFFFFFFF0000000003FFFF8
FFFFFFFFF8000000003FFFF8
FFFFFFFFFC000000003FFFF8
FFFFFFFFFE000000003FFFF8
FFFFEFFFFE000000003FFFF8
FFFFEFFFFF000000003FFFF8
FFFFE7FFFF800000003FFFF8
FFFFE3FFFFC00000003FFFF8
FFFFE1FFFFC00000003FFFF8
FFFFE1FFFFE00000003FFFF8
FFFFE0FFFFF00000003FFFF8
FFFFE07FFFF80000003FFFF8
FFFFE03FFFF80000003FFFF8
FFFFE03FFFFC0000003FFFF8
FFFFE01FFFFE0000003FFFF8
FFFFE00FFFFF0000003FFFF8
FFFFE007FFFF8000003FFFF8
FFFFE003FFFF8000003FFFF8
FFFFE003FFFFC000003FFFF8
FFFFE001FFFFE000003FFFF8
FFFFE000FFFFF000003FFFF8
FFFFE0007FFFF000003FFFF8
FFFFE0007FFFF800003FFFF8
FFFFE0003FFFFC00003FFFF8
FFFFE0001FFFFE00003FFFF8
FFFFE0000FFFFE00003FFFF8
FFFFE0000FFFFF00003FFFF8
FFFFE00007FFFF80003FFFF8
FFFFE00003FFFFC0003FFFF8
FFFFE00001FFFFC0003FFFF8
FFFFE00001FFFFE0003FFFF8
FFFFE00000FFFFF0003FFFF8
FFFFE000007FFFF8003FFFF8
FFFFE000003FFFFC003FFFF8
FFFFE000001FFFFC003FFFF8
FFFFE000001FFFFE003FFFF8
FFFFE000000FFFFF003FFFF8
FFFFE0000007FFFF803FFFF8
FFFFE0000003FFFF803FFFF8
FFFFE0000003FFFFC03FFFF8
FFFFE0000001FFFFE03FFFF8
FFFFE0000000FFFFF03FFFF8
FFFFE00000007FFFF03FFFF8
FFFFE00000007FFFF83FFFF8
FFFFE00000003FFFFC3FFFF8
FFFFE00000001FFFFE3FFFF8
FFFFE00000000FFFFF3FFFF8
FFFFE000000007FFFF3FFFF8
FFFFE000000007FFFFBFFFF8
FFFFE000000003FFFFFFFFF8
FFFFE000000001FFFFFFFFF8
FFFFE000000000FFFFFFFFF8
FFFFE000000000FFFFFFFFF8
FFFFE0000000007FFFFFFFF8
FFFFE0000000003FFFFFFFF8
FFFFE0000000001FFFFFFFF8
FFFFE0000000001FFFFFFFF8
FFFFE0000000000FFFFFFFF8
FFFFE00000000007FFFFFFF8
FFFFE00000000003FFFFFFF8
FFFFE00000000003FFFFFFF8
FFFFE00000000001FFFFFFF8
FFFFE00000000000FFFFFFF8
FFFFE000000000007FFFFFF8
FFFFE000000000003FFFFFF8
FFFFE000000000003FFFFFF8
FFFFE000000000001FFFFFF8
FFFFE000000000000FFFFFF8
FFFFE0000000000007FFFFF8
FFFFE0000000000007FFFFF8
FFFFE0000000000003FFFFF8
FFFFE0000000000001FFFFF8
FFFFE0000000000000FFFFF8
FFFFE0000000000000FFFFF8
FFFFE00000000000007FFFF8
FFFFE00000000000003FFFF8
FFFFE00000000000001FFFF8
FFFFE00000000000001FFFF8
FFFFE00000000000000FFFF8
FFFFE000000000000007FFF8
FFFFE000000000000003FFF8
FFFFE000000000000001FFF8
FFFFE000000000000001FFF8
FFFFE000000000000000FFF8
FFFFE0000000000000007FF8
FFFFE0000000000000003FF8
FFFFE0000000000000003FF8
ENDCHAR
STARTCHAR 004F
ENCODING 79
SWIDTH 656 0
DWIDTH 105 0
BBX 93 121 7 0
BITMAP
0003FFFFFFFFFFFFFFFC0000
001FFFFFFFFFFFFFFFFF8000
007FFFFFFFFFFFFFFFFFE000
01FFFFFFFFFFFFFFFFFFF800
03FFFFFFFFFFFFFFFFFFFC00
07FFFFFFFFFFFFFFFFFFFE00
0FFFFFFFFFFFFFFFFFFFFF00
1FFFFFFFFFFFFFFFFFFFFF80
1FFFFFFFFFFFFFFFFFFFFF80
3FFFFFFFFFFFFFFFFFFFFFC0
3FFFFFFFFFFFFFFFFFFFFFE0
7FFFFFFFFFFFFFFFFFFFFFE0
7FFFFFFFFFFFFFFFFFFFFFE0
FFFFFFFFFFFFFFFFFFFFFFF0
FFFFFFFFFFFFFFFFFFFFFFF0
FFFFFFFFFFFFFFFFFFFFFFF0
FFFFFFFFFFFFFFFFFFFFFFF0
FFFFFFFFFFFFFFFFFFFFFFF0
FFFFFFFFFFFFFFFFFFFFFFF8
FFFFE00000000000003FFFF8
FFFFE00000000000003FFFF8
FFFFE00000000000003FFFF8
FFFFE00000000000003FFFF8
FFFFE00000000000003FFFF8
FFFFE00000000000003FFFF8
FFFFE00000000000003FFFF8
FFFFE00000000000003FFFF8
FFFFE00000000000003FFFF8
FFFFE00000000000003FFFF8
FFFFE00000000000003FFFF8
FFFFE00000000000003FFFF8
FFFFE00000000000003FFFF8
FFFFE00000000000003FFFF8
FFFFE00000000000003FFFF8
FFFFE00000000000003FFFF8
FFFFE00000000000003FFFF8
FFFFE00000000000003FFFF8
FFFFE00000000000003FFFF8
FFFFE00000000000003FFFF8
FFFFE00000000000003FFFF8
FFFFE00000000000003FFFF8
FFFFE00000000000003FFFF8
FFFFE00000000000003FFFF8
FFFFE00000000000003FFFF8
FFFFE00000000000003FFFF8
FFFFE00000000000003FFFF8
FFFFE00000000000003FFFF8
FFFFE00000000000003FFFF8
FFFFE00000000000003FFFF8
FFFFE00000000000003FFFF8
FFFFE00000000000003FFFF8
FFFFE00000000000003FFFF8
FFFFE00000000000003FFFF8
FFFFE00000000000003FFFF8
FFFFE00000000000003FFFF8
FFFFE00000000000003FFFF8
FFFFE00000000000003FFFF8
FFFFE00000000000003FFFF8
FFFFE00000000000003FFFF8
FFFFE00000000000003FFFF8
FFFFE00000000000003FFFF8
FFFFE00000000000003FFFF8
FFFFE00000000000003FFFF8
FFFFE00000000000003FFFF8
FFFFE00000000000003FFFF8
FFFFE00000000000003FFFF8
FFFFE00000000000003FFFF8
FFFFE00000000000003FFFF8
FFFFE00000000000003FFFF8
FFFFE00000000000003FFFF8
FFFFE00000000000003FFFF8
FFFFE00000000000003FFFF8
FFFFE00000000000003FFFF8
FFFFE00000000000003FFFF8
FFFFE00000000000003FFFF8
FFFFE00000000000003FFFF8
FFFFE00000000000003FFFF8
FFFFE00000000000003FFFF8
FFFFE00000000000003FFFF8
FFFFE00000000000003FFFF8
FFFFE00000000000003FFFF8
FFFFE00000000000003FFFF8
FFFFE00000000000003FFFF8
FFFFE00000000000003FFFF8
FFFFE00000000000003FFFF8
FFFFE00000000000003FFFF8
FFFFE00000000000003FFFF8
FFFFE00000000000003FFFF8
FFFFE00000000000003FFFF8
FFFFE00000000000003FFFF8
FFFFE00000000000003FFFF8
FFFFE00000000000003FFFF8
FFFFE00000000000003FFFF8
FFFFE00000000000003FFFF8
FFFFE00000000000003FFFF8
FFFFE00000000000003FFFF8
FFFFE00000000000003FFFF8
FFFFE00000000000003FFFF8
FFFFE00000000000003FFFF8
FFFFE00000000000003FFFF8
FFFFE00000000000003FFFF8
FFFFE00000000000003FFFF8
FFFFFFFFFFFFFFFFFFFFFFF8
FFFFFFFFFFFFFFFFFFFFFFF8
FFFFFFFFFFFFFFFFFFFFFFF0
FFFFFFFFFFFFFFFFFFFFFFF0
FFFFFFFFFFFFFFFFFFFFFFF0
FFFFFFFFFFFFFFFFFFFFFFF0
FFFFFFFFFFFFFFFFFFFFFFF0
7FFFFFFFFFFFFFFFFFFFFFF0
7FFFFFFFFFFFFFFFFFFFFFE0
7FFFFFFFFFFFFFFFFFFFFFE0
3FFFFFFFFFFFFFFFFFFFFFC0
3FFFFFFFFFFFFFFFFFFFFFC0
1FFFFFFFFFFFFFFFFFFFFF80
0FFFFFFFFFFFFFFFFFFFFF80
07FFFFFFFFFFFFFFFFFFFF00
03FFFFFFFFFFFFFFFFFFFC00
01FFFFFFFFFFFFFFFFFFF800
007FFFFFFFFFFFFFFFFFE000
0007FFFFFFFFFFFFFFFE0000
ENDCHAR
STARTCHAR 0050
ENCODING 80
SWIDTH 637 0
DWIDTH 102 0
BBX 91 121 6 0
BITMAP
FFFFFFFFFFFFFFFFFFF00000
FFFFFFFFFFFFFFFFFFFE0000
FFFFFFFFFFFFFFFFFFFF8000
FFFFFFFFFFFFFFFFFFFFE000
FFFFFFFFFFFFFFFFFFFFF000
FFFFFFFFFFFFFFFFFFFFF800
FFFFFFFFFFFFFFFFFFFFFC00
FFFFFFFFFFFFFFFFFFFFFE00
FFFFFFFFFFFFFFFFFFFFFF00
FFFFFFFFFFFFFFFFFFFFFF00
FFFFFFFFFFFFFFFFFFFFFF80
FFFFFFFFFFFFFFFFFFFFFF80
FFFFFFFFFFFFFFFFFFFFFFC0
FFFFFFFFFFFFFFFFFFFFFFC0
FFFFFFFFFFFFFFFFFFFFFFC0
FFFFFFFFFFFFFFFFFFFFFFC0
FFFFFFFFFFFFFFFFFFFFFFE0
FFFFFFFFFFFFFFFFFFFFFFE0
FFFFFFFFFFFFFFFFFFFFFFE0
FFFFE0000000000000FFFFE0
FFFFE0000000000000FFFFE0
FFFFE0000000000000FFFFE0
FFFFE0000000000000FFFFE0
FFFFE0000000000000FFFFE0
FFFFE0000000000000FFFFE0
FFFFE0000000000000FFFFE0
FFFFE0000000000000FFFFE0
FFFFE0000000000000FFFFE0
FFFFE0000000000000FFFFE0
FFFFE0000000000000FFFFE0
FFFFE0000000000000FFFFE0
FFFFE0000000000000FFFFE0
FFFFE0000000000000FFFFE0
FFFFE0000000000000FFFFE0
FFFFE0000000000000FFFFE0
FFFFE0000000000000FFFFE0
FFFFE0000000000000FFFFE0
FFFFE0000000000000FFFFE0
FFFFE0000000000000FFFFE0
FFFFE0000000000000FFFFE0
FFFFE0000000000000FFFFE0
FFFFE0000000000000FFFFE0
FFFFE0000000000000FFFFE0
FFFFE0000000000000FFFFE0
FFFFE0000000000000FFFFE0
FFFFE0000000000000FFFFE0
FFFFE0000000000000FFFFE0
FFFFFFFFFFFFFFFFFFFFFFE0
FFFFFFFFFFFFFFFFFFFFFFE0
FFFFFFFFFFFFFFFFFFFFFFE0
FFFFFFFFFFFFFFFFFFFFFFE0
FFFFFFFFFFFFFFFFFFFFFFC0
FFFFFFFFFFFFFFFFFFFFFFC0
FFFFFFFFFFFFFFFFFFFFFFC0
FFFFFFFFFFFFFFFFFFFFFFC0
FFFFFFFFFFFFFFFFFFFFFFC0
FFFFFFFFFFFFFFFFFFFFFF80
FFFFFFFFFFFFFFFFFFFFFF80
FFFFFFFFFFFFFFFFFFFFFF00
FFFFFFFFFFFFFFFFFFFFFE00
FFFFFFFFFFFFFFFFFFFFFE00
FFFFFFFFFFFFFFFFFFFFFC00
FFFFFFFFFFFFFFFFFFFFF800
FFFFFFFFFFFFFFFFFFFFE000
FFFFFFFFFFFFFFFFFFFF8000
FFFFFFFFFFFFFFFFFFF80000
FFFFE0000000000000000000
FFFFE0000000000000000000
FFFFE0000000000000000000
FFFFE0000000000000000000
FFFFE0000000000000000000
FFFFE0000000000000000000
FFFFE0000000000000000000
FFFFE0000000000000000000
FFFFE0000000000000000000
FFFFE0000000000000000000
FFFFE0000000000000000000
FFFFE0000000000000000000
FFFFE0000000000000000000
FFFFE0000000000000000000
FFFFE0000000000000000000
FFFFE0000000000000000000
FFFFE0000000000000000000
FFFFE0000000000000000000
FFFFE0000000000000000000
FFFFE0000000000000000000
FFFFE0000000000000000000
FFFFE0000000000000000000
FFFFE0000000000000000000
FFFFE0000000000000000000
FFFFE0000000000000000000
FFFFE0000000000000000000
FFFFE0000000000000000000
FFFFE0000000000000000000
FFFFE0000000000000000000
FFFFE0000000000000000000
FFFFE0000000000000000000
FFFFE0000000000000000000
FFFFE0000000000000000000
FFFFE0000000000000000000
FFFFE0000000000000000000
FFFFE0000000000000000000
FFFFE0000000000000000000
FFFFE0000000000000000000
FFFFE0000000000000000000
FFFFE0000000000000000000
FFFFE0000000000000000000
FFFFE0000000000000000000
FFFFE0000000000000000000
FFFFE0000000000000000000
FFFFE0000000000000000000
FFFFE0000000000000000000
FFFFE0000000000000000000
FFFFE0000000000000000000
FFFFE0000000000000000000
FFFFE0000000000000000000
FFFFE0000000000000000000
FFFFE0000000000000000000
FFFFE0000000000000000000
FFFFE0000000000000000000
FFFFE0000000000000000000
ENDCHAR
STARTCHAR 0051
ENCODING 81
SWIDTH 656 0
DWIDTH 105 0
BBX 93 140 7 -19
BITMAP
0003FFFFFFFFFFFFFFFC0000
001FFFFFFFFFFFFFFFFF8000
007FFFFFFFFFFFFFFFFFE000
01FFFFFFFFFFFFFFFFFFF800
03FFFFFFFFFFFFFFFFFFFC00
07FFFFFFFFFFFFFFFFFFFE00
0FFFFFFFFFFFFFFFFFFFFF00
1FFFFFFFFFFFFFFFFFFFFF80
1FFFFFFFFFFFFFFFFFFFFF80
3FFFFFFFFFFFFFFFFFFFFFC0
3FFFFFFFFFFFFFFFFFFFFFE0
7FFFFFFFFFFFFFFFFFFFFFE0
7FFFFFFFFFFFFFFFFFFFFFE0
FFFFFFFFFFFFFFFFFFFFFFF0
FFFFFFFFFFFFFFFFFFFFFFF0
FFFFFFFFFFFFFFFFFFFFFFF0
FFFFFFFFFFFFFFFFFFFFFFF0
FFFFFFFFFFFFFFFFFFFFFFF0
FFFFFFFFFFFFFFFFFFFFFFF8
FFFFE00000000000003FFFF8
FFFFE00000000000003FFFF8
FFFFE00000000000003FFFF8
FFFFE00000000000003FFFF8
FFFFE00000000000003FFFF8
FFFFE00000000000003FFFF8
FFFFE00000000000003FFFF8
FFFFE00000000000003FFFF8
FFFFE00000000000003FFFF8
FFFFE00000000000003FFFF8
FFFFE00000000000003FFFF8
FFFFE00000000000003FFFF8
FFFFE00000000000003FFFF8
FFFFE00000000000003FFFF8
FFFFE00000000000003FFFF8
FFFFE00000000000003FFFF8
FFFFE00000000000003FFFF8
FFFFE00000000000003FFFF8
FFFFE00000000000003FFFF8
FFFFE00000000000003FFFF8
FFFFE00000000000003FFFF8
FFFFE00000000000003FFFF8
FFFFE00000000000003FFFF8
FFFFE00000000000003FFFF8
FFFFE00000000000003FFFF8
FFFFE00000000000003FFFF8
FFFFE00000000000003FFFF8
FFFFE00000000000003FFFF8
FFFFE00000000000003FFFF8
FFFFE00000000000003FFFF8
FFFFE00000000000003FFFF8
FFFFE00000000000003FFFF8
FFFFE00000000000003FFFF8
FFFFE00000000000003FFFF8
FFFFE00000000000003FFFF8
FFFFE00000000000003FFFF8
FFFFE00000000000003FFFF8
FFFFE00000000000003FFFF8
FFFFE00000000000003FFFF8
FFFFE00000000000003FFFF8
FFFFE00000000000003FFFF8
FFFFE00000000000003FFFF8
FFFFE00000000000003FFFF8
FFFFE00000000000003FFFF8
FFFFE00000000000003FFFF8
FFFFE00000000000003FFFF8
FFFFE00000000000003FFFF8
FFFFE00000000000003FFFF8
FFFFE00000000000003FFFF8
FFFFE00000000000003FFFF8
FFFFE00000000000003FFFF8
FFFFE00000000000003FFFF8
FFFFE00000000000003FFFF8
FFFFE00000000000003FFFF8
FFFFE00000000000003FFFF8
FFFFE00000000000003FFFF8
FFFFE00000000000003FFFF8
FFFFE00000000000003FFFF8
FFFFE00000000000003FFFF8
FFFFE00000000000003FFFF8
FFFFE00000000000003FFFF8
FFFFE00000000000003FFFF8
FFFFE00000000000003FFFF8
FFFFE00000000000003FFFF8
FFFFE00000000000003FFFF8
FFFFE00000000000003FFFF8
FFFFE00000000000003FFFF8
FFFFE00000000000003FFFF8
FFFFE00000000000003FFFF8
FFFFE00000000000003FFFF8
FFFFE00000000000003FFFF8
FFFFE00000000000003FFFF8
FFFFE00000000000003FFFF8
FFFFE00000000000003FFFF8
FFFFE00000000000003FFFF8
FFFFE00000000000003FFFF8
FFFFE00000000000003FFFF8
FFFFE00000000000003FFFF8
FFFFE00000000000003FFFF8
FFFFE00000000000003FFFF8
FFFFE00000000000003FFFF8
FFFFE00000000000003FFFF8
FFFFE00000000000003FFFF8
FFFFFFFFFFFFFFFFFFFFFFF8
FFFFFFFFFFFFFFFFFFFFFFF8
FFFFFFFFFFFFFFFFFFFFFFF0
FFFFFFFFFFFFFFFFFFFFFFF0
FFFFFFFFFFFFFFFFFFFFFFF0
FFFFFFFFFFFFFFFFFFFFFFF0
FFFFFFFFFFFFFFFFFFFFFFF0
7FFFFFFFFFFFFFFFFFFFFFF0
7FFFFFFFFFFFFFFFFFFFFFE0
7FFFFFFFFFFFFFFFFFFFFFE0
3FFFFFFFFFFFFFFFFFFFFFC0
3FFFFFFFFFFFFFFFFFFFFFC0
1FFFFFFFFFFFFFFFFFFFFF80
0FFFFFFFFFFFFFFFFFFFFF80
07FFFFFFFFFFFFFFFFFFFF00
03FFFFFFFFFFFFFFFFFFFC00
01FFFFFFFFFFFFFFFFFFF800
007FFFFFFFFFFFFFFFFFE000
0007FFFFFFFFFFFFFFFE0000
0000000007FFFF0000000000
0000000007FFFF0000000000
0000000007FFFF0000000000
0000000007FFFF0000000000
0000000007FFFF0000000000
0000000007FFFF0000000000
0000000007FFFF0000000000
0000000007FFFF0000000000
0000000007FFFF0000000000
0000000007FFFF0000000000
0000000007FFFF0000000000
0000000007FFFF0000000000
0000000007FFFF0000000000
0000000007FFFF0000000000
0000000007FFFF0000000000
0000000007FFFF0000000000
0000000007FFFF0000000000
0000000007FFFF0000000000
0000000007FFFF0000000000
ENDCHAR
STARTCHAR 0052
ENCODING 82
SWIDTH 650 0
DWIDTH 104 0
BBX 93 121 6 0
BITMAP
FFFFFFFFFFFFFFFFFFF00000
FFFFFFFFFFFFFFFFFFFE0000
FFFFFFFFFFFFFFFFFFFF8000
FFFFFFFFFFFFFFFFFFFFC000
FFFFFFFFFFFFFFFFFFFFE000
FFFFFFFFFFFFFFFFFFFFF000
FFFFFFFFFFFFFFFFFFFFF800
FFFFFFFFFFFFFFFFFFFFFC00
FFFFFFFFFFFFFFFFFFFFFE00
FFFFFFFFFFFFFFFFFFFFFF00
FFFFFFFFFFFFFFFFFFFFFF00
FFFFFFFFFFFFFFFFFFFFFF80
FFFFFFFFFFFFFFFFFFFFFF80
FFFFFFFFFFFFFFFFFFFFFF80
FFFFFFFFFFFFFFFFFFFFFFC0
FFFFFFFFFFFFFFFFFFFFFFC0
FFFFFFFFFFFFFFFFFFFFFFC0
FFFFFFFFFFFFFFFFFFFFFFC0
FFFFFFFFFFFFFFFFFFFFFFC0
FFFFE0000000000001FFFFC0
FFFFE0000000000001FFFFC0
FFFFE0000000000001FFFFC0
FFFFE0000000000001FFFFC0
FFFFE0000000000001FFFFC0
FFFFE0000000000001FFFFC0
FFFFE0000000000001FFFFC0
FFFFE0000000000001FFFFC0
FFFFE0000000000001FFFFC0
FFFFE0000000000001FFFFC0
FFFFE0000000000001FFFFC0
FFFFE0000000000001FFFFC0
FFFFE0000000000001FFFFC0
FFFFE0000000000001FFFFC0
FFFFE0000000000001FFFFC0
FFFFE0000000000001FFFFC0
FFFFE0000000000001FFFFC0
FFFFE0000000000001FFFFC0
FFFFE0000000000001FFFFC0
FFFFE0000000000001FFFFC0
FFFFE0000000000001FFFFC0
FFFFE0000000000001FFFFC0
FFFFE0000000000001FFFFC0
FFFFE0000000000001FFFFC0
FFFFE0000000000001FFFFC0
FFFFE0000000000001FFFFC0
FFFFE0000000000001FFFFC0
FFFFE0000000000001FFFFC0
FFFFFFFFFFFFFFFFFFFFFFC0
FFFFFFFFFFFFFFFFFFFFFFC0
FFFFFFFFFFFFFFFFFFFFFFC0
FFFFFFFFFFFFFFFFFFFFFFC0
FFFFFFFFFFFFFFFFFFFFFFC0
FFFFFFFFFFFFFFFFFFFFFFC0
FFFFFFFFFFFFFFFFFFFFFF80
FFFFFFFFFFFFFFFFFFFFFF80
FFFFFFFFFFFFFFFFFFFFFF80
FFFFFFFFFFFFFFFFFFFFFF00
FFFFFFFFFFFFFFFFFFFFFF00
FFFFFFFFFFFFFFFFFFFFFE00
FFFFFFFFFFFFFFFFFFFFFE00
FFFFFFFFFFFFFFFFFFFFFC00
FFFFFFFFFFFFFFFFFFFFF800
FFFFFFFFFFFFFFFFFFFFF000
FFFFFFFFFFFFFFFFFFFFC000
FFFFFFFFFFFFFFFFFFFF0000
FFFFFFFFFFFFFFFFFFF80000
FFFFE0FFFFF0000000000000
FFFFE07FFFF8000000000000
FFFFE03FFFFC000000000000
FFFFE01FFFFE000000000000
FFFFE01FFFFF000000000000
FFFFE00FFFFF800000000000
FFFFE007FFFF800000000000
FFFFE003FFFFC00000000000
FFFFE001FFFFE00000000000
FFFFE000FFFFF00000000000
FFFFE0007FFFF80000000000
FFFFE0007FFFFC0000000000
FFFFE0003FFFFE0000000000
FFFFE0001FFFFF0000000000
FFFFE0000FFFFF8000000000
FFFFE00007FFFFC000000000
FFFFE00003FFFFC000000000
FFFFE00001FFFFE000000000
FFFFE00001FFFFF000000000
FFFFE00000FFFFF800000000
FFFFE000007FFFFC00000000
FFFFE000003FFFFE00000000
FFFFE000001FFFFF00000000
FFFFE000000FFFFF80000000
FFFFE0000007FFFFC0000000
FFFFE0000003FFFFE0000000
FFFFE0000003FFFFE0000000
FFFFE0000001FFFFF0000000
FFFFE0000000FFFFF8000000
FFFFE00000007FFFFC000000
FFFFE00000003FFFFE000000
FFFFE00000001FFFFF000000
FFFFE00000000FFFFF800000
FFFFE00000000FFFFFC00000
FFFFE000000007FFFFE00000
FFFFE000000003FFFFF00000
FFFFE000000001FFFFF00000
FFFFE000000000FFFFF80000
FFFFE0000000007FFFFC0000
FFFFE0000000003FFFFE0000
FFFFE0000000001FFFFF0000
FFFFE0000000001FFFFF8000
FFFFE0000000000FFFFFC000
FFFFE00000000007FFFFE000
FFFFE00000000003FFFFF000
FFFFE00000000001FFFFF000
FFFFE00000000000FFFFF800
FFFFE000000000007FFFFC00
FFFFE000000000007FFFFE00
FFFFE000000000003FFFFF00
FFFFE000000000001FFFFF80
FFFFE000000000000FFFFFC0
FFFFE0000000000007FFFFE0
FFFFE0000000000003FFFFF0
FFFFE0000000000001FFFFF8
ENDCHAR
STARTCHAR 0053
ENCODING 83
SWIDTH 637 0
DWIDTH 102 0
BBX 87 121 9 0
BITMAP
0003FFFFFFFFFFFFFFFF00
001FFFFFFFFFFFFFFFFF00
007FFFFFFFFFFFFFFFFF00
01FFFFFFFFFFFFFFFFFF00
03FFFFFFFFFFFFFFFFFF00
07FFFFFFFFFFFFFFFFFF00
0FFFFFFFFFFFFFFFFFFF00
0FFFFFFFFFFFFFFFFFFF00
1FFFFFFFFFFFFFFFFFFF00
3FFFFFFFFFFFFFFFFFFF00
3FFFFFFFFFFFFFFFFFFF00
7FFFFFFFFFFFFFFFFFFF00
7FFFFFFFFFFFFFFFFFFF00
FFFFFFFFFFFFFFFFFFFF00
FFFFFFFFFFFFFFFFFFFF00
FFFFFFFFFFFFFFFFFFFF00
FFFFFFFFFFFFFFFFFFFF00
FFFFFFFFFFFFFFFFFFFF00
FFFFFFFFFFFFFFFFFFFF00
FFFFE00000000000000000
FFFFE00000000000000000
FFFFE00000000000000000
FFFFE00000000000000000
FFFFE00000000000000000
FFFFE00000000000000000
FFFFE00000000000000000
FFFFE00000000000000000
FFFFE00000000000000000
FFFFE00000000000000000
FFFFE00000000000000000
FFFFE00000000000000000
FFFFE00000000000000000
FFFFE00000000000000000
FFFFE00000000000000000
FFFFE00000000000000000
FFFFE00000000000000000
FFFFE00000000000000000
FFFFE00000000000000000
FFFFE00000000000000000
FFFFE00000000000000000
FFFFE00000000000000000
FFFFE00000000000000000
FFFFE00000000000000000
FFFFE00000000000000000
FFFFE00000000000000000
FFFFE00000000000000000
FFFFE00000000000000000
FFFFFFFFFFFFFFFFFF0000
FFFFFFFFFFFFFFFFFFE000
FFFFFFFFFFFFFFFFFFF800
FFFFFFFFFFFFFFFFFFFE00
FFFFFFFFFFFFFFFFFFFF00
FFFFFFFFFFFFFFFFFFFF80
7FFFFFFFFFFFFFFFFFFFC0
7FFFFFFFFFFFFFFFFFFFE0
7FFFFFFFFFFFFFFFFFFFF0
3FFFFFFFFFFFFFFFFFFFF0
3FFFFFFFFFFFFFFFFFFFF8
1FFFFFFFFFFFFFFFFFFFF8
0FFFFFFFFFFFFFFFFFFFFC
07FFFFFFFFFFFFFFFFFFFC
03FFFFFFFFFFFFFFFFFFFC
01FFFFFFFFFFFFFFFFFFFC
00FFFFFFFFFFFFFFFFFFFC
003FFFFFFFFFFFFFFFFFFE
0003FFFFFFFFFFFFFFFFFE
00000000000000000FFFFE
00000000000000000FFFFE
00000000000000000FFFFE
00000000000000000FFFFE
00000000000000000FFFFE
00000000000000000FFFFE
00000000000000000FFFFE
00000000000000000FFFFE
00000000000000000FFFFE
00000000000000000FFFFE
00000000000000000FFFFE
00000000000000000FFFFE
00000000000000000FFFFE
00000000000000000FFFFE
00000000000000000FFFFE
00000000000000000FFFFE
00000000000000000FFFFE
00000000000000000FFFFE
00000000000000000FFFFE
00000000000000000FFFFE
00000000000000000FFFFE
00000000000000000FFFFE
00000000000000000FFFFE
00000000000000000FFFFE
00000000000000000FFFFE
00000000000000000FFFFE
00000000000000000FFFFE
00000000000000000FFFFE
00000000000000000FFFFE
00000000000000000FFFFE
00000000000000000FFFFE
00000000000000000FFFFE
00000000000000000FFFFE
00000000000000000FFFFE
00000000000000000FFFFE
00000000000000000FFFFE
7FFFFFFFFFFFFFFFFFFFFE
7FFFFFFFFFFFFFFFFFFFFE
7FFFFFFFFFFFFFFFFFFFFE
7FFFFFFFFFFFFFFFFFFFFC
7FFFFFFFFFFFFFFFFFFFFC
7FFFFFFFFFFFFFFFFFFFFC
7FFFFFFFFFFFFFFFFFFFFC
7FFFFFFFFFFFFFFFFFFFF8
7FFFFFFFFFFFFFFFFFFFF8
7FFFFFFFFFFFFFFFFFFFF0
7FFFFFFFFFFFFFFFFFFFF0
7FFFFFFFFFFFFFFFFFFFE0
7FFFFFFFFFFFFFFFFFFFC0
7FFFFFFFFFFFFFFFFFFFC0
7FFFFFFFFFFFFFFFFFFF80
7FFFFFFFFFFFFFFFFFFE00
7FFFFFFFFFFFFFFFFFFC00
7FFFFFFFFFFFFFFFFFF000
7FFFFFFFFFFFFFFFFF0000
ENDCHAR
STARTCHAR 0054
ENCODING 84
SWIDTH 650 0
DWIDTH 104 0
BBX 93 121 5 0
BITMAP
FFFFFFFFFFFFFFFFFFFFFFF8
FFFFFFFFFFFFFFFFFFFFFFF8
FFFFFFFFFFFFFFFFFFFFFFF8
FFFFFFFFFFFFFFFFFFFFFFF8
FFFFFFFFFFFFFFFFFFFFFFF8
FFFFFFFFFFFFFFFFFFFFFFF8
FFFFFFFFFFFFFFFFFFFFFFF8
FFFFFFFFFFFFFFFFFFFFFFF8
FFFFFFFFFFFFFFFFFFFFFFF8
FFFFFFFFFFFFFFFFFFFFFFF8
FFFFFFFFFFFFFFFFFFFFFFF8
FFFFFFFFFFFFFFFFFFFFFFF8
FFFFFFFFFFFFFFFFFFFFFFF8
FFFFFFFFFFFFFFFFFFFFFFF8
FFFFFFFFFFFFFFFFFFFFFFF8
FFFFFFFFFFFFFFFFFFFFFFF8
FFFFFFFFFFFFFFFFFFFFFFF8
FFFFFFFFFFFFFFFFFFFFFFF8
FFFFFFFFFFFFFFFFFFFFFFF8
0000000007FFFF0000000000
0000000007FFFF0000000000
0000000007FFFF0000000000
0000000007FFFF0000000000
0000000007FFFF0000000000
0000000007FFFF0000000000
0000000007FFFF0000000000
0000000007FFFF0000000000
0000000007FFFF0000000000
0000000007FFFF0000000000
0000000007FFFF0000000000
0000000007FFFF0000000000
0000000007FFFF0000000000
0000000007FFFF0000000000
0000000007FFFF0000000000
0000000007FFFF0000000000
0000000007FFFF0000000000
0000000007FFFF0000000000
0000000007FFFF0000000000
0000000007FFFF0000000000
0000000007FFFF0000000000
0000000007FFFF0000000000
0000000007FFFF0000000000
0000000007FFFF0000000000
0000000007FFFF0000000000
0000000007FFFF0000000000
0000000007FFFF0000000000
0000000007FFFF0000000000
0000000007FFFF0000000000
0000000007FFFF0000000000
0000000007FFFF0000000000
0000000007FFFF0000000000
0000000007FFFF0000000000
0000000007FFFF0000000000
0000000007FFFF0000000000
0000000007FFFF0000000000
0000000007FFFF0000000000
0000000007FFFF0000000000
0000000007FFFF0000000000
0000000007FFFF0000000000
0000000007FFFF0000000000
0000000007FFFF0000000000
0000000007FFFF0000000000
0000000007FFFF0000000000
0000000007FFFF0000000000
0000000007FFFF0000000000
0000000007FFFF0000000000
0000000007FFFF0000000000
0000000007FFFF0000000000
0000000007FFFF0000000000
0000000007FFFF0000000000
0000000007FFFF0000000000
0000000007FFFF0000000000
0000000007FFFF0000000000
0000000007FFFF0000000000
0000000007FFFF0000000000
0000000007FFFF0000000000
0000000007FFFF0000000000
0000000007FFFF0000000000
0000000007FFFF0000000000
0000000007FFFF0000000000
0000000007FFFF0000000000
0000000007FFFF0000000000
0000000007FFFF0000000000
0000000007FFFF0000000000
0000000007FFFF0000000000
0000000007FFFF0000000000
0000000007FFFF0000000000
0000000007FFFF0000000000
0000000007FFFF0000000000
0000000007FFFF0000000000
0000000007FFFF0000000000
0000000007FFFF0000000000
0000000007FFFF0000000000
0000000007FFFF0000000000
0000000007FFFF0000000000
0000000007FFFF0000000000
0000000007FFFF0000000000
0000000007FFFF0000000000
0000000007FFFF0000000000
0000000007FFFF0000000000
0000000007FFFF0000000000
0000000007FFFF0000000000
0000000007FFFF0000000000
0000000007FFFF0000000000
0000000007FFFF0000000000
0000000007FFFF0000000000
0000000007FFFF0000000000
0000000007FFFF0000000000
0000000007FFFF0000000000
0000000007FFFF0000000000
0000000007FFFF0000000000
0000000007FFFF0000000000
0000000007FFFF0000000000
0000000007FFFF0000000000
0000000007FFFF0000000000
0000000007FFFF0000000000
0000000007FFFF0000000000
0000000007FFFF0000000000
0000000007FFFF0000000000
0000000007FFFF0000000000
0000000007FFFF0000000000
ENDCHAR
STARTCHAR 0055
ENCODING 85
SWIDTH 693 0
DWIDTH 111 0
BBX 93 121 9 0
BITMAP
FFFFE00000000000003FFFF8
FFFFE00000000000003FFFF8
FFFFE00000000000003FFFF8
FFFFE00000000000003FFFF8
FFFFE00000000000003FFFF8
FFFFE00000000000003FFFF8
FFFFE00000000000003FFFF8
FFFFE00000000000003FFFF8
FFFFE00000000000003FFFF8
FFFFE00000000000003FFFF8
FFFFE00000000000003FFFF8
FFFFE00000000000003FFFF8
FFFFE00000000000003FFFF8
FFFFE00000000000003FFFF8
FFFFE00000000000003FFFF8
FFFFE00000000000003FFFF8
FFFFE00000000000003FFFF8
FFFFE00000000000003FFFF8
FFFFE00000000000003FFFF8
FFFFE00000000000003FFFF8
FFFFE00000000000003FFFF8
FFFFE00000000000003FFFF8
FFFFE00000000000003FFFF8
FFFFE00000000000003FFFF8
FFFFE00000000000003FFFF8
FFFFE00000000000003FFFF8
FFFFE00000000000003FFFF8
FFFFE00000000000003FFFF8
FFFFE00000000000003FFFF8
FFFFE00000000000003FFFF8
FFFFE00000000000003FFFF8
FFFFE00000000000003FFFF8
FFFFE00000000000003FFFF8
FFFFE00000000000003FFFF8
FFFFE00000000000003FFFF8
FFFFE00000000000003FFFF8
FFFFE00000000000003FFFF8
FFFFE00000000000003FFFF8
FFFFE00000000000003FFFF8
FFFFE00000000000003FFFF8
FFFFE00000000000003FFFF8
FFFFE00000000000003FFFF8
FFFFE00000000000003FFFF8
FFFFE00000000000003FFFF8
FFFFE00000000000003FFFF8
FFFFE00000000000003FFFF8
FFFFE00000000000003FFFF8
FFFFE00000000000003FFFF8
FFFFE00000000000003FFFF8
FFFFE00000000000003FFFF8
FFFFE00000000000003FFFF8
FFFFE00000000000003FFFF8
FFFFE00000000000003FFFF8
FFFFE00000000000003FFFF8
FFFFE00000000000003FFFF8
FFFFE00000000000003FFFF8
FFFFE00000000000003FFFF8
FFFFE00000000000003FFFF8
FFFFE00000000000003FFFF8
FFFFE00000000000003FFFF8
FFFFE00000000000003FFFF8
FFFFE00000000000003FFFF8
FFFFE00000000000003FFFF8
FFFFE00000000000003FFFF8
FFFFE00000000000003FFFF8
FFFFE00000000000003FFFF8
FFFFE00000000000003FFFF8
FFFFE00000000000003FFFF8
FFFFE00000000000003FFFF8
FFFFE00000000000003FFFF8
FFFFE00000000000003FFFF8
FFFFE00000000000003FFFF8
FFFFE00000000000003FFFF8
FFFFE00000000000003FFFF8
FFFFE00000000000003FFFF8
FFFFE00000000000003FFFF8
FFFFE00000000000003FFFF8
FFFFE00000000000003FFFF8
FFFFE00000000000003FFFF8
FFFFE00000000000003FFFF8
FFFFE00000000000003FFFF8
FFFFE00000000000003FFFF8
FFFFE00000000000003FFFF8
FFFFE00000000000003FFFF8
FFFFE00000000000003FFFF8
FFFFE00000000000003FFFF8
FFFFE00000000000003FFFF8
FFFFE00000000000003FFFF8
FFFFE00000000000003FFFF8
FFFFE00000000000003FFFF8
FFFFE00000000000003FFFF8
FFFFE00000000000003FFFF8
FFFFE00000000000003FFFF8
FFFFE00000000000003FFFF8
FFFFE00000000000003FFFF8
FFFFE00000000000003FFFF8
FFFFE00000000000003FFFF8
FFFFE00000000000003FFFF8
FFFFE00000000000003FFFF8
FFFFE00000000000003FFFF8
FFFFE00000000000003FFFF8
FFFFE00000000000003FFFF8
FFFFFFFFFFFFFFFFFFFFFFF8
FFFFFFFFFFFFFFFFFFFFFFF8
FFFFFFFFFFFFFFFFFFFFFFF0
FFFFFFFFFFFFFFFFFFFFFFF0
FFFFFFFFFFFFFFFFFFFFFFF0
FFFFFFFFFFFFFFFFFFFFFFF0
7FFFFFFFFFFFFFFFFFFFFFF0
7FFFFFFFFFFFFFFFFFFFFFE0
7FFFFFFFFFFFFFFFFFFFFFE0
3FFFFFFFFFFFFFFFFFFFFFC0
3FFFFFFFFFFFFFFFFFFFFFC0
1FFFFFFFFFFFFFFFFFFFFF80
0FFFFFFFFFFFFFFFFFFFFF00
07FFFFFFFFFFFFFFFFFFFF00
03FFFFFFFFFFFFFFFFFFFE00
01FFFFFFFFFFFFFFFFFFF800
007FFFFFFFFFFFFFFFFFF000
001FFFFFFFFFFFFFFFFFC000
0003FFFFFFFFFFFFFFFE0000
ENDCHAR
STARTCHAR 0056
ENCODING 86
SWIDTH 637 0
DWIDTH 102 0
BBX 93 121 5 0
BITMAP
FFFFF00000000000003FFFF8
7FFFF00000000000007FFFF8
7FFFF00000000000007FFFF0
7FFFF00000000000007FFFF0
3FFFF8000000000000FFFFF0
3FFFF8000000000000FFFFE0
3FFFF8000000000000FFFFE0
3FFFFC000000000000FFFFE0
1FFFFC000000000001FFFFC0
1FFFFC000000000001FFFFC0
1FFFFC000000000001FFFFC0
0FFFFE000000000003FFFFC0
0FFFFE000000000003FFFF80
0FFFFE000000000003FFFF80
07FFFF000000000003FFFF80
07FFFF000000000007FFFF00
07FFFF000000000007FFFF00
07FFFF000000000007FFFF00
03FFFF800000000007FFFE00
03FFFF80000000000FFFFE00
03FFFF80000000000FFFFE00
01FFFFC0000000000FFFFC00
01FFFFC0000000001FFFFC00
01FFFFC0000000001FFFFC00
00FFFFC0000000001FFFFC00
00FFFFE0000000001FFFF800
00FFFFE0000000003FFFF800
007FFFE0000000003FFFF800
007FFFE0000000003FFFF000
007FFFF0000000007FFFF000
007FFFF0000000007FFFF000
003FFFF0000000007FFFE000
003FFFF8000000007FFFE000
003FFFF800000000FFFFE000
001FFFF800000000FFFFE000
001FFFF800000000FFFFC000
001FFFFC00000000FFFFC000
000FFFFC00000001FFFFC000
000FFFFC00000001FFFF8000
000FFFFE00000001FFFF8000
0007FFFE00000003FFFF8000
0007FFFE00000003FFFF0000
0007FFFE00000003FFFF0000
0007FFFF00000003FFFF0000
0003FFFF00000007FFFE0000
0003FFFF00000007FFFE0000
0003FFFF80000007FFFE0000
0001FFFF8000000FFFFE0000
0001FFFF8000000FFFFC0000
0001FFFF8000000FFFFC0000
0000FFFFC000000FFFFC0000
0000FFFFC000001FFFF80000
0000FFFFC000001FFFF80000
00007FFFE000001FFFF80000
00007FFFE000003FFFF00000
00007FFFE000003FFFF00000
00007FFFE000003FFFF00000
00003FFFF000003FFFE00000
00003FFFF000007FFFE00000
00003FFFF000007FFFE00000
00001FFFF000007FFFE00000
00001FFFF800007FFFC00000
00001FFFF80000FFFFC00000
00000FFFF80000FFFFC00000
00000FFFFC0000FFFF800000
00000FFFFC0001FFFF800000
000007FFFC0001FFFF800000
000007FFFC0001FFFF000000
000007FFFE0001FFFF000000
000007FFFE0003FFFF000000
000003FFFE0003FFFE000000
000003FFFF0003FFFE000000
000003FFFF0007FFFE000000
000001FFFF0007FFFE000000
000001FFFF0007FFFC000000
000001FFFF8007FFFC000000
000000FFFF800FFFFC000000
000000FFFF800FFFF8000000
000000FFFFC00FFFF8000000
0000007FFFC00FFFF8000000
0000007FFFC01FFFF0000000
0000007FFFC01FFFF0000000
0000007FFFE01FFFF0000000
0000003FFFE03FFFE0000000
0000003FFFE03FFFE0000000
0000003FFFF03FFFE0000000
0000001FFFF03FFFE0000000
0000001FFFF07FFFC0000000
0000001FFFF07FFFC0000000
0000000FFFF87FFFC0000000
0000000FFFF8FFFF80000000
0000000FFFF8FFFF80000000
0000000FFFF8FFFF80000000
00000007FFFCFFFF00000000
00000007FFFDFFFF00000000
00000007FFFDFFFF00000000
00000003FFFFFFFE00000000
00000003FFFFFFFE00000000
00000003FFFFFFFE00000000
00000001FFFFFFFE00000000
00000001FFFFFFFC00000000
00000001FFFFFFFC00000000
00000000FFFFFFFC00000000
00000000FFFFFFF800000000
00000000FFFFFFF800000000
00000000FFFFFFF800000000
000000007FFFFFF000000000
000000007FFFFFF000000000
000000007FFFFFF000000000
000000003FFFFFE000000000
000000003FFFFFE000000000
000000003FFFFFE000000000
000000001FFFFFE000000000
000000001FFFFFC000000000
000000001FFFFFC000000000
000000000FFFFFC000000000
000000000FFFFF8000000000
000000000FFFFF8000000000
000000000FFFFF8000000000
0000000007FFFF0000000000
0000000007FFFF0000000000
ENDCHAR
STARTCHAR 0057
ENCODING 87
SWIDTH 981 0
DWIDTH 157 0
BBX 148 121 4 0
BITMAP
FFFFF000000000001FFF8000000000007FFFF0
FFFFF000000000001FFFC000000000007FFFF0
7FFFF000000000001FFFC000000000007FFFF0
7FFFF000000000001FFFC00000000000FFFFF0
7FFFF800000000003FFFC00000000000FFFFE0
3FFFF800000000003FFFC00000000000FFFFE0
3FFFF800000000003FFFE00000000000FFFFE0
3FFFF800000000003FFFE00000000001FFFFC0
1FFFFC00000000007FFFE00000000001FFFFC0
1FFFFC00000000007FFFE00000000001FFFFC0
1FFFFC00000000007FFFF00000000003FFFF80
0FFFFE00000000007FFFF00000000003FFFF80
0FFFFE00000000007FFFF00000000003FFFF80
0FFFFE0000000000FFFFF00000000003FFFF80
0FFFFE0000000000FFFFF00000000007FFFF00
07FFFF0000000000FFFFF80000000007FFFF00
07FFFF0000000000FFFFF80000000007FFFF00
07FFFF0000000000FFFFF80000000007FFFE00
03FFFF8000000001FFFFF8000000000FFFFE00
03FFFF8000000001FFFFFC000000000FFFFE00
03FFFF8000000001FFFFFC000000000FFFFC00
01FFFF8000000001FFFFFC000000001FFFFC00
01FFFFC000000003FFFFFC000000001FFFFC00
01FFFFC000000003FFFFFC000000001FFFF800
00FFFFC000000003FFFFFE000000001FFFF800
00FFFFC000000003FFFFFE000000003FFFF800
00FFFFE000000003FFFFFE000000003FFFF800
00FFFFE000000007FFFFFE000000003FFFF000
007FFFE000000007FFFFFE000000007FFFF000
007FFFF000000007FFFFFF000000007FFFF000
007FFFF000000007FFFFFF000000007FFFE000
003FFFF000000007FFFFFF000000007FFFE000
003FFFF00000000FFFFFFF00000000FFFFE000
003FFFF80000000FFFFFFF80000000FFFFC000
001FFFF80000000FFFFFFF80000000FFFFC000
001FFFF80000000FFFFFFF80000001FFFFC000
001FFFFC0000001FFFFFFF80000001FFFF8000
000FFFFC0000001FFFFFFF80000001FFFF8000
000FFFFC0000001FFFFFFFC0000001FFFF8000
000FFFFC0000001FFFFFFFC0000003FFFF8000
000FFFFE0000001FFFFFFFC0000003FFFF0000
0007FFFE0000003FFFFFFFC0000003FFFF0000
0007FFFE0000003FFFFFFFC0000007FFFF0000
0007FFFF0000003FFFDFFFE0000007FFFE0000
0003FFFF0000003FFFDFFFE0000007FFFE0000
0003FFFF0000007FFFDFFFE0000007FFFE0000
0003FFFF0000007FFF9FFFE000000FFFFC0000
0001FFFF8000007FFF8FFFF000000FFFFC0000
0001FFFF8000007FFF8FFFF000000FFFFC0000
0001FFFF8000007FFF8FFFF000000FFFF80000
0001FFFF800000FFFF0FFFF000001FFFF80000
0000FFFFC00000FFFF07FFF000001FFFF80000
0000FFFFC00000FFFF07FFF800001FFFF80000
0000FFFFC00000FFFF07FFF800003FFFF00000
00007FFFE00000FFFF07FFF800003FFFF00000
00007FFFE00001FFFE03FFF800003FFFF00000
00007FFFE00001FFFE03FFFC00003FFFE00000
00003FFFE00001FFFE03FFFC00007FFFE00000
00003FFFF00001FFFE03FFFC00007FFFE00000
00003FFFF00003FFFC03FFFC00007FFFC00000
00001FFFF00003FFFC01FFFC0000FFFFC00000
00001FFFF80003FFFC01FFFE0000FFFFC00000
00001FFFF80003FFFC01FFFE0000FFFF800000
00001FFFF80003FFF801FFFE0000FFFF800000
00000FFFF80007FFF800FFFE0001FFFF800000
00000FFFFC0007FFF800FFFE0001FFFF800000
00000FFFFC0007FFF800FFFF0001FFFF000000
000007FFFC0007FFF000FFFF0003FFFF000000
000007FFFC0007FFF0007FFF0003FFFF000000
000007FFFE000FFFF0007FFF0003FFFE000000
000003FFFE000FFFF0007FFF8003FFFE000000
000003FFFE000FFFE0007FFF8007FFFE000000
000003FFFF000FFFE0003FFF8007FFFC000000
000001FFFF001FFFE0003FFF8007FFFC000000
000001FFFF001FFFE0003FFF800FFFFC000000
000001FFFF001FFFE0003FFFC00FFFF8000000
000001FFFF801FFFC0003FFFC00FFFF8000000
000000FFFF801FFFC0001FFFC00FFFF8000000
000000FFFF803FFFC0001FFFC01FFFF8000000
000000FFFFC03FFFC0001FFFC01FFFF0000000
0000007FFFC03FFF80001FFFE01FFFF0000000
0000007FFFC03FFF80000FFFE01FFFF0000000
0000007FFFC07FFF80000FFFE03FFFE0000000
0000003FFFE07FFF80000FFFE03FFFE0000000
0000003FFFE07FFF00000FFFF03FFFE0000000
0000003FFFE07FFF000007FFF07FFFC0000000
0000001FFFF07FFF000007FFF07FFFC0000000
0000001FFFF0FFFF000007FFF07FFFC0000000
0000001FFFF0FFFE000007FFF07FFF80000000
0000001FFFF0FFFE000003FFF8FFFF80000000
0000000FFFF8FFFE000003FFF8FFFF80000000
0000000FFFF8FFFE000003FFF8FFFF80000000
0000000FFFF9FFFC000003FFF9FFFF00000000
00000007FFF9FFFC000003FFFDFFFF00000000
00000007FFFDFFFC000001FFFDFFFF00000000
00000007FFFDFFFC000001FFFDFFFE00000000
00000003FFFFFFFC000001FFFFFFFE00000000
00000003FFFFFFF8000001FFFFFFFE00000000
00000003FFFFFFF8000000FFFFFFFC00000000
00000001FFFFFFF8000000FFFFFFFC00000000
00000001FFFFFFF8000000FFFFFFFC00000000
00000001FFFFFFF0000000FFFFFFFC00000000
00000001FFFFFFF00000007FFFFFF800000000
00000000FFFFFFF00000007FFFFFF800000000
00000000FFFFFFF00000007FFFFFF800000000
00000000FFFFFFE00000007FFFFFF000000000
000000007FFFFFE00000003FFFFFF000000000
000000007FFFFFE00000003FFFFFF000000000
000000007FFFFFE00000003FFFFFE000000000
000000003FFFFFC00000003FFFFFE000000000
000000003FFFFFC00000003FFFFFE000000000
000000003FFFFFC00000001FFFFFC000000000
000000001FFFFFC00000001FFFFFC000000000
000000001FFFFF800000001FFFFFC000000000
000000001FFFFF800000001FFFFFC000000000
000000001FFFFF800000000FFFFF8000000000
000000000FFFFF800000000FFFFF8000000000
000000000FFFFF800000000FFFFF8000000000
000000000FFFFF000000000FFFFF0000000000
0000000007FFFF0000000007FFFF0000000000
0000000007FFFF0000000007FFFF0000000000
ENDCHAR
STARTCHAR 0058
ENCODING 88
SWIDTH 768 0
DWIDTH 123 0
BBX 111 121 6 0
BITMAP
FFFFFC00000000000000007FFFFE
7FFFFE0000000000000000FFFFFC
7FFFFF0000000000000001FFFFF8
3FFFFF0000000000000003FFFFF8
1FFFFF8000000000000003FFFFF0
0FFFFFC000000000000007FFFFE0
0FFFFFE00000000000000FFFFFC0
07FFFFE00000000000000FFFFFC0
03FFFFF00000000000001FFFFF80
01FFFFF80000000000003FFFFF00
01FFFFF80000000000007FFFFE00
00FFFFFC0000000000007FFFFE00
007FFFFE000000000000FFFFFC00
003FFFFF000000000001FFFFF800
003FFFFF000000000001FFFFF000
001FFFFF800000000003FFFFF000
000FFFFFC00000000007FFFFE000
0007FFFFC0000000000FFFFFC000
0007FFFFE0000000000FFFFF8000
0003FFFFF0000000001FFFFF8000
0001FFFFF8000000003FFFFF0000
0000FFFFF8000000003FFFFE0000
0000FFFFFC000000007FFFFC0000
00007FFFFE00000000FFFFFC0000
00003FFFFE00000000FFFFF80000
00001FFFFF00000001FFFFF00000
00001FFFFF80000003FFFFE00000
00000FFFFF80000007FFFFE00000
000007FFFFC0000007FFFFC00000
000003FFFFE000000FFFFF800000
000003FFFFF000001FFFFF000000
000001FFFFF000001FFFFF000000
000000FFFFF800003FFFFE000000
0000007FFFFC00007FFFFC000000
0000007FFFFC0000FFFFF8000000
0000003FFFFE0000FFFFF8000000
0000001FFFFF0001FFFFF0000000
0000000FFFFF8003FFFFE0000000
0000000FFFFF8003FFFFC0000000
00000007FFFFC007FFFFC0000000
00000003FFFFE00FFFFF80000000
00000001FFFFE01FFFFF00000000
00000001FFFFF01FFFFF00000000
00000000FFFFF83FFFFE00000000
000000007FFFFC7FFFFC00000000
000000003FFFFC7FFFF800000000
000000003FFFFEFFFFF800000000
000000001FFFFFFFFFF000000000
000000000FFFFFFFFFE000000000
0000000007FFFFFFFFC000000000
0000000007FFFFFFFFC000000000
0000000003FFFFFFFF8000000000
0000000001FFFFFFFF0000000000
0000000000FFFFFFFE0000000000
0000000000FFFFFFFE0000000000
00000000007FFFFFFC0000000000
00000000003FFFFFF80000000000
00000000001FFFFFF00000000000
00000000001FFFFFF00000000000
00000000000FFFFFE00000000000
00000000000FFFFFE00000000000
00000000001FFFFFF00000000000
00000000003FFFFFF80000000000
00000000003FFFFFF80000000000
00000000007FFFFFFC0000000000
0000000000FFFFFFFE0000000000
0000000001FFFFFFFF0000000000
0000000001FFFFFFFF0000000000
0000000003FFFFFFFF8000000000
0000000007FFFFFFFFC000000000
000000000FFFFFFFFFC000000000
000000000FFFFFFFFFE000000000
000000001FFFFEFFFFF000000000
000000003FFFFCFFFFF800000000
000000007FFFFC7FFFF800000000
000000007FFFF83FFFFC00000000
00000000FFFFF03FFFFE00000000
00000001FFFFF01FFFFF00000000
00000001FFFFE00FFFFF00000000
00000003FFFFC007FFFF80000000
00000007FFFFC007FFFFC0000000
0000000FFFFF8003FFFFC0000000
0000000FFFFF0001FFFFE0000000
0000001FFFFF0001FFFFF0000000
0000003FFFFE0000FFFFF8000000
0000007FFFFC00007FFFF8000000
0000007FFFFC00007FFFFC000000
000000FFFFF800003FFFFE000000
000001FFFFF000001FFFFF000000
000001FFFFF000001FFFFF000000
000003FFFFE000000FFFFF800000
000007FFFFC0000007FFFFC00000
00000FFFFF80000007FFFFC00000
00000FFFFF80000003FFFFE00000
00001FFFFF00000001FFFFF00000
00003FFFFE00000001FFFFF80000
00007FFFFE00000000FFFFF80000
00007FFFFC000000007FFFFC0000
0000FFFFF8000000003FFFFE0000
0001FFFFF8000000003FFFFE0000
0001FFFFF0000000001FFFFF0000
0003FFFFE0000000000FFFFF8000
0007FFFFE0000000000FFFFFC000
000FFFFFC00000000007FFFFC000
000FFFFF800000000003FFFFE000
001FFFFF800000000003FFFFF000
003FFFFF000000000001FFFFF800
007FFFFE000000000000FFFFF800
007FFFFE000000000000FFFFFC00
00FFFFFC0000000000007FFFFE00
01FFFFF80000000000003FFFFE00
01FFFFF80000000000003FFFFF00
03FFFFF00000000000001FFFFF80
07FFFFE00000000000000FFFFFC0
0FFFFFC00000000000000FFFFFC0
0FFFFFC000000000000007FFFFE0
1FFFFF8000000000000003FFFFF0
3FFFFF0000000000000003FFFFF8
7FFFFF0000000000000001FFFFF8
7FFFFE0000000000000000FFFFFC
FFFFFC00000000000000007FFFFE
ENDCHAR
STARTCHAR 0059
ENCODING 89
SWIDTH 656 0
DWIDTH 105 0
BBX 93 121 6 0
BITMAP
FFFFF00000000000003FFFF8
7FFFF00000000000007FFFF0
7FFFF80000000000007FFFF0
3FFFF8000000000000FFFFE0
3FFFFC000000000000FFFFE0
1FFFFC000000000001FFFFC0
1FFFFE000000000001FFFFC0
0FFFFE000000000003FFFF80
07FFFF000000000003FFFF80
07FFFF000000000007FFFF00
03FFFF800000000007FFFF00
03FFFF80000000000FFFFE00
01FFFFC0000000000FFFFE00
01FFFFC0000000001FFFFC00
00FFFFE0000000001FFFF800
00FFFFE0000000003FFFF800
007FFFF0000000003FFFF000
007FFFF0000000007FFFF000
003FFFF8000000007FFFE000
003FFFF800000000FFFFE000
001FFFFC00000000FFFFC000
001FFFFC00000001FFFFC000
000FFFFE00000001FFFF8000
000FFFFE00000003FFFF8000
0007FFFF00000003FFFF0000
0007FFFF00000007FFFF0000
0003FFFF80000007FFFE0000
0003FFFF8000000FFFFE0000
0001FFFFC000000FFFFC0000
0000FFFFC000001FFFFC0000
0000FFFFE000001FFFF80000
00007FFFE000003FFFF80000
00007FFFF000003FFFF00000
00003FFFF000007FFFF00000
00003FFFF800007FFFE00000
00001FFFF80000FFFFC00000
00001FFFFC0000FFFFC00000
00000FFFFC0001FFFF800000
00000FFFFE0001FFFF800000
000007FFFE0003FFFF000000
000007FFFE0003FFFF000000
000003FFFF0007FFFE000000
000003FFFF0007FFFE000000
000001FFFF800FFFFC000000
000001FFFF800FFFFC000000
000000FFFFC01FFFF8000000
000000FFFFC01FFFF8000000
0000007FFFE03FFFF0000000
0000007FFFE03FFFF0000000
0000003FFFF07FFFE0000000
0000001FFFF07FFFE0000000
0000001FFFF8FFFFC0000000
0000000FFFF8FFFFC0000000
0000000FFFFDFFFF80000000
00000007FFFDFFFF80000000
00000007FFFFFFFF00000000
00000003FFFFFFFE00000000
00000003FFFFFFFE00000000
00000001FFFFFFFC00000000
00000001FFFFFFFC00000000
00000000FFFFFFF800000000
00000000FFFFFFF800000000
000000007FFFFFF000000000
000000007FFFFFF000000000
000000003FFFFFE000000000
000000003FFFFFE000000000
000000001FFFFFC000000000
000000001FFFFFC000000000
000000000FFFFF8000000000
000000000FFFFF8000000000
0000000007FFFF0000000000
0000000007FFFF0000000000
0000000007FFFF0000000000
0000000007FFFF0000000000
0000000007FFFF0000000000
0000000007FFFF0000000000
0000000007FFFF0000000000
0000000007FFFF0000000000
0000000007FFFF0000000000
0000000007FFFF0000000000
0000000007FFFF0000000000
0000000007FFFF0000000000
0000000007FFFF0000000000
0000000007FFFF0000000000
0000000007FFFF0000000000
0000000007FFFF0000000000
0000000007FFFF0000000000
0000000007FFFF0000000000
0000000007FFFF0000000000
0000000007FFFF0000000000
0000000007FFFF0000000000
0000000007FFFF0000000000
0000000007FFFF0000000000
0000000007FFFF0000000000
0000000007FFFF0000000000
0000000007FFFF0000000000
0000000007FFFF0000000000
0000000007FFFF0000000000
0000000007FFFF0000000000
0000000007FFFF0000000000
0000000007FFFF0000000000
0000000007FFFF0000000000
0000000007FFFF0000000000
0000000007FFFF0000000000
0000000007FFFF0000000000
0000000007FFFF0000000000
0000000007FFFF0000000000
0000000007FFFF0000000000
0000000007FFFF0000000000
0000000007FFFF0000000000
0000000007FFFF0000000000
0000000007FFFF0000000000
0000000007FFFF0000000000
0000000007FFFF0000000000
0000000007FFFF0000000000
0000000007FFFF0000000000
0000000007FFFF0000000000
0000000007FFFF0000000000
0000000007FFFF0000000000
0000000007FFFF0000000000
0000000007FFFF0000000000
ENDCHAR
STARTCHAR 005A
ENCODING 90
SWIDTH 662 0
DWIDTH 106 0
BBX 93 121 7 0
BITMAP
FFFFFFFFFFFFFFFFFFFFFFF8
FFFFFFFFFFFFFFFFFFFFFFF8
FFFFFFFFFFFFFFFFFFFFFFF8
FFFFFFFFFFFFFFFFFFFFFFF8
FFFFFFFFFFFFFFFFFFFFFFF8
FFFFFFFFFFFFFFFFFFFFFFF8
FFFFFFFFFFFFFFFFFFFFFFF8
FFFFFFFFFFFFFFFFFFFFFFF8
FFFFFFFFFFFFFFFFFFFFFFF8
FFFFFFFFFFFFFFFFFFFFFFF8
FFFFFFFFFFFFFFFFFFFFFFF0
FFFFFFFFFFFFFFFFFFFFFFE0
FFFFFFFFFFFFFFFFFFFFFFE0
FFFFFFFFFFFFFFFFFFFFFFC0
FFFFFFFFFFFFFFFFFFFFFF80
FFFFFFFFFFFFFFFFFFFFFF00
FFFFFFFFFFFFFFFFFFFFFF00
FFFFFFFFFFFFFFFFFFFFFE00
FFFFFFFFFFFFFFFFFFFFFC00
0000000000000000FFFFFC00
0000000000000000FFFFF800
0000000000000001FFFFF000
0000000000000003FFFFE000
0000000000000003FFFFE000
0000000000000007FFFFC000
000000000000000FFFFF8000
000000000000000FFFFF8000
000000000000001FFFFF0000
000000000000003FFFFE0000
000000000000007FFFFE0000
000000000000007FFFFC0000
00000000000000FFFFF80000
00000000000001FFFFF00000
00000000000001FFFFF00000
00000000000003FFFFE00000
00000000000007FFFFC00000
00000000000007FFFFC00000
0000000000000FFFFF800000
0000000000001FFFFF000000
0000000000003FFFFE000000
0000000000003FFFFE000000
0000000000007FFFFC000000
000000000000FFFFF8000000
000000000000FFFFF8000000
000000000001FFFFF0000000
000000000003FFFFE0000000
000000000007FFFFE0000000
000000000007FFFFC0000000
00000000000FFFFF80000000
00000000001FFFFF00000000
00000000001FFFFF00000000
00000000003FFFFE00000000
00000000007FFFFC00000000
00000000007FFFFC00000000
0000000000FFFFF800000000
0000000001FFFFF000000000
0000000003FFFFF000000000
0000000003FFFFE000000000
0000000007FFFFC000000000
000000000FFFFF8000000000
000000000FFFFF8000000000
000000001FFFFF0000000000
000000003FFFFE0000000000
000000003FFFFE0000000000
000000007FFFFC0000000000
00000000FFFFF80000000000
00000001FFFFF00000000000
00000001FFFFF00000000000
00000003FFFFE00000000000
00000007FFFFC00000000000
00000007FFFFC00000000000
0000000FFFFF800000000000
0000001FFFFF000000000000
0000003FFFFF000000000000
0000003FFFFE000000000000
0000007FFFFC000000000000
000000FFFFF8000000000000
000000FFFFF8000000000000
000001FFFFF0000000000000
000003FFFFE0000000000000
000003FFFFE0000000000000
000007FFFFC0000000000000
00000FFFFF80000000000000
00001FFFFF00000000000000
00001FFFFF00000000000000
00003FFFFE00000000000000
00007FFFFC00000000000000
00007FFFFC00000000000000
0000FFFFF800000000000000
0001FFFFF000000000000000
0001FFFFF000000000000000
0003FFFFE000000000000000
0007FFFFC000000000000000
000FFFFF8000000000000000
000FFFFF8000000000000000
001FFFFF0000000000000000
003FFFFE0000000000000000
003FFFFE0000000000000000
007FFFFC0000000000000000
00FFFFF80000000000000000
00FFFFF00000000000000000
01FFFFF00000000000000000
03FFFFFFFFFFFFFFFFFFFFF8
07FFFFFFFFFFFFFFFFFFFFF8
07FFFFFFFFFFFFFFFFFFFFF8
0FFFFFFFFFFFFFFFFFFFFFF8
1FFFFFFFFFFFFFFFFFFFFFF8
1FFFFFFFFFFFFFFFFFFFFFF8
3FFFFFFFFFFFFFFFFFFFFFF8
7FFFFFFFFFFFFFFFFFFFFFF8
FFFFFFFFFFFFFFFFFFFFFFF8
FFFFFFFFFFFFFFFFFFFFFFF8
FFFFFFFFFFFFFFFFFFFFFFF8
FFFFFFFFFFFFFFFFFFFFFFF8
FFFFFFFFFFFFFFFFFFFFFFF8
FFFFFFFFFFFFFFFFFFFFFFF8
FFFFFFFFFFFFFFFFFFFFFFF8
FFFFFFFFFFFFFFFFFFFFFFF8
FFFFFFFFFFFFFFFFFFFFFFF8
FFFFFFFFFFFFFFFFFFFFFFF8
FFFFFFFFFFFFFFFFFFFFFFF8
ENDCHAR
STARTCHAR 005B
ENCODING 91
SWIDTH 300 0
DWIDTH 48 0
BBX 37 143 6 -19
BITMAP
FFFFFFFFF8
FFFFFFFFF8
FFFFFFFFF8
FFFFFFFFF8
FFFFFFFFF8
FFFFFFFFF8
FFFFFFFFF8
FFFFFFFFF8
FFFFFFFFF8
FFFFFFFFF8
FFFFFFFFF8
FFFFFFFFF8
FFFFFFFFF8
FFFFFFFFF8
FFFFFFFFF8
FFFFFFFFF8
FFFFFFFFF8
FFFFFFFFF8
FFFFFFFFF8
FFFFE00000
FFFFE00000
FFFFE00000
FFFFE00000
FFFFE00000
FFFFE00000
FFFFE00000
FFFFE00000
FFFFE00000
FFFFE00000
FFFFE00000
FFFFE00000
FFFFE00000
FFFFE00000
FFFFE00000
FFFFE00000
FFFFE00000
FFFFE00000
FFFFE00000
FFFFE00000
FFFFE00000
FFFFE00000
FFFFE00000
FFFFE00000
FFFFE00000
FFFFE00000
FFFFE00000
FFFFE00000
FFFFE00000
FFFFE00000
FFFFE00000
FFFFE00000
FFFFE00000
FFFFE00000
FFFFE00000
FFFFE00000
FFFFE00000
FFFFE00000
FFFFE00000
FFFFE00000
FFFFE00000
FFFFE00000
FFFFE00000
FFFFE00000
FFFFE00000
FFFFE00000
FFFFE00000
FFFFE00000
FFFFE00000
FFFFE00000
FFFFE00000
FFFFE00000
FFFFE00000
FFFFE00000
FFFFE00000
FFFFE00000
FFFFE00000
FFFFE00000
FFFFE00000
FFFFE00000
FFFFE00000
FFFFE00000
FFFFE00000
FFFFE00000
FFFFE00000
FFFFE00000
FFFFE00000
FFFFE00000
FFFFE00000
FFFFE00000
FFFFE00000
FFFFE00000
FFFFE00000
FFFFE00000
FFFFE00000
FFFFE00000
FFFFE00000
FFFFE00000
FFFFE00000
FFFFE00000
FFFFE00000
FFFFE00000
FFFFE00000
FFFFE00000
FFFFE00000
FFFFE00000
FFFFE00000
FFFFE00000
FFFFE00000
FFFFE00000
FFFFE00000
FFFFE00000
FFFFE00000
FFFFE00000
FFFFE00000
FFFFE00000
FFFFE00000
FFFFE00000
FFFFE00000
FFFFE00000
FFFFE00000
FFFFE00000
FFFFE00000
FFFFE00000
FFFFE00000
FFFFFFFFF8
FFFFFFFFF8
FFFFFFFFF8
FFFFFFFFF8
FFFFFFFFF8
FFFFFFFFF8
FFFFFFFFF8
FFFFFFFFF8
FFFFFFFFF8
FFFFFFFFF8
FFFFFFFFF8
FFFFFFFFF8
FFFFFFFFF8
FFFFFFFFF8
FFFFFFFFF8
FFFFFFFFF8
FFFFFFFFF8
FFFFFFFFF8
FFFFFFFFF8
ENDCHAR
STARTCHAR 005C
ENCODING 92
SWIDTH 512 0
DWIDTH 82 0
BBX 76 123 3 0
BITMAP
FFFE0000000000000000
FFFE0000000000000000
7FFF0000000000000000
7FFF0000000000000000
3FFF8000000000000000
1FFF8000000000000000
1FFFC000000000000000
0FFFC000000000000000
0FFFE000000000000000
07FFE000000000000000
07FFF000000000000000
03FFF000000000000000
03FFF800000000000000
01FFF800000000000000
01FFFC00000000000000
00FFFC00000000000000
00FFFE00000000000000
007FFE00000000000000
007FFF00000000000000
003FFF00000000000000
003FFF80000000000000
001FFF80000000000000
001FFFC0000000000000
000FFFC0000000000000
000FFFE0000000000000
0007FFE0000000000000
0007FFF0000000000000
0003FFF0000000000000
0003FFF8000000000000
0001FFF8000000000000
0001FFFC000000000000
0000FFFC000000000000
0000FFFE000000000000
00007FFE000000000000
00007FFF000000000000
00003FFF000000000000
00003FFF800000000000
00001FFF800000000000
00001FFFC00000000000
00000FFFC00000000000
00000FFFE00000000000
000007FFE00000000000
000007FFF00000000000
000003FFF00000000000
000003FFF80000000000
000001FFF80000000000
000001FFFC0000000000
000000FFFC0000000000
000000FFFE0000000000
0000007FFE0000000000
0000007FFF0000000000
0000003FFF0000000000
0000003FFF8000000000
0000001FFF8000000000
0000001FFFC000000000
0000000FFFC000000000
0000000FFFE000000000
00000007FFE000000000
00000007FFF000000000
00000003FFF000000000
00000003FFF800000000
00000001FFF800000000
00000001FFFC00000000
00000000FFFC00000000
00000000FFFE00000000
000000007FFF00000000
000000007FFF00000000
000000003FFF80000000
000000003FFF80000000
000000001FFFC0000000
000000001FFFC0000000
000000000FFFE0000000
0000000007FFE0000000
0000000007FFF0000000
0000000003FFF0000000
0000000003FFF8000000
0000000001FFF8000000
0000000001FFFC000000
0000000000FFFC000000
0000000000FFFE000000
00000000007FFE000000
00000000007FFF000000
00000000003FFF000000
00000000003FFF800000
00000000001FFF800000
00000000001FFFC00000
00000000000FFFC00000
00000000000FFFE00000
000000000007FFE00000
000000000007FFF00000
000000000003FFF00000
000000000003FFF80000
000000000001FFF80000
000000000001FFFC0000
000000000000FFFC0000
000000000000FFFE0000
0000000000007FFE0000
0000000000007FFF0000
0000000000003FFF0000
0000000000003FFF8000
0000000000001FFF8000
0000000000001FFFC000
0000000000000FFFC000
0000000000000FFFE000
00000000000007FFE000
00000000000007FFF000
00000000000003FFF000
00000000000003FFF800
00000000000001FFF800
00000000000001FFFC00
00000000000000FFFC00
00000000000000FFFE00
000000000000007FFE00
000000000000007FFF00
000000000000003FFF00
000000000000003FFF80
000000000000001FFF80
000000000000001FFFC0
000000000000000FFFC0
000000000000000FFFE0
0000000000000007FFE0
0000000000000007FFF0
0000000000000003FFF0
ENDCHAR
STARTCHAR 005D
ENCODING 93
SWIDTH 350 0
DWIDTH 56 0
BBX 37 143 9 -19
BITMAP
FFFFFFFFF8
FFFFFFFFF8
FFFFFFFFF8
FFFFFFFFF8
FFFFFFFFF8
FFFFFFFFF8
FFFFFFFFF8
FFFFFFFFF8
FFFFFFFFF8
FFFFFFFFF8
FFFFFFFFF8
FFFFFFFFF8
FFFFFFFFF8
FFFFFFFFF8
FFFFFFFFF8
FFFFFFFFF8
FFFFFFFFF8
FFFFFFFFF8
FFFFFFFFF8
00003FFFF8
00003FFFF8
00003FFFF8
00003FFFF8
00003FFFF8
00003FFFF8
00003FFFF8
00003FFFF8
00003FFFF8
00003FFFF8
00003FFFF8
00003FFFF8
00003FFFF8
00003FFFF8
00003FFFF8
00003FFFF8
00003FFFF8
00003FFFF8
00003FFFF8
00003FFFF8
00003FFFF8
00003FFFF8
00003FFFF8
00003FFFF8
00003FFFF8
00003FFFF8
00003FFFF8
00003FFFF8
00003FFFF8
00003FFFF8
00003FFFF8
00003FFFF8
00003FFFF8
00003FFFF8
00003FFFF8
00003FFFF8
00003FFFF8
00003FFFF8
00003FFFF8
00003FFFF8
00003FFFF8
00003FFFF8
00003FFFF8
00003FFFF8
00003FFFF8
00003FFFF8
00003FFFF8
00003FFFF8
00003FFFF8
00003FFFF8
00003FFFF8
00003FFFF8
00003FFFF8
00003FFFF8
00003FFFF8
00003FFFF8
00003FFFF8
00003FFFF8
00003FFFF8
00003FFFF8
00003FFFF8
00003FFFF8
00003FFFF8
00003FFFF8
00003FFFF8
00003FFFF8
00003FFFF8
00003FFFF8
00003FFFF8
00003FFFF8
00003FFFF8
00003FFFF8
00003FFFF8
00003FFFF8
00003FFFF8
00003FFFF8
00003FFFF8
00003FFFF8
00003FFFF8
00003FFFF8
00003FFFF8
00003FFFF8
00003FFFF8
00003FFFF8
00003FFFF8
00003FFFF8
00003FFFF8
00003FFFF8
00003FFFF8
00003FFFF8
00003FFFF8
00003FFFF8
00003FFFF8
00003FFFF8
00003FFFF8
00003FFFF8
00003FFFF8
00003FFFF8
00003FFFF8
00003FFFF8
00003FFFF8
00003FFFF8
00003FFFF8
00003FFFF8
00003FFFF8
FFFFFFFFF8
FFFFFFFFF8
FFFFFFFFF8
FFFFFFFFF8
FFFFFFFFF8
FFFFFFFFF8
FFFFFFFFF8
FFFFFFFFF8
FFFFFFFFF8
FFFFFFFFF8
FFFFFFFFF8
FFFFFFFFF8
FFFFFFFFF8
FFFFFFFFF8
FFFFFFFFF8
FFFFFFFFF8
FFFFFFFFF8
FFFFFFFFF8
FFFFFFFFF8
ENDCHAR
STARTCHAR 005F
ENCODING 95
SWIDTH 581 0
DWIDTH 93 0
BBX 93 19 0 -31
BITMAP
FFFFFFFFFFFFFFFFFFFFFFF8
FFFFFFFFFFFFFFFFFFFFFFF8
FFFFFFFFFFFFFFFFFFFFFFF8
FFFFFFFFFFFFFFFFFFFFFFF8
FFFFFFFFFFFFFFFFFFFFFFF8
FFFFFFFFFFFFFFFFFFFFFFF8
FFFFFFFFFFFFFFFFFFFFFFF8
FFFFFFFFFFFFFFFFFFFFFFF8
FFFFFFFFFFFFFFFFFFFFFFF8
FFFFFFFFFFFFFFFFFFFFFFF8
FFFFFFFFFFFFFFFFFFFFFFF8
FFFFFFFFFFFFFFFFFFFFFFF8
FFFFFFFFFFFFFFFFFFFFFFF8
FFFFFFFFFFFFFFFFFFFFFFF8
FFFFFFFFFFFFFFFFFFFFFFF8
FFFFFFFFFFFFFFFFFFFFFFF8
FFFFFFFFFFFFFFFFFFFFFFF8
FFFFFFFFFFFFFFFFFFFFFFF8
FFFFFFFFFFFFFFFFFFFFFFF8
ENDCHAR
STARTCHAR 0060
ENCODING 96
SWIDTH 506 0
DWIDTH 81 0
BBX 29 18 30 102
BITMAP
FFFF8000
7FFF8000
3FFFC000
3FFFE000
1FFFF000
0FFFF000
07FFF800
03FFFC00
01FFFE00
00FFFE00
007FFF00
003FFF80
001FFF80
000FFFC0
0007FFE0
0003FFF0
0001FFF0
0000FFF8
ENDCHAR
STARTCHAR 0061
ENCODING 97
SWIDTH 700 0
DWIDTH 112 0
BBX 93 94 9 0
BITMAP
FFFFFFFFFFFFFFFFFFFE0000
FFFFFFFFFFFFFFFFFFFFC000
FFFFFFFFFFFFFFFFFFFFF000
FFFFFFFFFFFFFFFFFFFFF800
FFFFFFFFFFFFFFFFFFFFFE00
FFFFFFFFFFFFFFFFFFFFFF00
FFFFFFFFFFFFFFFFFFFFFF80
FFFFFFFFFFFFFFFFFFFFFF80
FFFFFFFFFFFFFFFFFFFFFFC0
FFFFFFFFFFFFFFFFFFFFFFE0
FFFFFFFFFFFFFFFFFFFFFFE0
FFFFFFFFFFFFFFFFFFFFFFF0
FFFFFFFFFFFFFFFFFFFFFFF0
FFFFFFFFFFFFFFFFFFFFFFF0
FFFFFFFFFFFFFFFFFFFFFFF8
FFFFFFFFFFFFFFFFFFFFFFF8
FFFFFFFFFFFFFFFFFFFFFFF8
FFFFFFFFFFFFFFFFFFFFFFF8
FFFFFFFFFFFFFFFFFFFFFFF8
0000000000000000003FFFF8
0000000000000000003FFFF8
0000000000000000003FFFF8
0000000000000000003FFFF8
0000000000000000003FFFF8
0000000000000000003FFFF8
0000000000000000003FFFF8
0000000000000000003FFFF8
0000000000000000003FFFF8
0000000000000000003FFFF8
0000000000000000003FFFF8
0000000000000000003FFFF8
0000000000000000003FFFF8
0000000000000000003FFFF8
0000000000000000003FFFF8
0000000000000000003FFFF8
0000000000000000003FFFF8
0000000000000000003FFFF8
0003FFFFFFFFFFFFFFFFFFF8
001FFFFFFFFFFFFFFFFFFFF8
007FFFFFFFFFFFFFFFFFFFF8
01FFFFFFFFFFFFFFFFFFFFF8
03FFFFFFFFFFFFFFFFFFFFF8
07FFFFFFFFFFFFFFFFFFFFF8
0FFFFFFFFFFFFFFFFFFFFFF8
0FFFFFFFFFFFFFFFFFFFFFF8
1FFFFFFFFFFFFFFFFFFFFFF8
3FFFFFFFFFFFFFFFFFFFFFF8
3FFFFFFFFFFFFFFFFFFFFFF8
7FFFFFFFFFFFFFFFFFFFFFF8
7FFFFFFFFFFFFFFFFFFFFFF8
7FFFFFFFFFFFFFFFFFFFFFF8
FFFFFFFFFFFFFFFFFFFFFFF8
FFFFFFFFFFFFFFFFFFFFFFF8
FFFFFFFFFFFFFFFFFFFFFFF8
FFFFFFFFFFFFFFFFFFFFFFF8
FFFFFFFFFFFFFFFFFFFFFFF8
FFFFE00000000000003FFFF8
FFFFE00000000000003FFFF8
FFFFE00000000000003FFFF8
FFFFE00000000000003FFFF8
FFFFE00000000000003FFFF8
FFFFE00000000000003FFFF8
FFFFE00000000000003FFFF8
FFFFE00000000000003FFFF8
FFFFE00000000000003FFFF8
FFFFE00000000000003FFFF8
FFFFE00000000000003FFFF8
FFFFE00000000000003FFFF8
FFFFE00000000000003FFFF8
FFFFE00000000000003FFFF8
FFFFE00000000000003FFFF8
FFFFE00000000000003FFFF8
FFFFE00000000000003FFFF8
FFFFE00000000000003FFFF8
FFFFE00000000000003FFFF8
FFFFFFFFFFFFFFFFFFFFFFF8
FFFFFFFFFFFFFFFFFFFFFFF8
FFFFFFFFFFFFFFFFFFFFFFF8
FFFFFFFFFFFFFFFFFFFFFFF8
FFFFFFFFFFFFFFFFFFFFFFF8
7FFFFFFFFFFFFFFFFFFFFFF8
7FFFFFFFFFFFFFFFFFFFFFF8
7FFFFFFFFFFFFFFFFFFFFFF8
3FFFFFFFFFFFFFFFFFFFFFF8
3FFFFFFFFFFFFFFFFFFFFFF8
1FFFFFFFFFFFFFFFFFFFFFF8
0FFFFFFFFFFFFFFFFFFFFFF8
0FFFFFFFFFFFFFFFFFFFFFF8
07FFFFFFFFFFFFFFFFFFFFF8
03FFFFFFFFFFFFFFFFFFFFF8
00FFFFFFFFFFFFFFFFFFFFF8
007FFFFFFFFFFFFFFFFFFFF8
001FFFFFFFFFFFFFFFFFFFF8
0003FFFFFFFFFFFFFFFFFFF8
ENDCHAR
STARTCHAR 0062
ENCODING 98
SWIDTH 687 0
DWIDTH 110 0
BBX 93 121 8 0
BITMAP
FFFFE0000000000000000000
FFFFE0000000000000000000
FFFFE0000000000000000000
FFFFE0000000000000000000
FFFFE0000000000000000000
FFFFE0000000000000000000
FFFFE0000000000000000000
FFFFE0000000000000000000
FFFFE0000000000000000000
FFFFE0000000000000000000
FFFFE0000000000000000000
FFFFE0000000000000000000
FFFFE0000000000000000000
FFFFE0000000000000000000
FFFFE0000000000000000000
FFFFE0000000000000000000
FFFFE0000000000000000000
FFFFE0000000000000000000
FFFFE0000000000000000000
FFFFE0000000000000000000
FFFFE0000000000000000000
FFFFE0000000000000000000
FFFFE0000000000000000000
FFFFE0000000000000000000
FFFFE0000000000000000000
FFFFE0000000000000000000
FFFFE0000000000000000000
FFFFFFFFFFFFFFFFFFFC0000
FFFFFFFFFFFFFFFFFFFF8000
FFFFFFFFFFFFFFFFFFFFE000
FFFFFFFFFFFFFFFFFFFFF800
FFFFFFFFFFFFFFFFFFFFFC00
FFFFFFFFFFFFFFFFFFFFFE00
FFFFFFFFFFFFFFFFFFFFFF00
FFFFFFFFFFFFFFFFFFFFFF80
FFFFFFFFFFFFFFFFFFFFFFC0
FFFFFFFFFFFFFFFFFFFFFFE0
FFFFFFFFFFFFFFFFFFFFFFE0
FFFFFFFFFFFFFFFFFFFFFFF0
FFFFFFFFFFFFFFFFFFFFFFF0
FFFFFFFFFFFFFFFFFFFFFFF0
FFFFFFFFFFFFFFFFFFFFFFF0
FFFFFFFFFFFFFFFFFFFFFFF8
FFFFFFFFFFFFFFFFFFFFFFF8
FFFFFFFFFFFFFFFFFFFFFFF8
FFFFFFFFFFFFFFFFFFFFFFF8
FFFFE00000000000003FFFF8
FFFFE00000000000003FFFF8
FFFFE00000000000003FFFF8
FFFFE00000000000003FFFF8
FFFFE00000000000003FFFF8
FFFFE00000000000003FFFF8
FFFFE00000000000003FFFF8
FFFFE00000000000003FFFF8
FFFFE00000000000003FFFF8
FFFFE00000000000003FFFF8
FFFFE00000000000003FFFF8
FFFFE00000000000003FFFF8
FFFFE00000000000003FFFF8
FFFFE00000000000003FFFF8
FFFFE00000000000003FFFF8
FFFFE00000000000003FFFF8
FFFFE00000000000003FFFF8
FFFFE00000000000003FFFF8
FFFFE00000000000003FFFF8
FFFFE00000000000003FFFF8
FFFFE00000000000003FFFF8
FFFFE00000000000003FFFF8
FFFFE00000000000003FFFF8
FFFFE00000000000003FFFF8
FFFFE00000000000003FFFF8
FFFFE00000000000003FFFF8
FFFFE00000000000003FFFF8
FFFFE00000000000003FFFF8
FFFFE00000000000003FFFF8
FFFFE00000000000003FFFF8
FFFFE00000000000003FFFF8
FFFFE00000000000003FFFF8
FFFFE00000000000003FFFF8
FFFFE00000000000003FFFF8
FFFFE00000000000003FFFF8
FFFFE00000000000003FFFF8
FFFFE00000000000003FFFF8
FFFFE00000000000003FFFF8
FFFFE00000000000003FFFF8
FFFFE00000000000003FFFF8
FFFFE00000000000003FFFF8
FFFFE00000000000003FFFF8
FFFFE00000000000003FFFF8
FFFFE00000000000003FFFF8
FFFFE00000000000003FFFF8
FFFFE00000000000003FFFF8
FFFFE00000000000003FFFF8
FFFFE00000000000003FFFF8
FFFFE00000000000003FFFF8
FFFFE00000000000003FFFF8
FFFFE00000000000003FFFF8
FFFFE00000000000003FFFF8
FFFFE00000000000003FFFF8
FFFFE00000000000003FFFF8
FFFFE00000000000003FFFF8
FFFFE00000000000003FFFF8
FFFFFFFFFFFFFFFFFFFFFFF8
FFFFFFFFFFFFFFFFFFFFFFF8
FFFFFFFFFFFFFFFFFFFFFFF8
FFFFFFFFFFFFFFFFFFFFFFF8
FFFFFFFFFFFFFFFFFFFFFFF0
FFFFFFFFFFFFFFFFFFFFFFF0
FFFFFFFFFFFFFFFFFFFFFFF0
FFFFFFFFFFFFFFFFFFFFFFF0
FFFFFFFFFFFFFFFFFFFFFFE0
FFFFFFFFFFFFFFFFFFFFFFE0
FFFFFFFFFFFFFFFFFFFFFFC0
FFFFFFFFFFFFFFFFFFFFFF80
FFFFFFFFFFFFFFFFFFFFFF80
FFFFFFFFFFFFFFFFFFFFFF00
FFFFFFFFFFFFFFFFFFFFFE00
FFFFFFFFFFFFFFFFFFFFFC00
FFFFFFFFFFFFFFFFFFFFF000
FFFFFFFFFFFFFFFFFFFFC000
FFFFFFFFFFFFFFFFFFFE0000
ENDCHAR
STARTCHAR 0063
ENCODING 99
SWIDTH 656 0
DWIDTH 105 0
BBX 90 94 7 0
BITMAP
0003FFFFFFFFFFFFFFFFFFC0
001FFFFFFFFFFFFFFFFFFFC0
007FFFFFFFFFFFFFFFFFFFC0
00FFFFFFFFFFFFFFFFFFFFC0
01FFFFFFFFFFFFFFFFFFFFC0
03FFFFFFFFFFFFFFFFFFFFC0
07FFFFFFFFFFFFFFFFFFFFC0
0FFFFFFFFFFFFFFFFFFFFFC0
1FFFFFFFFFFFFFFFFFFFFFC0
1FFFFFFFFFFFFFFFFFFFFFC0
3FFFFFFFFFFFFFFFFFFFFFC0
7FFFFFFFFFFFFFFFFFFFFFC0
7FFFFFFFFFFFFFFFFFFFFFC0
7FFFFFFFFFFFFFFFFFFFFFC0
7FFFFFFFFFFFFFFFFFFFFFC0
FFFFFFFFFFFFFFFFFFFFFFC0
FFFFFFFFFFFFFFFFFFFFFFC0
FFFFFFFFFFFFFFFFFFFFFFC0
FFFFFFFFFFFFFFFFFFFFFFC0
FFFFE0000000000000000000
FFFFE0000000000000000000
FFFFE0000000000000000000
FFFFE0000000000000000000
FFFFE0000000000000000000
FFFFE0000000000000000000
FFFFE0000000000000000000
FFFFE0000000000000000000
FFFFE0000000000000000000
FFFFE0000000000000000000
FFFFE0000000000000000000
FFFFE0000000000000000000
FFFFE0000000000000000000
FFFFE0000000000000000000
FFFFE0000000000000000000
FFFFE0000000000000000000
FFFFE0000000000000000000
FFFFE0000000000000000000
FFFFE0000000000000000000
FFFFE0000000000000000000
FFFFE0000000000000000000
FFFFE0000000000000000000
FFFFE0000000000000000000
FFFFE0000000000000000000
FFFFE0000000000000000000
FFFFE0000000000000000000
FFFFE0000000000000000000
FFFFE0000000000000000000
FFFFE0000000000000000000
FFFFE0000000000000000000
FFFFE0000000000000000000
FFFFE0000000000000000000
FFFFE0000000000000000000
FFFFE0000000000000000000
FFFFE0000000000000000000
FFFFE0000000000000000000
FFFFE0000000000000000000
FFFFE0000000000000000000
FFFFE0000000000000000000
FFFFE0000000000000000000
FFFFE0000000000000000000
FFFFE0000000000000000000
FFFFE0000000000000000000
FFFFE0000000000000000000
FFFFE0000000000000000000
FFFFE0000000000000000000
FFFFE0000000000000000000
FFFFE0000000000000000000
FFFFE0000000000000000000
FFFFE0000000000000000000
FFFFE0000000000000000000
FFFFE0000000000000000000
FFFFE0000000000000000000
FFFFE0000000000000000000
FFFFE0000000000000000000
FFFFE0000000000000000000
FFFFFFFFFFFFFFFFFFFFFFC0
FFFFFFFFFFFFFFFFFFFFFFC0
FFFFFFFFFFFFFFFFFFFFFFC0
FFFFFFFFFFFFFFFFFFFFFFC0
FFFFFFFFFFFFFFFFFFFFFFC0
FFFFFFFFFFFFFFFFFFFFFFC0
7FFFFFFFFFFFFFFFFFFFFFC0
7FFFFFFFFFFFFFFFFFFFFFC0
7FFFFFFFFFFFFFFFFFFFFFC0
3FFFFFFFFFFFFFFFFFFFFFC0
3FFFFFFFFFFFFFFFFFFFFFC0
1FFFFFFFFFFFFFFFFFFFFFC0
1FFFFFFFFFFFFFFFFFFFFFC0
0FFFFFFFFFFFFFFFFFFFFFC0
07FFFFFFFFFFFFFFFFFFFFC0
03FFFFFFFFFFFFFFFFFFFFC0
00FFFFFFFFFFFFFFFFFFFFC0
003FFFFFFFFFFFFFFFFFFFC0
0007FFFFFFFFFFFFFFFFFFC0
ENDCHAR
STARTCHAR 0064
ENCODING 100
SWIDTH 675 0
DWIDTH 108 0
BBX 91 121 8 0
BITMAP
000000000000000000FFFFE0
000000000000000000FFFFE0
000000000000000000FFFFE0
000000000000000000FFFFE0
000000000000000000FFFFE0
000000000000000000FFFFE0
000000000000000000FFFFE0
000000000000000000FFFFE0
000000000000000000FFFFE0
000000000000000000FFFFE0
000000000000000000FFFFE0
000000000000000000FFFFE0
000000000000000000FFFFE0
000000000000000000FFFFE0
000000000000000000FFFFE0
000000000000000000FFFFE0
000000000000000000FFFFE0
000000000000000000FFFFE0
000000000000000000FFFFE0
000000000000000000FFFFE0
000000000000000000FFFFE0
000000000000000000FFFFE0
000000000000000000FFFFE0
000000000000000000FFFFE0
000000000000000000FFFFE0
000000000000000000FFFFE0
000000000000000000FFFFE0
0001FFFFFFFFFFFFFFFFFFE0
001FFFFFFFFFFFFFFFFFFFE0
007FFFFFFFFFFFFFFFFFFFE0
00FFFFFFFFFFFFFFFFFFFFE0
01FFFFFFFFFFFFFFFFFFFFE0
07FFFFFFFFFFFFFFFFFFFFE0
07FFFFFFFFFFFFFFFFFFFFE0
0FFFFFFFFFFFFFFFFFFFFFE0
1FFFFFFFFFFFFFFFFFFFFFE0
3FFFFFFFFFFFFFFFFFFFFFE0
3FFFFFFFFFFFFFFFFFFFFFE0
7FFFFFFFFFFFFFFFFFFFFFE0
7FFFFFFFFFFFFFFFFFFFFFE0
7FFFFFFFFFFFFFFFFFFFFFE0
FFFFFFFFFFFFFFFFFFFFFFE0
FFFFFFFFFFFFFFFFFFFFFFE0
FFFFFFFFFFFFFFFFFFFFFFE0
FFFFFFFFFFFFFFFFFFFFFFE0
FFFFFFFFFFFFFFFFFFFFFFE0
FFFFE0000000000000FFFFE0
FFFFE0000000000000FFFFE0
FFFFE0000000000000FFFFE0
FFFFE0000000000000FFFFE0
FFFFE0000000000000FFFFE0
FFFFE0000000000000FFFFE0
FFFFE0000000000000FFFFE0
FFFFE0000000000000FFFFE0
FFFFE0000000000000FFFFE0
FFFFE0000000000000FFFFE0
FFFFE0000000000000FFFFE0
FFFFE0000000000000FFFFE0
FFFFE0000000000000FFFFE0
FFFFE0000000000000FFFFE0
FFFFE0000000000000FFFFE0
FFFFE0000000000000FFFFE0
FFFFE0000000000000FFFFE0
FFFFE0000000000000FFFFE0
FFFFE0000000000000FFFFE0
FFFFE0000000000000FFFFE0
FFFFE0000000000000FFFFE0
FFFFE0000000000000FFFFE0
FFFFE0000000000000FFFFE0
FFFFE0000000000000FFFFE0
FFFFE0000000000000FFFFE0
FFFFE0000000000000FFFFE0
FFFFE0000000000000FFFFE0
FFFFE0000000000000FFFFE0
FFFFE0000000000000FFFFE0
FFFFE0000000000000FFFFE0
FFFFE0000000000000FFFFE0
FFFFE0000000000000FFFFE0
FFFFE0000000000000FFFFE0
FFFFE0000000000000FFFFE0
FFFFE0000000000000FFFFE0
FFFFE0000000000000FFFFE0
FFFFE0000000000000FFFFE0
FFFFE0000000000000FFFFE0
FFFFE0000000000000FFFFE0
FFFFE0000000000000FFFFE0
FFFFE0000000000000FFFFE0
FFFFE0000000000000FFFFE0
FFFFE0000000000000FFFFE0
FFFFE0000000000000FFFFE0
FFFFE0000000000000FFFFE0
FFFFE0000000000000FFFFE0
FFFFE0000000000000FFFFE0
FFFFE0000000000000FFFFE0
FFFFE0000000000000FFFFE0
FFFFE0000000000000FFFFE0
FFFFE0000000000000FFFFE0
FFFFE0000000000000FFFFE0
FFFFE0000000000000FFFFE0
FFFFE0000000000000FFFFE0
FFFFE0000000000000FFFFE0
FFFFE0000000000000FFFFE0
FFFFFFFFFFFFFFFFFFFFFFE0
FFFFFFFFFFFFFFFFFFFFFFE0
FFFFFFFFFFFFFFFFFFFFFFE0
FFFFFFFFFFFFFFFFFFFFFFE0
7FFFFFFFFFFFFFFFFFFFFFE0
7FFFFFFFFFFFFFFFFFFFFFE0
7FFFFFFFFFFFFFFFFFFFFFE0
7FFFFFFFFFFFFFFFFFFFFFE0
3FFFFFFFFFFFFFFFFFFFFFE0
3FFFFFFFFFFFFFFFFFFFFFE0
1FFFFFFFFFFFFFFFFFFFFFE0
1FFFFFFFFFFFFFFFFFFFFFE0
0FFFFFFFFFFFFFFFFFFFFFE0
07FFFFFFFFFFFFFFFFFFFFE0
03FFFFFFFFFFFFFFFFFFFFE0
01FFFFFFFFFFFFFFFFFFFFE0
007FFFFFFFFFFFFFFFFFFFE0
001FFFFFFFFFFFFFFFFFFFE0
0003FFFFFFFFFFFFFFFFFFE0
ENDCHAR
STARTCHAR 0065
ENCODING 101
SWIDTH 700 0
DWIDTH 112 0
BBX 93 94 9 0
BITMAP
0003FFFFFFFFFFFFFFFE0000
003FFFFFFFFFFFFFFFFFC000
00FFFFFFFFFFFFFFFFFFF000
01FFFFFFFFFFFFFFFFFFF800
03FFFFFFFFFFFFFFFFFFFE00
07FFFFFFFFFFFFFFFFFFFF00
0FFFFFFFFFFFFFFFFFFFFF80
1FFFFFFFFFFFFFFFFFFFFF80
1FFFFFFFFFFFFFFFFFFFFFC0
3FFFFFFFFFFFFFFFFFFFFFE0
3FFFFFFFFFFFFFFFFFFFFFE0
7FFFFFFFFFFFFFFFFFFFFFF0
7FFFFFFFFFFFFFFFFFFFFFF0
7FFFFFFFFFFFFFFFFFFFFFF0
FFFFFFFFFFFFFFFFFFFFFFF8
FFFFFFFFFFFFFFFFFFFFFFF8
FFFFFFFFFFFFFFFFFFFFFFF8
FFFFFFFFFFFFFFFFFFFFFFF8
FFFFFFFFFFFFFFFFFFFFFFF8
FFFFE00000000000003FFFF8
FFFFE00000000000003FFFF8
FFFFE00000000000003FFFF8
FFFFE00000000000003FFFF8
FFFFE00000000000003FFFF8
FFFFE00000000000003FFFF8
FFFFE00000000000003FFFF8
FFFFE00000000000003FFFF8
FFFFE00000000000003FFFF8
FFFFE00000000000003FFFF8
FFFFE00000000000003FFFF8
FFFFE00000000000003FFFF8
FFFFE00000000000003FFFF8
FFFFE00000000000003FFFF8
FFFFE00000000000003FFFF8
FFFFE00000000000003FFFF8
FFFFE00000000000003FFFF8
FFFFE00000000000003FFFF8
FFFFE00000000000003FFFF8
FFFFFFFFFFFFFFFFFFFFFFF8
FFFFFFFFFFFFFFFFFFFFFFF8
FFFFFFFFFFFFFFFFFFFFFFF8
FFFFFFFFFFFFFFFFFFFFFFF8
FFFFFFFFFFFFFFFFFFFFFFF8
FFFFFFFFFFFFFFFFFFFFFFF0
FFFFFFFFFFFFFFFFFFFFFFF0
FFFFFFFFFFFFFFFFFFFFFFF0
FFFFFFFFFFFFFFFFFFFFFFE0
FFFFFFFFFFFFFFFFFFFFFFE0
FFFFFFFFFFFFFFFFFFFFFFC0
FFFFFFFFFFFFFFFFFFFFFFC0
FFFFFFFFFFFFFFFFFFFFFF80
FFFFFFFFFFFFFFFFFFFFFF00
FFFFFFFFFFFFFFFFFFFFFE00
FFFFFFFFFFFFFFFFFFFFFC00
FFFFFFFFFFFFFFFFFFFFF000
FFFFFFFFFFFFFFFFFFFFC000
FFFFFFFFFFFFFFFFFFFE0000
FFFFE0000000000000000000
FFFFE0000000000000000000
FFFFE0000000000000000000
FFFFE0000000000000000000
FFFFE0000000000000000000
FFFFE0000000000000000000
FFFFE0000000000000000000
FFFFE0000000000000000000
FFFFE0000000000000000000
FFFFE0000000000000000000
FFFFE0000000000000000000
FFFFE0000000000000000000
FFFFE0000000000000000000
FFFFE0000000000000000000
FFFFE0000000000000000000
FFFFE0000000000000000000
FFFFE0000000000000000000
FFFFE0000000000000000000
FFFFFFFFFFFFFFFFFFFFFF00
FFFFFFFFFFFFFFFFFFFFFF00
FFFFFFFFFFFFFFFFFFFFFF00
FFFFFFFFFFFFFFFFFFFFFF00
FFFFFFFFFFFFFFFFFFFFFF00
7FFFFFFFFFFFFFFFFFFFFF00
7FFFFFFFFFFFFFFFFFFFFF00
7FFFFFFFFFFFFFFFFFFFFF00
3FFFFFFFFFFFFFFFFFFFFF00
3FFFFFFFFFFFFFFFFFFFFF00
1FFFFFFFFFFFFFFFFFFFFF00
0FFFFFFFFFFFFFFFFFFFFF00
0FFFFFFFFFFFFFFFFFFFFF00
07FFFFFFFFFFFFFFFFFFFF00
03FFFFFFFFFFFFFFFFFFFF00
01FFFFFFFFFFFFFFFFFFFF00
007FFFFFFFFFFFFFFFFFFF00
001FFFFFFFFFFFFFFFFFFF00
0003FFFFFFFFFFFFFFFFFF00
ENDCHAR
STARTCHAR 0066
ENCODING 102
SWIDTH 318 0
DWIDTH 51 0
BBX 43 121 4 0
BITMAP
000001FFFFE0
00001FFFFFE0
00007FFFFFE0
0000FFFFFFE0
0001FFFFFFE0
0003FFFFFFE0
0007FFFFFFE0
000FFFFFFFE0
001FFFFFFFE0
001FFFFFFFE0
003FFFFFFFE0
003FFFFFFFE0
007FFFFFFFE0
007FFFFFFFE0
007FFFFFFFE0
007FFFFFFFE0
007FFFFFFFE0
007FFFFFFFE0
00FFFFFFFFE0
00FFFFE00000
00FFFFE00000
00FFFFE00000
00FFFFE00000
00FFFFE00000
00FFFFE00000
00FFFFE00000
00FFFFE00000
FFFFFFFFFC00
FFFFFFFFFC00
FFFFFFFFFC00
FFFFFFFFFC00
FFFFFFFFFC00
FFFFFFFFFC00
FFFFFFFFFC00
FFFFFFFFFC00
FFFFFFFFFC00
FFFFFFFFFC00
FFFFFFFFFC00
FFFFFFFFFC00
FFFFFFFFFC00
FFFFFFFFFC00
FFFFFFFFFC00
FFFFFFFFFC00
FFFFFFFFFC00
FFFFFFFFFC00
FFFFFFFFFC00
00FFFFE00000
00FFFFE00000
00FFFFE00000
00FFFFE00000
00FFFFE00000
00FFFFE00000
00FFFFE00000
00FFFFE00000
00FFFFE00000
00FFFFE00000
00FFFFE00000
00FFFFE00000
00FFFFE00000
00FFFFE00000
00FFFFE00000
00FFFFE00000
00FFFFE00000
00FFFFE00000
00FFFFE00000
00FFFFE00000
00FFFFE00000
00FFFFE00000
00FFFFE00000
00FFFFE00000
00FFFFE00000
00FFFFE00000
00FFFFE00000
00FFFFE00000
00FFFFE00000
00FFFFE00000
00FFFFE00000
00FFFFE00000
00FFFFE00000
00FFFFE00000
00FFFFE00000
00FFFFE00000
00FFFFE00000
00FFFFE00000
00FFFFE00000
00FFFFE00000
00FFFFE00000
00FFFFE00000
00FFFFE00000
00FFFFE00000
00FFFFE00000
00FFFFE00000
00FFFFE00000
00FFFFE00000
00FFFFE00000
00FFFFE00000
00FFFFE00000
00FFFFE00000
00FFFFE00000
00FFFFE00000
00FFFFE00000
00FFFFE00000
00FFFFE00000
00FFFFE00000
00FFFFE00000
00FFFFE00000
00FFFFE00000
00FFFFE00000
00FFFFE00000
00FFFFE00000
00FFFFE00000
00FFFFE00000
00FFFFE00000
00FFFFE00000
00FFFFE00000
00FFFFE00000
00FFFFE00000
00FFFFE00000
00FFFFE00000
00FFFFE00000
00FFFFE00000
ENDCHAR
STARTCHAR 0067
ENCODING 103
SWIDTH 693 0
DWIDTH 111 0
BBX 93 125 9 -31
BITMAP
0003FFFFFFFFFFFFFFFFFFF8
001FFFFFFFFFFFFFFFFFFFF8
007FFFFFFFFFFFFFFFFFFFF8
01FFFFFFFFFFFFFFFFFFFFF8
03FFFFFFFFFFFFFFFFFFFFF8
07FFFFFFFFFFFFFFFFFFFFF8
0FFFFFFFFFFFFFFFFFFFFFF8
0FFFFFFFFFFFFFFFFFFFFFF8
1FFFFFFFFFFFFFFFFFFFFFF8
3FFFFFFFFFFFFFFFFFFFFFF8
3FFFFFFFFFFFFFFFFFFFFFF8
7FFFFFFFFFFFFFFFFFFFFFF8
7FFFFFFFFFFFFFFFFFFFFFF8
7FFFFFFFFFFFFFFFFFFFFFF8
7FFFFFFFFFFFFFFFFFFFFFF8
FFFFFFFFFFFFFFFFFFFFFFF8
FFFFFFFFFFFFFFFFFFFFFFF8
FFFFFFFFFFFFFFFFFFFFFFF8
FFFFFFFFFFFFFFFFFFFFFFF8
FFFFE00000000000003FFFF8
FFFFE00000000000003FFFF8
FFFFE00000000000003FFFF8
FFFFE00000000000003FFFF8
FFFFE00000000000003FFFF8
FFFFE00000000000003FFFF8
FFFFE00000000000003FFFF8
FFFFE00000000000003FFFF8
FFFFE00000000000003FFFF8
FFFFE00000000000003FFFF8
FFFFE00000000000003FFFF8
FFFFE00000000000003FFFF8
FFFFE00000000000003FFFF8
FFFFE00000000000003FFFF8
FFFFE00000000000003FFFF8
FFFFE00000000000003FFFF8
FFFFE00000000000003FFFF8
FFFFE00000000000003FFFF8
FFFFE00000000000003FFFF8
FFFFE00000000000003FFFF8
FFFFE00000000000003FFFF8
FFFFE00000000000003FFFF8
FFFFE00000000000003FFFF8
FFFFE00000000000003FFFF8
FFFFE00000000000003FFFF8
FFFFE00000000000003FFFF8
FFFFE00000000000003FFFF8
FFFFE00000000000003FFFF8
FFFFE00000000000003FFFF8
FFFFE00000000000003FFFF8
FFFFE00000000000003FFFF8
FFFFE00000000000003FFFF8
FFFFE00000000000003FFFF8
FFFFE00000000000003FFFF8
FFFFE00000000000003FFFF8
FFFFE00000000000003FFFF8
FFFFE00000000000003FFFF8
FFFFE00000000000003FFFF8
FFFFE00000000000003FFFF8
FFFFE00000000000003FFFF8
FFFFE00000000000003FFFF8
FFFFE00000000000003FFFF8
FFFFE00000000000003FFFF8
FFFFE00000000000003FFFF8
FFFFE00000000000003FFFF8
FFFFE00000000000003FFFF8
FFFFE00000000000003FFFF8
FFFFE00000000000003FFFF8
FFFFE00000000000003FFFF8
FFFFE00000000000003FFFF8
FFFFE00000000000003FFFF8
FFFFE00000000000003FFFF8
FFFFE00000000000003FFFF8
FFFFE00000000000003FFFF8
FFFFE00000000000003FFFF8
FFFFE00000000000003FFFF8
FFFFFFFFFFFFFFFFFFFFFFF8
FFFFFFFFFFFFFFFFFFFFFFF8
FFFFFFFFFFFFFFFFFFFFFFF8
FFFFFFFFFFFFFFFFFFFFFFF8
FFFFFFFFFFFFFFFFFFFFFFF8
7FFFFFFFFFFFFFFFFFFFFFF8
7FFFFFFFFFFFFFFFFFFFFFF8
7FFFFFFFFFFFFFFFFFFFFFF8
3FFFFFFFFFFFFFFFFFFFFFF8
3FFFFFFFFFFFFFFFFFFFFFF8
1FFFFFFFFFFFFFFFFFFFFFF8
0FFFFFFFFFFFFFFFFFFFFFF8
07FFFFFFFFFFFFFFFFFFFFF8
03FFFFFFFFFFFFFFFFFFFFF8
01FFFFFFFFFFFFFFFFFFFFF8
00FFFFFFFFFFFFFFFFFFFFF8
007FFFFFFFFFFFFFFFFFFFF8
001FFFFFFFFFFFFFFFFFFFF8
0001FFFFFFFFFFFFFFFFFFF8
0000000000000000003FFFF8
0000000000000000003FFFF8
0000000000000000003FFFF8
0000000000000000003FFFF8
0000000000000000003FFFF8
0000000000000000003FFFF8
0000000000000000003FFFF8
0000000000000000003FFFF8
0000000000000000003FFFF8
0000000000000000003FFFF8
0000000000000000003FFFF8
0000000000000000003FFFF8
00000000FFFFFFFFFFFFFFF8
00000000FFFFFFFFFFFFFFF8
00000000FFFFFFFFFFFFFFF8
00000000FFFFFFFFFFFFFFF8
00000000FFFFFFFFFFFFFFF8
00000000FFFFFFFFFFFFFFF8
00000000FFFFFFFFFFFFFFF0
00000000FFFFFFFFFFFFFFF0
00000000FFFFFFFFFFFFFFF0
00000000FFFFFFFFFFFFFFF0
00000000FFFFFFFFFFFFFFE0
00000000FFFFFFFFFFFFFFE0
00000000FFFFFFFFFFFFFFC0
00000000FFFFFFFFFFFFFF80
00000000FFFFFFFFFFFFFF00
00000000FFFFFFFFFFFFFE00
00000000FFFFFFFFFFFFF800
00000000FFFFFFFFFFFFE000
00000000FFFFFFFFFFFF0000
ENDCHAR
STARTCHAR 0068
ENCODING 104
SWIDTH 700 0
DWIDTH 112 0
BBX 93 121 9 0
BITMAP
FFFFE0000000000000000000
FFFFE0000000000000000000
FFFFE0000000000000000000
FFFFE0000000000000000000
FFFFE0000000000000000000
FFFFE0000000000000000000
FFFFE0000000000000000000
FFFFE0000000000000000000
FFFFE0000000000000000000
FFFFE0000000000000000000
FFFFE0000000000000000000
FFFFE0000000000000000000
FFFFE0000000000000000000
FFFFE0000000000000000000
FFFFE0000000000000000000
FFFFE0000000000000000000
FFFFE0000000000000000000
FFFFE0000000000000000000
FFFFE0000000000000000000
FFFFE0000000000000000000
FFFFE0000000000000000000
FFFFE0000000000000000000
FFFFE0000000000000000000
FFFFE0000000000000000000
FFFFE0000000000000000000
FFFFE0000000000000000000
FFFFE0000000000000000000
FFFFFFFFFFFFFFFFFFFE0000
FFFFFFFFFFFFFFFFFFFFE000
FFFFFFFFFFFFFFFFFFFFF800
FFFFFFFFFFFFFFFFFFFFFE00
FFFFFFFFFFFFFFFFFFFFFF00
FFFFFFFFFFFFFFFFFFFFFF80
FFFFFFFFFFFFFFFFFFFFFF80
FFFFFFFFFFFFFFFFFFFFFFC0
FFFFFFFFFFFFFFFFFFFFFFE0
FFFFFFFFFFFFFFFFFFFFFFE0
FFFFFFFFFFFFFFFFFFFFFFF0
FFFFFFFFFFFFFFFFFFFFFFF0
FFFFFFFFFFFFFFFFFFFFFFF0
FFFFFFFFFFFFFFFFFFFFFFF0
FFFFFFFFFFFFFFFFFFFFFFF8
FFFFFFFFFFFFFFFFFFFFFFF8
FFFFFFFFFFFFFFFFFFFFFFF8
FFFFFFFFFFFFFFFFFFFFFFF8
FFFFFFFFFFFFFFFFFFFFFFF8
FFFFE00000000000003FFFF8
FFFFE00000000000003FFFF8
FFFFE00000000000003FFFF8
FFFFE00000000000003FFFF8
FFFFE00000000000003FFFF8
FFFFE00000000000003FFFF8
FFFFE00000000000003FFFF8
FFFFE00000000000003FFFF8
FFFFE00000000000003FFFF8
FFFFE00000000000003FFFF8
FFFFE00000000000003FFFF8
FFFFE00000000000003FFFF8
FFFFE00000000000003FFFF8
FFFFE00000000000003FFFF8
FFFFE00000000000003FFFF8
FFFFE00000000000003FFFF8
FFFFE00000000000003FFFF8
FFFFE00000000000003FFFF8
FFFFE00000000000003FFFF8
FFFFE00000000000003FFFF8
FFFFE00000000000003FFFF8
FFFFE00000000000003FFFF8
FFFFE00000000000003FFFF8
FFFFE00000000000003FFFF8
FFFFE00000000000003FFFF8
FFFFE00000000000003FFFF8
FFFFE00000000000003FFFF8
FFFFE00000000000003FFFF8
FFFFE00000000000003FFFF8
FFFFE00000000000003FFFF8
FFFFE00000000000003FFFF8
FFFFE00000000000003FFFF8
FFFFE00000000000003FFFF8
FFFFE00000000000003FFFF8
FFFFE00000000000003FFFF8
FFFFE00000000000003FFFF8
FFFFE00000000000003FFFF8
FFFFE00000000000003FFFF8
FFFFE00000000000003FFFF8
FFFFE00000000000003FFFF8
FFFFE00000000000003FFFF8
FFFFE00000000000003FFFF8
FFFFE00000000000003FFFF8
FFFFE00000000000003FFFF8
FFFFE00000000000003FFFF8
FFFFE00000000000003FFFF8
FFFFE00000000000003FFFF8
FFFFE00000000000003FFFF8
FFFFE00000000000003FFFF8
FFFFE00000000000003FFFF8
FFFFE00000000000003FFFF8
FFFFE00000000000003FFFF8
FFFFE00000000000003FFFF8
FFFFE00000000000003FFFF8
FFFFE00000000000003FFFF8
FFFFE00000000000003FFFF8
FFFFE00000000000003FFFF8
FFFFE00000000000003FFFF8
FFFFE00000000000003FFFF8
FFFFE00000000000003FFFF8
FFFFE00000000000003FFFF8
FFFFE00000000000003FFFF8
FFFFE00000000000003FFFF8
FFFFE00000000000003FFFF8
FFFFE00000000000003FFFF8
FFFFE00000000000003FFFF8
FFFFE00000000000003FFFF8
FFFFE00000000000003FFFF8
FFFFE00000000000003FFFF8
FFFFE00000000000003FFFF8
FFFFE00000000000003FFFF8
FFFFE00000000000003FFFF8
FFFFE00000000000003FFFF8
FFFFE00000000000003FFFF8
FFFFE00000000000003FFFF8
ENDCHAR
STARTCHAR 0069
ENCODING 105
SWIDTH 225 0
DWIDTH 36 0
BBX 19 94 9 0
BITMAP
FFFFE0
FFFFE0
FFFFE0
FFFFE0
FFFFE0
FFFFE0
FFFFE0
FFFFE0
FFFFE0
FFFFE0
FFFFE0
FFFFE0
FFFFE0
FFFFE0
FFFFE0
FFFFE0
FFFFE0
FFFFE0
FFFFE0
FFFFE0
FFFFE0
FFFFE0
FFFFE0
FFFFE0
FFFFE0
FFFFE0
FFFFE0
FFFFE0
FFFFE0
FFFFE0
FFFFE0
FFFFE0
FFFFE0
FFFFE0
FFFFE0
FFFFE0
FFFFE0
FFFFE0
FFFFE0
FFFFE0
FFFFE0
FFFFE0
FFFFE0
FFFFE0
FFFFE0
FFFFE0
FFFFE0
FFFFE0
FFFFE0
FFFFE0
FFFFE0
FFFFE0
FFFFE0
FFFFE0
FFFFE0
FFFFE0
FFFFE0
FFFFE0
FFFFE0
FFFFE0
FFFFE0
FFFFE0
FFFFE0
FFFFE0
FFFFE0
FFFFE0
FFFFE0
FFFFE0
FFFFE0
FFFFE0
FFFFE0
FFFFE0
FFFFE0
FFFFE0
FFFFE0
FFFFE0
FFFFE0
FFFFE0
FFFFE0
FFFFE0
FFFFE0
FFFFE0
FFFFE0
FFFFE0
FFFFE0
FFFFE0
FFFFE0
FFFFE0
FFFFE0
FFFFE0
FFFFE0
FFFFE0
FFFFE0
FFFFE0
ENDCHAR
STARTCHAR 006A
ENCODING 106
SWIDTH 337 0
DWIDTH 54 0
BBX 37 125 8 -31
BITMAP
00003FFFF8
00003FFFF8
00003FFFF8
00003FFFF8
00003FFFF8
00003FFFF8
00003FFFF8
00003FFFF8
00003FFFF8
00003FFFF8
00003FFFF8
00003FFFF8
00003FFFF8
00003FFFF8
00003FFFF8
00003FFFF8
00003FFFF8
00003FFFF8
00003FFFF8
00003FFFF8
00003FFFF8
00003FFFF8
00003FFFF8
00003FFFF8
00003FFFF8
00003FFFF8
00003FFFF8
00003FFFF8
00003FFFF8
00003FFFF8
00003FFFF8
00003FFFF8
00003FFFF8
00003FFFF8
00003FFFF8
00003FFFF8
00003FFFF8
00003FFFF8
00003FFFF8
00003FFFF8
00003FFFF8
00003FFFF8
00003FFFF8
00003FFFF8
00003FFFF8
00003FFFF8
00003FFFF8
00003FFFF8
00003FFFF8
00003FFFF8
00003FFFF8
00003FFFF8
00003FFFF8
00003FFFF8
00003FFFF8
00003FFFF8
00003FFFF8
00003FFFF8
00003FFFF8
00003FFFF8
00003FFFF8
00003FFFF8
00003FFFF8
00003FFFF8
00003FFFF8
00003FFFF8
00003FFFF8
00003FFFF8
00003FFFF8
00003FFFF8
00003FFFF8
00003FFFF8
00003FFFF8
00003FFFF8
00003FFFF8
00003FFFF8
00003FFFF8
00003FFFF8
00003FFFF8
00003FFFF8
00003FFFF8
00003FFFF8
00003FFFF8
00003FFFF8
00003FFFF8
00003FFFF8
00003FFFF8
00003FFFF8
00003FFFF8
00003FFFF8
00003FFFF8
00003FFFF8
00003FFFF8
00003FFFF8
00003FFFF8
00003FFFF8
00003FFFF8
00003FFFF8
00003FFFF8
00003FFFF8
00003FFFF8
00003FFFF8
00003FFFF8
00003FFFF8
00003FFFF8
00003FFFF8
FFFFFFFFF8
FFFFFFFFF8
FFFFFFFFF8
FFFFFFFFF8
FFFFFFFFF8
FFFFFFFFF0
FFFFFFFFF0
FFFFFFFFF0
FFFFFFFFE0
FFFFFFFFE0
FFFFFFFFC0
FFFFFFFF80
FFFFFFFF80
FFFFFFFF00
FFFFFFFE00
FFFFFFF800
FFFFFFF000
FFFFFFC000
FFFFFE0000
ENDCHAR
STARTCHAR 006B
ENCODING 107
SWIDTH 643 0
DWIDTH 103 0
BBX 93 94 5 0
BITMAP
FFFFE000000000007FFFFFF8
FFFFE00000000000FFFFFFE0
FFFFE00000000003FFFFFFC0
FFFFE00000000007FFFFFF80
FFFFE0000000000FFFFFFE00
FFFFE0000000003FFFFFFC00
FFFFE0000000007FFFFFF000
FFFFE000000000FFFFFFE000
FFFFE000000003FFFFFF8000
FFFFE000000007FFFFFF0000
FFFFE00000000FFFFFFE0000
FFFFE00000003FFFFFF80000
FFFFE00000007FFFFFF00000
FFFFE0000000FFFFFFC00000
FFFFE0000003FFFFFF800000
FFFFE0000007FFFFFE000000
FFFFE000001FFFFFFC000000
FFFFE000003FFFFFF0000000
FFFFE000007FFFFFE0000000
FFFFE00001FFFFFFC0000000
FFFFE00003FFFFFF00000000
FFFFE00007FFFFFE00000000
FFFFE0001FFFFFF800000000
FFFFE0003FFFFFF000000000
FFFFE0007FFFFFC000000000
FFFFE001FFFFFF8000000000
FFFFE003FFFFFF0000000000
FFFFE007FFFFFC0000000000
FFFFE01FFFFFF80000000000
FFFFE03FFFFFE00000000000
FFFFE07FFFFFC00000000000
FFFFE1FFFFFF000000000000
FFFFE3FFFFFE000000000000
FFFFE7FFFFFC000000000000
FFFFFFFFFFF0000000000000
FFFFFFFFFFE0000000000000
FFFFFFFFFF80000000000000
FFFFFFFFFF00000000000000
FFFFFFFFFC00000000000000
FFFFFFFFF800000000000000
FFFFFFFFF000000000000000
FFFFFFFFC000000000000000
FFFFFFFF8000000000000000
FFFFFFFE0000000000000000
FFFFFFFC0000000000000000
FFFFFFF00000000000000000
FFFFFFE00000000000000000
FFFFFFE00000000000000000
FFFFFFF00000000000000000
FFFFFFFC0000000000000000
FFFFFFFE0000000000000000
FFFFFFFF0000000000000000
FFFFFFFFC000000000000000
FFFFFFFFE000000000000000
FFFFFFFFF800000000000000
FFFFFFFFFC00000000000000
FFFFFFFFFF00000000000000
FFFFFFFFFF80000000000000
FFFFFFFFFFC0000000000000
FFFFFFFFFFF0000000000000
FFFFEFFFFFF8000000000000
FFFFE3FFFFFE000000000000
FFFFE1FFFFFF000000000000
FFFFE07FFFFFC00000000000
FFFFE03FFFFFE00000000000
FFFFE01FFFFFF80000000000
FFFFE007FFFFFC0000000000
FFFFE003FFFFFE0000000000
FFFFE001FFFFFF8000000000
FFFFE0007FFFFFC000000000
FFFFE0003FFFFFF000000000
FFFFE0001FFFFFF800000000
FFFFE00007FFFFFE00000000
FFFFE00003FFFFFF00000000
FFFFE00001FFFFFF80000000
FFFFE000007FFFFFE0000000
FFFFE000003FFFFFF0000000
FFFFE000001FFFFFFC000000
FFFFE0000007FFFFFE000000
FFFFE0000003FFFFFF800000
FFFFE0000000FFFFFFC00000
FFFFE00000007FFFFFF00000
FFFFE00000003FFFFFF80000
FFFFE00000000FFFFFFC0000
FFFFE000000007FFFFFF0000
FFFFE000000003FFFFFF8000
FFFFE000000000FFFFFFE000
FFFFE0000000007FFFFFF000
FFFFE0000000003FFFFFFC00
FFFFE0000000000FFFFFFE00
FFFFE00000000007FFFFFF80
FFFFE00000000003FFFFFFC0
FFFFE00000000000FFFFFFE0
FFFFE000000000007FFFFFF8
ENDCHAR
STARTCHAR 006C
ENCODING 108
SWIDTH 231 0
DWIDTH 37 0
BBX 19 121 9 0
BITMAP
FFFFE0
FFFFE0
FFFFE0
FFFFE0
FFFFE0
FFFFE0
FFFFE0
FFFFE0
FFFFE0
FFFFE0
FFFFE0
FFFFE0
FFFFE0
FFFFE0
FFFFE0
FFFFE0
FFFFE0
FFFFE0
FFFFE0
FFFFE0
FFFFE0
FFFFE0
FFFFE0
FFFFE0
FFFFE0
FFFFE0
FFFFE0
FFFFE0
FFFFE0
FFFFE0
FFFFE0
FFFFE0
FFFFE0
FFFFE0
FFFFE0
FFFFE0
FFFFE0
FFFFE0
FFFFE0
FFFFE0
FFFFE0
FFFFE0
FFFFE0
FFFFE0
FFFFE0
FFFFE0
FFFFE0
FFFFE0
FFFFE0
FFFFE0
FFFFE0
FFFFE0
FFFFE0
FFFFE0
FFFFE0
FFFFE0
FFFFE0
FFFFE0
FFFFE0
FFFFE0
FFFFE0
FFFFE0
FFFFE0
FFFFE0
FFFFE0
FFFFE0
FFFFE0
FFFFE0
FFFFE0
FFFFE0
FFFFE0
FFFFE0
FFFFE0
FFFFE0
FFFFE0
FFFFE0
FFFFE0
FFFFE0
FFFFE0
FFFFE0
FFFFE0
FFFFE0
FFFFE0
FFFFE0
FFFFE0
FFFFE0
FFFFE0
FFFFE0
FFFFE0
FFFFE0
FFFFE0
FFFFE0
FFFFE0
FFFFE0
FFFFE0
FFFFE0
FFFFE0
FFFFE0
FFFFE0
FFFFE0
FFFFE0
FFFFE0
FFFFE0
FFFFE0
FFFFE0
FFFFE0
FFFFE0
FFFFE0
FFFFE0
FFFFE0
FFFFE0
FFFFE0
FFFFE0
FFFFE0
FFFFE0
FFFFE0
FFFFE0
FFFFE0
FFFFE0
FFFFE0
FFFFE0
ENDCHAR
STARTCHAR 006D
ENCODING 109
SWIDTH 931 0
DWIDTH 149 0
BBX 130 94 9 0
BITMAP
FFFFFFFFFFFFFFFFFFFFFFFFFFFFF00000
FFFFFFFFFFFFFFFFFFFFFFFFFFFFFF0000
FFFFFFFFFFFFFFFFFFFFFFFFFFFFFFC000
FFFFFFFFFFFFFFFFFFFFFFFFFFFFFFF000
FFFFFFFFFFFFFFFFFFFFFFFFFFFFFFF800
FFFFFFFFFFFFFFFFFFFFFFFFFFFFFFFC00
FFFFFFFFFFFFFFFFFFFFFFFFFFFFFFFC00
FFFFFFFFFFFFFFFFFFFFFFFFFFFFFFFE00
FFFFFFFFFFFFFFFFFFFFFFFFFFFFFFFF00
FFFFFFFFFFFFFFFFFFFFFFFFFFFFFFFF00
FFFFFFFFFFFFFFFFFFFFFFFFFFFFFFFF80
FFFFFFFFFFFFFFFFFFFFFFFFFFFFFFFF80
FFFFFFFFFFFFFFFFFFFFFFFFFFFFFFFF80
FFFFFFFFFFFFFFFFFFFFFFFFFFFFFFFF80
FFFFFFFFFFFFFFFFFFFFFFFFFFFFFFFFC0
FFFFFFFFFFFFFFFFFFFFFFFFFFFFFFFFC0
FFFFFFFFFFFFFFFFFFFFFFFFFFFFFFFFC0
FFFFFFFFFFFFFFFFFFFFFFFFFFFFFFFFC0
FFFFFFFFFFFFFFFFFFFFFFFFFFFFFFFFC0
FFFFE000000001FFFFC000000001FFFFC0
FFFFE000000001FFFFC000000001FFFFC0
FFFFE000000001FFFFC000000001FFFFC0
FFFFE000000001FFFFC000000001FFFFC0
FFFFE000000001FFFFC000000001FFFFC0
FFFFE000000001FFFFC000000001FFFFC0
FFFFE000000001FFFFC000000001FFFFC0
FFFFE000000001FFFFC000000001FFFFC0
FFFFE000000001FFFFC000000001FFFFC0
FFFFE000000001FFFFC000000001FFFFC0
FFFFE000000001FFFFC000000001FFFFC0
FFFFE000000001FFFFC000000001FFFFC0
FFFFE000000001FFFFC000000001FFFFC0
FFFFE000000001FFFFC000000001FFFFC0
FFFFE000000001FFFFC000000001FFFFC0
FFFFE000000001FFFFC000000001FFFFC0
FFFFE000000001FFFFC000000001FFFFC0
FFFFE000000001FFFFC000000001FFFFC0
FFFFE000000001FFFFC000000001FFFFC0
FFFFE000000001FFFFC000000001FFFFC0
FFFFE000000001FFFFC000000001FFFFC0
FFFFE000000001FFFFC000000001FFFFC0
FFFFE000000001FFFFC000000001FFFFC0
FFFFE000000001FFFFC000000001FFFFC0
FFFFE000000001FFFFC000000001FFFFC0
FFFFE000000001FFFFC000000001FFFFC0
FFFFE000000001FFFFC000000001FFFFC0
FFFFE000000001FFFFC000000001FFFFC0
FFFFE000000001FFFFC000000001FFFFC0
FFFFE000000001FFFFC000000001FFFFC0
FFFFE000000001FFFFC000000001FFFFC0
FFFFE000000001FFFFC000000001FFFFC0
FFFFE000000001FFFFC000000001FFFFC0
FFFFE000000001FFFFC000000001FFFFC0
FFFFE000000001FFFFC000000001FFFFC0
FFFFE000000001FFFFC000000001FFFFC0
FFFFE000000001FFFFC000000001FFFFC0
FFFFE000000001FFFFC000000001FFFFC0
FFFFE000000001FFFFC000000001FFFFC0
FFFFE000000001FFFFC000000001FFFFC0
FFFFE000000001FFFFC000000001FFFFC0
FFFFE000000001FFFFC000000001FFFFC0
FFFFE000000001FFFFC000000001FFFFC0
FFFFE000000001FFFFC000000001FFFFC0
FFFFE000000001FFFFC000000001FFFFC0
FFFFE000000001FFFFC000000001FFFFC0
FFFFE000000001FFFFC000000001FFFFC0
FFFFE000000001FFFFC000000001FFFFC0
FFFFE000000001FFFFC000000001FFFFC0
FFFFE000000001FFFFC000000001FFFFC0
FFFFE000000001FFFFC000000001FFFFC0
FFFFE000000001FFFFC000000001FFFFC0
FFFFE000000001FFFFC000000001FFFFC0
FFFFE000000001FFFFC000000001FFFFC0
FFFFE000000001FFFFC000000001FFFFC0
FFFFE000000001FFFFC000000001FFFFC0
FFFFE000000001FFFFC000000001FFFFC0
FFFFE000000001FFFFC000000001FFFFC0
FFFFE000000001FFFFC000000001FFFFC0
FFFFE000000001FFFFC000000001FFFFC0
FFFFE000000001FFFFC000000001FFFFC0
FFFFE000000001FFFFC000000001FFFFC0
FFFFE000000001FFFFC000000001FFFFC0
FFFFE000000001FFFFC000000001FFFFC0
FFFFE000000001FFFFC000000001FFFFC0
FFFFE000000001FFFFC000000001FFFFC0
FFFFE000000001FFFFC000000001FFFFC0
FFFFE000000001FFFFC000000001FFFFC0
FFFFE000000001FFFFC000000001FFFFC0
FFFFE000000001FFFFC000000001FFFFC0
FFFFE000000001FFFFC000000001FFFFC0
FFFFE000000001FFFFC000000001FFFFC0
FFFFE000000001FFFFC000000001FFFFC0
FFFFE000000001FFFFC000000001FFFFC0
FFFFE000000001FFFFC000000001FFFFC0
ENDCHAR
STARTCHAR 006E
ENCODING 110
SWIDTH 650 0
DWIDTH 104 0
BBX 88 94 8 0
BITMAP
FFFFFFFFFFFFFFFFFFE000
FFFFFFFFFFFFFFFFFFFC00
FFFFFFFFFFFFFFFFFFFF80
FFFFFFFFFFFFFFFFFFFFC0
FFFFFFFFFFFFFFFFFFFFE0
FFFFFFFFFFFFFFFFFFFFF0
FFFFFFFFFFFFFFFFFFFFF8
FFFFFFFFFFFFFFFFFFFFFC
FFFFFFFFFFFFFFFFFFFFFC
FFFFFFFFFFFFFFFFFFFFFE
FFFFFFFFFFFFFFFFFFFFFE
FFFFFFFFFFFFFFFFFFFFFF
FFFFFFFFFFFFFFFFFFFFFF
FFFFFFFFFFFFFFFFFFFFFF
FFFFFFFFFFFFFFFFFFFFFF
FFFFFFFFFFFFFFFFFFFFFF
FFFFFFFFFFFFFFFFFFFFFF
FFFFFFFFFFFFFFFFFFFFFF
FFFFFFFFFFFFFFFFFFFFFF
FFFFE0000000000007FFFF
FFFFE0000000000007FFFF
FFFFE0000000000007FFFF
FFFFE0000000000007FFFF
FFFFE0000000000007FFFF
FFFFE0000000000007FFFF
FFFFE0000000000007FFFF
FFFFE0000000000007FFFF
FFFFE0000000000007FFFF
FFFFE0000000000007FFFF
FFFFE0000000000007FFFF
FFFFE0000000000007FFFF
FFFFE0000000000007FFFF
FFFFE0000000000007FFFF
FFFFE0000000000007FFFF
FFFFE0000000000007FFFF
FFFFE0000000000007FFFF
FFFFE0000000000007FFFF
FFFFE0000000000007FFFF
FFFFE0000000000007FFFF
FFFFE0000000000007FFFF
FFFFE0000000000007FFFF
FFFFE0000000000007FFFF
FFFFE0000000000007FFFF
FFFFE0000000000007FFFF
FFFFE0000000000007FFFF
FFFFE0000000000007FFFF
FFFFE0000000000007FFFF
FFFFE0000000000007FFFF
FFFFE0000000000007FFFF
FFFFE0000000000007FFFF
FFFFE0000000000007FFFF
FFFFE0000000000007FFFF
FFFFE0000000000007FFFF
FFFFE0000000000007FFFF
FFFFE0000000000007FFFF
FFFFE0000000000007FFFF
FFFFE0000000000007FFFF
FFFFE0000000000007FFFF
FFFFE0000000000007FFFF
FFFFE0000000000007FFFF
FFFFE0000000000007FFFF
FFFFE0000000000007FFFF
FFFFE0000000000007FFFF
FFFFE0000000000007FFFF
FFFFE0000000000007FFFF
FFFFE0000000000007FFFF
FFFFE0000000000007FFFF
FFFFE0000000000007FFFF
FFFFE0000000000007FFFF
FFFFE0000000000007FFFF
FFFFE0000000000007FFFF
FFFFE0000000000007FFFF
FFFFE0000000000007FFFF
FFFFE0000000000007FFFF
FFFFE0000000000007FFFF
FFFFE0000000000007FFFF
FFFFE0000000000007FFFF
FFFFE0000000000007FFFF
FFFFE0000000000007FFFF
FFFFE0000000000007FFFF
FFFFE0000000000007FFFF
FFFFE0000000000007FFFF
FFFFE0000000000007FFFF
FFFFE0000000000007FFFF
FFFFE0000000000007FFFF
FFFFE0000000000007FFFF
FFFFE0000000000007FFFF
FFFFE0000000000007FFFF
FFFFE0000000000007FFFF
FFFFE0000000000007FFFF
FFFFE0000000000007FFFF
FFFFE0000000000007FFFF
FFFFE0000000000007FFFF
FFFFE0000000000007FFFF
ENDCHAR
STARTCHAR 006F
ENCODING 111
SWIDTH 656 0
DWIDTH 105 0
BBX 93 94 7 0
BITMAP
0003FFFFFFFFFFFFFFFC0000
001FFFFFFFFFFFFFFFFF8000
007FFFFFFFFFFFFFFFFFE000
01FFFFFFFFFFFFFFFFFFF800
03FFFFFFFFFFFFFFFFFFFC00
07FFFFFFFFFFFFFFFFFFFE00
0FFFFFFFFFFFFFFFFFFFFF00
1FFFFFFFFFFFFFFFFFFFFF80
1FFFFFFFFFFFFFFFFFFFFF80
3FFFFFFFFFFFFFFFFFFFFFC0
3FFFFFFFFFFFFFFFFFFFFFE0
7FFFFFFFFFFFFFFFFFFFFFE0
7FFFFFFFFFFFFFFFFFFFFFE0
FFFFFFFFFFFFFFFFFFFFFFF0
FFFFFFFFFFFFFFFFFFFFFFF0
FFFFFFFFFFFFFFFFFFFFFFF0
FFFFFFFFFFFFFFFFFFFFFFF0
FFFFFFFFFFFFFFFFFFFFFFF0
FFFFFFFFFFFFFFFFFFFFFFF8
FFFFE00000000000003FFFF8
FFFFE00000000000003FFFF8
FFFFE00000000000003FFFF8
FFFFE00000000000003FFFF8
FFFFE00000000000003FFFF8
FFFFE00000000000003FFFF8
FFFFE00000000000003FFFF8
FFFFE00000000000003FFFF8
FFFFE00000000000003FFFF8
FFFFE00000000000003FFFF8
FFFFE00000000000003FFFF8
FFFFE00000000000003FFFF8
FFFFE00000000000003FFFF8
FFFFE00000000000003FFFF8
FFFFE00000000000003FFFF8
FFFFE00000000000003FFFF8
FFFFE00000000000003FFFF8
FFFFE00000000000003FFFF8
FFFFE00000000000003FFFF8
FFFFE00000000000003FFFF8
FFFFE00000000000003FFFF8
FFFFE00000000000003FFFF8
FFFFE00000000000003FFFF8
FFFFE00000000000003FFFF8
FFFFE00000000000003FFFF8
FFFFE00000000000003FFFF8
FFFFE00000000000003FFFF8
FFFFE00000000000003FFFF8
FFFFE00000000000003FFFF8
FFFFE00000000000003FFFF8
FFFFE00000000000003FFFF8
FFFFE00000000000003FFFF8
FFFFE00000000000003FFFF8
FFFFE00000000000003FFFF8
FFFFE00000000000003FFFF8
FFFFE00000000000003FFFF8
FFFFE00000000000003FFFF8
FFFFE00000000000003FFFF8
FFFFE00000000000003FFFF8
FFFFE00000000000003FFFF8
FFFFE00000000000003FFFF8
FFFFE00000000000003FFFF8
FFFFE00000000000003FFFF8
FFFFE00000000000003FFFF8
FFFFE00000000000003FFFF8
FFFFE00000000000003FFFF8
FFFFE00000000000003FFFF8
FFFFE00000000000003FFFF8
FFFFE00000000000003FFFF8
FFFFE00000000000003FFFF8
FFFFE00000000000003FFFF8
FFFFE00000000000003FFFF8
FFFFE00000000000003FFFF8
FFFFE00000000000003FFFF8
FFFFE00000000000003FFFF8
FFFFE00000000000003FFFF8
FFFFFFFFFFFFFFFFFFFFFFF8
FFFFFFFFFFFFFFFFFFFFFFF8
FFFFFFFFFFFFFFFFFFFFFFF0
FFFFFFFFFFFFFFFFFFFFFFF0
FFFFFFFFFFFFFFFFFFFFFFF0
FFFFFFFFFFFFFFFFFFFFFFF0
FFFFFFFFFFFFFFFFFFFFFFF0
7FFFFFFFFFFFFFFFFFFFFFF0
7FFFFFFFFFFFFFFFFFFFFFE0
7FFFFFFFFFFFFFFFFFFFFFE0
3FFFFFFFFFFFFFFFFFFFFFC0
3FFFFFFFFFFFFFFFFFFFFFC0
1FFFFFFFFFFFFFFFFFFFFF80
0FFFFFFFFFFFFFFFFFFFFF80
07FFFFFFFFFFFFFFFFFFFF00
03FFFFFFFFFFFFFFFFFFFC00
01FFFFFFFFFFFFFFFFFFF800
007FFFFFFFFFFFFFFFFFE000
0007FFFFFFFFFFFFFFFE0000
ENDCHAR
STARTCHAR 0070
ENCODING 112
SWIDTH 700 0
DWIDTH 112 0
BBX 93 125 9 -31
BITMAP
FFFFFFFFFFFFFFFFFFFE0000
FFFFFFFFFFFFFFFFFFFFC000
FFFFFFFFFFFFFFFFFFFFF000
FFFFFFFFFFFFFFFFFFFFFC00
FFFFFFFFFFFFFFFFFFFFFE00
FFFFFFFFFFFFFFFFFFFFFF00
FFFFFFFFFFFFFFFFFFFFFF80
FFFFFFFFFFFFFFFFFFFFFFC0
FFFFFFFFFFFFFFFFFFFFFFC0
FFFFFFFFFFFFFFFFFFFFFFE0
FFFFFFFFFFFFFFFFFFFFFFE0
FFFFFFFFFFFFFFFFFFFFFFF0
FFFFFFFFFFFFFFFFFFFFFFF0
FFFFFFFFFFFFFFFFFFFFFFF0
FFFFFFFFFFFFFFFFFFFFFFF8
FFFFFFFFFFFFFFFFFFFFFFF8
FFFFFFFFFFFFFFFFFFFFFFF8
FFFFFFFFFFFFFFFFFFFFFFF8
FFFFFFFFFFFFFFFFFFFFFFF8
FFFFE00000000000003FFFF8
FFFFE00000000000003FFFF8
FFFFE00000000000003FFFF8
FFFFE00000000000003FFFF8
FFFFE00000000000003FFFF8
FFFFE00000000000003FFFF8
FFFFE00000000000003FFFF8
FFFFE00000000000003FFFF8
FFFFE00000000000003FFFF8
FFFFE00000000000003FFFF8
FFFFE00000000000003FFFF8
FFFFE00000000000003FFFF8
FFFFE00000000000003FFFF8
FFFFE00000000000003FFFF8
FFFFE00000000000003FFFF8
FFFFE00000000000003FFFF8
FFFFE00000000000003FFFF8
FFFFE00000000000003FFFF8
FFFFE00000000000003FFFF8
FFFFE00000000000003FFFF8
FFFFE00000000000003FFFF8
FFFFE00000000000003FFFF8
FFFFE00000000000003FFFF8
FFFFE00000000000003FFFF8
FFFFE00000000000003FFFF8
FFFFE00000000000003FFFF8
FFFFE00000000000003FFFF8
FFFFE00000000000003FFFF8
FFFFE00000000000003FFFF8
FFFFE00000000000003FFFF8
FFFFE00000000000003FFFF8
FFFFE00000000000003FFFF8
FFFFE00000000000003FFFF8
FFFFE00000000000003FFFF8
FFFFE00000000000003FFFF8
FFFFE00000000000003FFFF8
FFFFE00000000000003FFFF8
FFFFE00000000000003FFFF8
FFFFE00000000000003FFFF8
FFFFE00000000000003FFFF8
FFFFE00000000000003FFFF8
FFFFE00000000000003FFFF8
FFFFE00000000000003FFFF8
FFFFE00000000000003FFFF8
FFFFE00000000000003FFFF8
FFFFE00000000000003FFFF8
FFFFE00000000000003FFFF8
FFFFE00000000000003FFFF8
FFFFE00000000000003FFFF8
FFFFE00000000000003FFFF8
FFFFE00000000000003FFFF8
FFFFE00000000000003FFFF8
FFFFE00000000000003FFFF8
FFFFE00000000000003FFFF8
FFFFE00000000000003FFFF8
FFFFE00000000000003FFFF8
FFFFFFFFFFFFFFFFFFFFFFF8
FFFFFFFFFFFFFFFFFFFFFFF8
FFFFFFFFFFFFFFFFFFFFFFF8
FFFFFFFFFFFFFFFFFFFFFFF8
FFFFFFFFFFFFFFFFFFFFFFF8
FFFFFFFFFFFFFFFFFFFFFFF0
FFFFFFFFFFFFFFFFFFFFFFF0
FFFFFFFFFFFFFFFFFFFFFFF0
FFFFFFFFFFFFFFFFFFFFFFE0
FFFFFFFFFFFFFFFFFFFFFFE0
FFFFFFFFFFFFFFFFFFFFFFC0
FFFFFFFFFFFFFFFFFFFFFF80
FFFFFFFFFFFFFFFFFFFFFF00
FFFFFFFFFFFFFFFFFFFFFF00
FFFFFFFFFFFFFFFFFFFFFC00
FFFFFFFFFFFFFFFFFFFFF800
FFFFFFFFFFFFFFFFFFFFF000
FFFFFFFFFFFFFFFFFFFFC000
FFFFFFFFFFFFFFFFFFFE0000
FFFFE0000000000000000000
FFFFE0000000000000000000
FFFFE0000000000000000000
FFFFE0000000000000000000
FFFFE0000000000000000000
FFFFE0000000000000000000
FFFFE0000000000000000000
FFFFE0000000000000000000
FFFFE0000000000000000000
FFFFE0000000000000000000
FFFFE0000000000000000000
FFFFE0000000000000000000
FFFFE0000000000000000000
FFFFE0000000000000000000
FFFFE0000000000000000000
FFFFE0000000000000000000
FFFFE0000000000000000000
FFFFE0000000000000000000
FFFFE0000000000000000000
FFFFE0000000000000000000
FFFFE0000000000000000000
FFFFE0000000000000000000
FFFFE0000000000000000000
FFFFE0000000000000000000
FFFFE0000000000000000000
FFFFE0000000000000000000
FFFFE0000000000000000000
FFFFE0000000000000000000
FFFFE0000000000000000000
FFFFE0000000000000000000
FFFFE0000000000000000000
ENDCHAR
STARTCHAR 0071
ENCODING 113
SWIDTH 693 0
DWIDTH 111 0
BBX 93 125 9 -31
BITMAP
0003FFFFFFFFFFFFFFFFFFF8
001FFFFFFFFFFFFFFFFFFFF8
007FFFFFFFFFFFFFFFFFFFF8
01FFFFFFFFFFFFFFFFFFFFF8
03FFFFFFFFFFFFFFFFFFFFF8
07FFFFFFFFFFFFFFFFFFFFF8
0FFFFFFFFFFFFFFFFFFFFFF8
0FFFFFFFFFFFFFFFFFFFFFF8
1FFFFFFFFFFFFFFFFFFFFFF8
3FFFFFFFFFFFFFFFFFFFFFF8
3FFFFFFFFFFFFFFFFFFFFFF8
7FFFFFFFFFFFFFFFFFFFFFF8
7FFFFFFFFFFFFFFFFFFFFFF8
7FFFFFFFFFFFFFFFFFFFFFF8
7FFFFFFFFFFFFFFFFFFFFFF8
FFFFFFFFFFFFFFFFFFFFFFF8
FFFFFFFFFFFFFFFFFFFFFFF8
FFFFFFFFFFFFFFFFFFFFFFF8
FFFFFFFFFFFFFFFFFFFFFFF8
FFFFE00000000000003FFFF8
FFFFE00000000000003FFFF8
FFFFE00000000000003FFFF8
FFFFE00000000000003FFFF8
FFFFE00000000000003FFFF8
FFFFE00000000000003FFFF8
FFFFE00000000000003FFFF8
FFFFE00000000000003FFFF8
FFFFE00000000000003FFFF8
FFFFE00000000000003FFFF8
FFFFE00000000000003FFFF8
FFFFE00000000000003FFFF8
FFFFE00000000000003FFFF8
FFFFE00000000000003FFFF8
FFFFE00000000000003FFFF8
FFFFE00000000000003FFFF8
FFFFE00000000000003FFFF8
FFFFE00000000000003FFFF8
FFFFE00000000000003FFFF8
FFFFE00000000000003FFFF8
FFFFE00000000000003FFFF8
FFFFE00000000000003FFFF8
FFFFE00000000000003FFFF8
FFFFE00000000000003FFFF8
FFFFE00000000000003FFFF8
FFFFE00000000000003FFFF8
FFFFE00000000000003FFFF8
FFFFE00000000000003FFFF8
FFFFE00000000000003FFFF8
FFFFE00000000000003FFFF8
FFFFE00000000000003FFFF8
FFFFE00000000000003FFFF8
FFFFE00000000000003FFFF8
FFFFE00000000000003FFFF8
FFFFE00000000000003FFFF8
FFFFE00000000000003FFFF8
FFFFE00000000000003FFFF8
FFFFE00000000000003FFFF8
FFFFE00000000000003FFFF8
FFFFE00000000000003FFFF8
FFFFE00000000000003FFFF8
FFFFE00000000000003FFFF8
FFFFE00000000000003FFFF8
FFFFE00000000000003FFFF8
FFFFE00000000000003FFFF8
FFFFE00000000000003FFFF8
FFFFE00000000000003FFFF8
FFFFE00000000000003FFFF8
FFFFE00000000000003FFFF8
FFFFE00000000000003FFFF8
FFFFE00000000000003FFFF8
FFFFE00000000000003FFFF8
FFFFE00000000000003FFFF8
FFFFE00000000000003FFFF8
FFFFE00000000000003FFFF8
FFFFE00000000000003FFFF8
FFFFFFFFFFFFFFFFFFFFFFF8
FFFFFFFFFFFFFFFFFFFFFFF8
FFFFFFFFFFFFFFFFFFFFFFF8
FFFFFFFFFFFFFFFFFFFFFFF8
FFFFFFFFFFFFFFFFFFFFFFF8
7FFFFFFFFFFFFFFFFFFFFFF8
7FFFFFFFFFFFFFFFFFFFFFF8
7FFFFFFFFFFFFFFFFFFFFFF8
3FFFFFFFFFFFFFFFFFFFFFF8
3FFFFFFFFFFFFFFFFFFFFFF8
1FFFFFFFFFFFFFFFFFFFFFF8
0FFFFFFFFFFFFFFFFFFFFFF8
07FFFFFFFFFFFFFFFFFFFFF8
03FFFFFFFFFFFFFFFFFFFFF8
01FFFFFFFFFFFFFFFFFFFFF8
00FFFFFFFFFFFFFFFFFFFFF8
007FFFFFFFFFFFFFFFFFFFF8
001FFFFFFFFFFFFFFFFFFFF8
0001FFFFFFFFFFFFFFFFFFF8
0000000000000000003FFFF8
0000000000000000003FFFF8
0000000000000000003FFFF8
0000000000000000003FFFF8
0000000000000000003FFFF8
0000000000000000003FFFF8
0000000000000000003FFFF8
0000000000000000003FFFF8
0000000000000000003FFFF8
0000000000000000003FFFF8
0000000000000000003FFFF8
0000000000000000003FFFF8
0000000000000000003FFFF8
0000000000000000003FFFF8
0000000000000000003FFFF8
0000000000000000003FFFF8
0000000000000000003FFFF8
0000000000000000003FFFF8
0000000000000000003FFFF8
0000000000000000003FFFF8
0000000000000000003FFFF8
0000000000000000003FFFF8
0000000000000000003FFFF8
0000000000000000003FFFF8
0000000000000000003FFFF8
0000000000000000003FFFF8
0000000000000000003FFFF8
0000000000000000003FFFF8
0000000000000000003FFFF8
0000000000000000003FFFF8
0000000000000000003FFFF8
ENDCHAR
STARTCHAR 0072
ENCODING 114
SWIDTH 618 0
DWIDTH 99 0
BBX 85 94 8 0
BITMAP
FFFFFFFFFFFFFFFFFE0000
FFFFFFFFFFFFFFFFFFE000
FFFFFFFFFFFFFFFFFFF800
FFFFFFFFFFFFFFFFFFFC00
FFFFFFFFFFFFFFFFFFFE00
FFFFFFFFFFFFFFFFFFFF00
FFFFFFFFFFFFFFFFFFFF80
FFFFFFFFFFFFFFFFFFFFC0
FFFFFFFFFFFFFFFFFFFFC0
FFFFFFFFFFFFFFFFFFFFE0
FFFFFFFFFFFFFFFFFFFFE0
FFFFFFFFFFFFFFFFFFFFF0
FFFFFFFFFFFFFFFFFFFFF0
FFFFFFFFFFFFFFFFFFFFF0
FFFFFFFFFFFFFFFFFFFFF0
FFFFFFFFFFFFFFFFFFFFF0
FFFFFFFFFFFFFFFFFFFFF8
FFFFFFFFFFFFFFFFFFFFF8
FFFFFFFFFFFFFFFFFFFFF8
FFFFE000000000003FFFF8
FFFFE000000000003FFFF8
FFFFE000000000003FFFF8
FFFFE000000000003FFFF8
FFFFE000000000003FFFF8
FFFFE000000000003FFFF8
FFFFE000000000003FFFF8
FFFFE000000000003FFFF8
FFFFE000000000003FFFF8
FFFFE000000000003FFFF8
FFFFE000000000003FFFF8
FFFFE000000000003FFFF8
FFFFE000000000003FFFF8
FFFFE000000000003FFFF8
FFFFE000000000003FFFF8
FFFFE000000000003FFFF8
FFFFE000000000003FFFF8
FFFFE000000000003FFFF8
FFFFE000000000003FFFF8
FFFFE00000000000000000
FFFFE00000000000000000
FFFFE00000000000000000
FFFFE00000000000000000
FFFFE00000000000000000
FFFFE00000000000000000
FFFFE00000000000000000
FFFFE00000000000000000
FFFFE00000000000000000
FFFFE00000000000000000
FFFFE00000000000000000
FFFFE00000000000000000
FFFFE00000000000000000
FFFFE00000000000000000
FFFFE00000000000000000
FFFFE00000000000000000
FFFFE00000000000000000
FFFFE00000000000000000
FFFFE00000000000000000
FFFFE00000000000000000
FFFFE00000000000000000
FFFFE00000000000000000
FFFFE00000000000000000
FFFFE00000000000000000
FFFFE00000000000000000
FFFFE00000000000000000
FFFFE00000000000000000
FFFFE00000000000000000
FFFFE00000000000000000
FFFFE00000000000000000
FFFFE00000000000000000
FFFFE00000000000000000
FFFFE00000000000000000
FFFFE00000000000000000
FFFFE00000000000000000
FFFFE00000000000000000
FFFFE00000000000000000
FFFFE00000000000000000
FFFFE00000000000000000
FFFFE00000000000000000
FFFFE00000000000000000
FFFFE00000000000000000
FFFFE00000000000000000
FFFFE00000000000000000
FFFFE00000000000000000
FFFFE00000000000000000
FFFFE00000000000000000
FFFFE00000000000000000
FFFFE00000000000000000
FFFFE00000000000000000
FFFFE00000000000000000
FFFFE00000000000000000
FFFFE00000000000000000
FFFFE00000000000000000
FFFFE00000000000000000
FFFFE00000000000000000
ENDCHAR
STARTCHAR 0073
ENCODING 115
SWIDTH 637 0
DWIDTH 102 0
BBX 87 94 9 0
BITMAP
0003FFFFFFFFFFFFFFFF00
001FFFFFFFFFFFFFFFFF00
007FFFFFFFFFFFFFFFFF00
01FFFFFFFFFFFFFFFFFF00
03FFFFFFFFFFFFFFFFFF00
07FFFFFFFFFFFFFFFFFF00
0FFFFFFFFFFFFFFFFFFF00
0FFFFFFFFFFFFFFFFFFF00
1FFFFFFFFFFFFFFFFFFF00
3FFFFFFFFFFFFFFFFFFF00
3FFFFFFFFFFFFFFFFFFF00
7FFFFFFFFFFFFFFFFFFF00
7FFFFFFFFFFFFFFFFFFF00
FFFFFFFFFFFFFFFFFFFF00
FFFFFFFFFFFFFFFFFFFF00
FFFFFFFFFFFFFFFFFFFF00
FFFFFFFFFFFFFFFFFFFF00
FFFFFFFFFFFFFFFFFFFF00
FFFFFFFFFFFFFFFFFFFF00
FFFFE00000000000000000
FFFFE00000000000000000
FFFFE00000000000000000
FFFFE00000000000000000
FFFFE00000000000000000
FFFFE00000000000000000
FFFFE00000000000000000
FFFFE00000000000000000
FFFFE00000000000000000
FFFFE00000000000000000
FFFFE00000000000000000
FFFFE00000000000000000
FFFFE00000000000000000
FFFFE00000000000000000
FFFFE00000000000000000
FFFFE00000000000000000
FFFFE00000000000000000
FFFFE00000000000000000
FFFFFFFFFFFFFC00000000
FFFFFFFFFFFFFFFFFFC000
FFFFFFFFFFFFFFFFFFF000
FFFFFFFFFFFFFFFFFFFC00
FFFFFFFFFFFFFFFFFFFE00
FFFFFFFFFFFFFFFFFFFF80
7FFFFFFFFFFFFFFFFFFFC0
7FFFFFFFFFFFFFFFFFFFE0
7FFFFFFFFFFFFFFFFFFFE0
3FFFFFFFFFFFFFFFFFFFF0
3FFFFFFFFFFFFFFFFFFFF8
1FFFFFFFFFFFFFFFFFFFF8
0FFFFFFFFFFFFFFFFFFFF8
07FFFFFFFFFFFFFFFFFFFC
03FFFFFFFFFFFFFFFFFFFC
01FFFFFFFFFFFFFFFFFFFC
00FFFFFFFFFFFFFFFFFFFC
003FFFFFFFFFFFFFFFFFFE
0003FFFFFFFFFFFFFFFFFE
00000000000000000FFFFE
00000000000000000FFFFE
00000000000000000FFFFE
00000000000000000FFFFE
00000000000000000FFFFE
00000000000000000FFFFE
00000000000000000FFFFE
00000000000000000FFFFE
00000000000000000FFFFE
00000000000000000FFFFE
00000000000000000FFFFE
00000000000000000FFFFE
00000000000000000FFFFE
00000000000000000FFFFE
00000000000000000FFFFE
00000000000000000FFFFE
00000000000000000FFFFE
00000000000000000FFFFE
00000000000000000FFFFE
7FFFFFFFFFFFFFFFFFFFFE
7FFFFFFFFFFFFFFFFFFFFE
7FFFFFFFFFFFFFFFFFFFFE
7FFFFFFFFFFFFFFFFFFFFC
7FFFFFFFFFFFFFFFFFFFFC
7FFFFFFFFFFFFFFFFFFFFC
7FFFFFFFFFFFFFFFFFFFFC
7FFFFFFFFFFFFFFFFFFFF8
7FFFFFFFFFFFFFFFFFFFF8
7FFFFFFFFFFFFFFFFFFFF0
7FFFFFFFFFFFFFFFFFFFF0
7FFFFFFFFFFFFFFFFFFFE0
7FFFFFFFFFFFFFFFFFFFC0
7FFFFFFFFFFFFFFFFFFFC0
7FFFFFFFFFFFFFFFFFFF80
7FFFFFFFFFFFFFFFFFFE00
7FFFFFFFFFFFFFFFFFFC00
7FFFFFFFFFFFFFFFFFF000
7FFFFFFFFFFFFFFFFF0000
ENDCHAR
STARTCHAR 0074
ENCODING 116
SWIDTH 312 0
DWIDTH 50 0
BBX 37 121 6 0
BITMAP
FFFFE00000
FFFFE00000
FFFFE00000
FFFFE00000
FFFFE00000
FFFFE00000
FFFFE00000
FFFFE00000
FFFFE00000
FFFFE00000
FFFFE00000
FFFFE00000
FFFFE00000
FFFFE00000
FFFFE00000
FFFFE00000
FFFFE00000
FFFFE00000
FFFFE00000
FFFFE00000
FFFFE00000
FFFFE00000
FFFFE00000
FFFFE00000
FFFFE00000
FFFFE00000
FFFFE00000
FFFFFFFFF8
FFFFFFFFF8
FFFFFFFFF8
FFFFFFFFF8
FFFFFFFFF8
FFFFFFFFF8
FFFFFFFFF8
FFFFFFFFF8
FFFFFFFFF8
FFFFFFFFF8
FFFFFFFFF8
FFFFFFFFF8
FFFFFFFFF8
FFFFFFFFF8
FFFFFFFFF8
FFFFFFFFF8
FFFFFFFFF8
FFFFFFFFF8
FFFFFFFFF8
FFFFE00000
FFFFE00000
FFFFE00000
FFFFE00000
FFFFE00000
FFFFE00000
FFFFE00000
FFFFE00000
FFFFE00000
FFFFE00000
FFFFE00000
FFFFE00000
FFFFE00000
FFFFE00000
FFFFE00000
FFFFE00000
FFFFE00000
FFFFE00000
FFFFE00000
FFFFE00000
FFFFE00000
FFFFE00000
FFFFE00000
FFFFE00000
FFFFE00000
FFFFE00000
FFFFE00000
FFFFE00000
FFFFE00000
FFFFE00000
FFFFE00000
FFFFE00000
FFFFE00000
FFFFE00000
FFFFE00000
FFFFE00000
FFFFE00000
FFFFE00000
FFFFE00000
FFFFE00000
FFFFE00000
FFFFE00000
FFFFE00000
FFFFE00000
FFFFE00000
FFFFE00000
FFFFE00000
FFFFE00000
FFFFE00000
FFFFE00000
FFFFE00000
FFFFE00000
FFFFE00000
FFFFE00000
FFFFE00000
FFFFE00000
FFFFFFFFF8
FFFFFFFFF8
FFFFFFFFF8
FFFFFFFFF8
FFFFFFFFF8
7FFFFFFFF8
7FFFFFFFF8
7FFFFFFFF8
3FFFFFFFF8
3FFFFFFFF8
1FFFFFFFF8
0FFFFFFFF8
0FFFFFFFF8
07FFFFFFF8
03FFFFFFF8
00FFFFFFF8
007FFFFFF8
001FFFFFF8
0003FFFFF8
ENDCHAR
STARTCHAR 0075
ENCODING 117
SWIDTH 693 0
DWIDTH 111 0
BBX 93 94 9 0
BITMAP
FFFFE00000000000003FFFF8
FFFFE00000000000003FFFF8
FFFFE00000000000003FFFF8
FFFFE00000000000003FFFF8
FFFFE00000000000003FFFF8
FFFFE00000000000003FFFF8
FFFFE00000000000003FFFF8
FFFFE00000000000003FFFF8
FFFFE00000000000003FFFF8
FFFFE00000000000003FFFF8
FFFFE00000000000003FFFF8
FFFFE00000000000003FFFF8
FFFFE00000000000003FFFF8
FFFFE00000000000003FFFF8
FFFFE00000000000003FFFF8
FFFFE00000000000003FFFF8
FFFFE00000000000003FFFF8
FFFFE00000000000003FFFF8
FFFFE00000000000003FFFF8
FFFFE00000000000003FFFF8
FFFFE00000000000003FFFF8
FFFFE00000000000003FFFF8
FFFFE00000000000003FFFF8
FFFFE00000000000003FFFF8
FFFFE00000000000003FFFF8
FFFFE00000000000003FFFF8
FFFFE00000000000003FFFF8
FFFFE00000000000003FFFF8
FFFFE00000000000003FFFF8
FFFFE00000000000003FFFF8
FFFFE00000000000003FFFF8
FFFFE00000000000003FFFF8
FFFFE00000000000003FFFF8
FFFFE00000000000003FFFF8
FFFFE00000000000003FFFF8
FFFFE00000000000003FFFF8
FFFFE00000000000003FFFF8
FFFFE00000000000003FFFF8
FFFFE00000000000003FFFF8
FFFFE00000000000003FFFF8
FFFFE00000000000003FFFF8
FFFFE00000000000003FFFF8
FFFFE00000000000003FFFF8
FFFFE00000000000003FFFF8
FFFFE00000000000003FFFF8
FFFFE00000000000003FFFF8
FFFFE00000000000003FFFF8
FFFFE00000000000003FFFF8
FFFFE00000000000003FFFF8
FFFFE00000000000003FFFF8
FFFFE00000000000003FFFF8
FFFFE00000000000003FFFF8
FFFFE00000000000003FFFF8
FFFFE00000000000003FFFF8
FFFFE00000000000003FFFF8
FFFFE00000000000003FFFF8
FFFFE00000000000003FFFF8
FFFFE00000000000003FFFF8
FFFFE00000000000003FFFF8
FFFFE00000000000003FFFF8
FFFFE00000000000003FFFF8
FFFFE00000000000003FFFF8
FFFFE00000000000003FFFF8
FFFFE00000000000003FFFF8
FFFFE00000000000003FFFF8
FFFFE00000000000003FFFF8
FFFFE00000000000003FFFF8
FFFFE00000000000003FFFF8
FFFFE00000000000003FFFF8
FFFFE00000000000003FFFF8
FFFFE00000000000003FFFF8
FFFFE00000000000003FFFF8
FFFFE00000000000003FFFF8
FFFFE00000000000003FFFF8
FFFFE00000000000003FFFF8
FFFFFFFFFFFFFFFFFFFFFFF8
FFFFFFFFFFFFFFFFFFFFFFF8
FFFFFFFFFFFFFFFFFFFFFFF0
FFFFFFFFFFFFFFFFFFFFFFF0
FFFFFFFFFFFFFFFFFFFFFFF0
FFFFFFFFFFFFFFFFFFFFFFF0
7FFFFFFFFFFFFFFFFFFFFFF0
7FFFFFFFFFFFFFFFFFFFFFE0
7FFFFFFFFFFFFFFFFFFFFFE0
3FFFFFFFFFFFFFFFFFFFFFC0
3FFFFFFFFFFFFFFFFFFFFFC0
1FFFFFFFFFFFFFFFFFFFFF80
0FFFFFFFFFFFFFFFFFFFFF00
07FFFFFFFFFFFFFFFFFFFF00
03FFFFFFFFFFFFFFFFFFFE00
01FFFFFFFFFFFFFFFFFFF800
007FFFFFFFFFFFFFFFFFF000
001FFFFFFFFFFFFFFFFFC000
0003FFFFFFFFFFFFFFFE0000
ENDCHAR
ENDFONT
